{
.appVersion = "911";
copyright = "Copyright (c) 2011, Agustina Mingote (agustinamingote@gmail.com), Copyright (c) 2011, Constanza Artigas Preller (artigasconstanza@gmail.com), with Reserved Font Name 'Homenaje'";
customParameters = (
{
name = licenseURL;
value = "http://scripts.sil.org/OFL";
},
{
name = trademark;
value = "Homenaje is a trademark of Constanza Artigas Preller, Agustina Mingote.";
},
{
name = license;
value = "This Font Software is licensed under the SIL Open Font License, Version 1.1. This license is available with a FAQ at: http://scripts.sil.org/OFL";
},
{
name = panose;
value = (
2,
0,
0,
0,
0,
0,
0,
0,
0,
0
);
}
);
date = "2009-09-26 19:09:45 +0000";
designer = "Constanza Artigas Preller, Agustina Mingote";
familyName = Homenaje;
fontMaster = (
{
alignmentZones = (
"{700, 7}",
"{520, 7}",
"{0, -7}",
"{-160, 0}"
);
ascender = 892;
capHeight = 700;
customParameters = (
{
name = typoDescender;
value = -204;
},
{
name = typoLineGap;
value = 0;
},
{
name = hheaLineGap;
value = 0;
},
{
name = hheaAscender;
value = 892;
},
{
name = typoAscender;
value = 892;
},
{
name = hheaDescender;
value = -204;
},
{
name = winDescent;
value = 204;
},
{
name = winAscent;
value = 892;
}
);
descender = -204;
horizontalStems = (
66,
60
);
id = UUID0;
verticalStems = (
80,
73,
88
);
xHeight = 520;
}
);
glyphs = (
{
glyphname = A;
lastChange = "2016-08-11 09:49:33 +0000";
layers = (
{
background = {
paths = (
{
closed = 1;
nodes = (
"178 700 LINE",
"20 0 LINE",
"105 0 LINE",
"150 206 LINE",
"332 206 LINE",
"381 0 LINE",
"463 0 LINE",
"311 700 LINE"
);
},
{
closed = 1;
nodes = (
"317 274 LINE",
"165 274 LINE",
"238 634 LINE",
"245 634 LINE"
);
}
);
};
hints = (
{
horizontal = 1;
place = "{206, 68}";
},
{
horizontal = 1;
place = "{700, -20}";
target = down;
type = TopGhost;
},
{
horizontal = 1;
place = "{0, 21}";
target = up;
type = BottomGhost;
}
);
layerId = UUID0;
paths = (
{
closed = 1;
nodes = (
"105 0 LINE",
"150 206 LINE",
"332 206 LINE",
"381 0 LINE",
"463 0 LINE",
"311 700 LINE",
"178 700 LINE",
"20 0 LINE"
);
},
{
closed = 1;
nodes = (
"238 634 LINE",
"245 634 LINE",
"317 274 LINE",
"165 274 LINE"
);
}
);
width = 483;
}
);
leftKerningGroup = A;
rightKerningGroup = A;
unicode = 0041;
},
{
glyphname = Acircumflex;
lastChange = "2016-08-11 09:49:33 +0000";
layers = (
{
background = {
paths = (
{
closed = 1;
nodes = (
"248 868 LINE",
"132 769 LINE",
"165 739 LINE",
"248 790 LINE",
"331 739 LINE",
"364 769 LINE"
);
}
);
};
components = (
{
name = A;
}
);
hints = (
{
horizontal = 1;
place = "{868, -20}";
target = down;
type = TopGhost;
},
{
horizontal = 1;
place = "{739, 21}";
target = up;
type = BottomGhost;
}
);
layerId = UUID0;
paths = (
{
closed = 1;
nodes = (
"248 790 LINE",
"331 739 LINE",
"364 769 LINE",
"248 868 LINE",
"132 769 LINE",
"165 739 LINE"
);
}
);
width = 483;
}
);
leftKerningGroup = A;
rightKerningGroup = A;
unicode = 00C2;
},
{
glyphname = Aring;
lastChange = "2016-08-11 09:49:33 +0000";
layers = (
{
background = {
paths = (
{
closed = 1;
nodes = (
"314 839 LINE SMOOTH",
"314 874 OFFCURVE",
"283 892 OFFCURVE",
"243 892 CURVE SMOOTH",
"204 892 OFFCURVE",
"172 874 OFFCURVE",
"172 839 CURVE SMOOTH",
"172 815 LINE SMOOTH",
"172 780 OFFCURVE",
"204 758 OFFCURVE",
"243 758 CURVE SMOOTH",
"283 758 OFFCURVE",
"314 780 OFFCURVE",
"314 815 CURVE"
);
},
{
closed = 1;
nodes = (
"214 832 LINE SMOOTH",
"214 852 OFFCURVE",
"225 858 OFFCURVE",
"243 858 CURVE SMOOTH",
"260 858 OFFCURVE",
"272 852 OFFCURVE",
"272 832 CURVE SMOOTH",
"272 818 LINE SMOOTH",
"272 797 OFFCURVE",
"260 793 OFFCURVE",
"243 793 CURVE SMOOTH",
"225 793 OFFCURVE",
"214 797 OFFCURVE",
"214 818 CURVE SMOOTH"
);
}
);
};
components = (
{
name = A;
}
);
hints = (
{
place = "{172, 42}";
},
{
place = "{272, 42}";
},
{
horizontal = 1;
place = "{758, 35}";
},
{
horizontal = 1;
place = "{858, 34}";
}
);
layerId = UUID0;
paths = (
{
closed = 1;
nodes = (
"283 758 OFFCURVE",
"314 780 OFFCURVE",
"314 815 CURVE",
"314 815 LINE",
"314 839 LINE SMOOTH",
"314 874 OFFCURVE",
"283 892 OFFCURVE",
"243 892 CURVE SMOOTH",
"204 892 OFFCURVE",
"172 874 OFFCURVE",
"172 839 CURVE SMOOTH",
"172 815 LINE SMOOTH",
"172 780 OFFCURVE",
"204 758 OFFCURVE",
"243 758 CURVE SMOOTH"
);
},
{
closed = 1;
nodes = (
"225 793 OFFCURVE",
"214 797 OFFCURVE",
"214 818 CURVE SMOOTH",
"214 832 LINE SMOOTH",
"214 852 OFFCURVE",
"225 858 OFFCURVE",
"243 858 CURVE SMOOTH",
"260 858 OFFCURVE",
"272 852 OFFCURVE",
"272 832 CURVE SMOOTH",
"272 818 LINE SMOOTH",
"272 797 OFFCURVE",
"260 793 OFFCURVE",
"243 793 CURVE SMOOTH"
);
}
);
width = 483;
}
);
leftKerningGroup = A;
rightKerningGroup = A;
unicode = 00C5;
},
{
glyphname = AE;
lastChange = "2016-08-11 09:49:33 +0000";
layers = (
{
background = {
paths = (
{
closed = 1;
nodes = (
"290 274 LINE",
"176 274 LINE",
"253 634 LINE",
"290 634 LINE"
);
},
{
closed = 1;
nodes = (
"290 206 LINE",
"290 0 LINE",
"605 0 LINE",
"605 68 LINE",
"378 68 LINE",
"378 340 LINE",
"554 340 LINE",
"554 408 LINE",
"378 408 LINE",
"378 632 LINE",
"595 632 LINE",
"595 700 LINE",
"193 700 LINE",
"20 0 LINE",
"114 0 LINE",
"160 206 LINE"
);
}
);
};
hints = (
{
place = "{290, 88}";
},
{
horizontal = 1;
place = "{0, 68}";
},
{
horizontal = 1;
place = "{206, 68}";
},
{
horizontal = 1;
place = "{340, 68}";
},
{
horizontal = 1;
place = "{632, 68}";
}
);
layerId = UUID0;
paths = (
{
closed = 1;
nodes = (
"114 0 LINE",
"160 206 LINE",
"290 206 LINE",
"290 0 LINE",
"605 0 LINE",
"605 68 LINE",
"378 68 LINE",
"378 340 LINE",
"554 340 LINE",
"554 408 LINE",
"378 408 LINE",
"378 632 LINE",
"595 632 LINE",
"595 700 LINE",
"193 700 LINE",
"20 0 LINE"
);
},
{
closed = 1;
nodes = (
"253 634 LINE",
"290 634 LINE",
"290 274 LINE",
"176 274 LINE"
);
}
);
width = 645;
}
);
unicode = 00C6;
},
{
glyphname = B;
lastChange = "2016-08-11 09:49:33 +0000";
layers = (
{
background = {
paths = (
{
closed = 1;
nodes = (
"161 634 LINE",
"224 634 LINE SMOOTH",
"303 634 OFFCURVE",
"350 605 OFFCURVE",
"350 526 CURVE SMOOTH",
"350 447 OFFCURVE",
"303 407 OFFCURVE",
"224 407 CURVE SMOOTH",
"161 407 LINE"
);
},
{
closed = 1;
nodes = (
"453 289 OFFCURVE",
"411 346 OFFCURVE",
"363 372 CURVE",
"399 396 OFFCURVE",
"428 455 OFFCURVE",
"428 524 CURVE SMOOTH",
"428 647 OFFCURVE",
"366 700 OFFCURVE",
"243 700 CURVE SMOOTH",
"73 700 LINE",
"73 0 LINE",
"228 0 LINE SMOOTH",
"429 0 OFFCURVE",
"453 120 OFFCURVE",
"453 213 CURVE SMOOTH"
);
},
{
closed = 1;
nodes = (
"369 109 OFFCURVE",
"319 66 OFFCURVE",
"223 66 CURVE SMOOTH",
"161 66 LINE",
"161 339 LINE",
"224 339 LINE SMOOTH",
"291 339 OFFCURVE",
"369 308 OFFCURVE",
"369 210 CURVE SMOOTH"
);
}
);
};
hints = (
{
place = "{73, 88}";
},
{
place = "{350, 78}";
},
{
place = "{369, 59}";
},
{
place = "{369, 84}";
},
{
horizontal = 1;
place = "{0, 66}";
},
{
horizontal = 1;
place = "{339, 68}";
},
{
horizontal = 1;
place = "{634, 66}";
}
);
layerId = UUID0;
paths = (
{
closed = 1;
nodes = (
"228 0 LINE SMOOTH",
"429 0 OFFCURVE",
"453 120 OFFCURVE",
"453 213 CURVE SMOOTH",
"453 213 LINE SMOOTH",
"453 289 OFFCURVE",
"411 346 OFFCURVE",
"363 372 CURVE",
"399 396 OFFCURVE",
"428 455 OFFCURVE",
"428 524 CURVE SMOOTH",
"428 647 OFFCURVE",
"366 700 OFFCURVE",
"243 700 CURVE SMOOTH",
"73 700 LINE",
"73 0 LINE"
);
},
{
closed = 1;
nodes = (
"161 339 LINE",
"224 339 LINE SMOOTH",
"291 339 OFFCURVE",
"369 308 OFFCURVE",
"369 210 CURVE SMOOTH",
"369 210 LINE SMOOTH",
"369 109 OFFCURVE",
"319 66 OFFCURVE",
"223 66 CURVE SMOOTH",
"161 66 LINE"
);
},
{
closed = 1;
nodes = (
"161 634 LINE",
"224 634 LINE SMOOTH",
"303 634 OFFCURVE",
"350 605 OFFCURVE",
"350 526 CURVE SMOOTH",
"350 447 OFFCURVE",
"303 407 OFFCURVE",
"224 407 CURVE SMOOTH",
"161 407 LINE"
);
}
);
width = 486;
}
);
unicode = 0042;
},
{
glyphname = C;
lastChange = "2016-08-11 09:49:33 +0000";
layers = (
{
background = {
paths = (
{
closed = 1;
nodes = (
"368 66 LINE",
"234 66 LINE SMOOTH",
"174 66 OFFCURVE",
"131 103 OFFCURVE",
"131 163 CURVE SMOOTH",
"131 537 LINE SMOOTH",
"131 597 OFFCURVE",
"174 634 OFFCURVE",
"234 634 CURVE SMOOTH",
"368 634 LINE",
"368 700 LINE",
"234 700 LINE SMOOTH",
"114 700 OFFCURVE",
"43 639 OFFCURVE",
"43 519 CURVE SMOOTH",
"43 181 LINE SMOOTH",
"43 61 OFFCURVE",
"114 0 OFFCURVE",
"234 0 CURVE SMOOTH",
"368 0 LINE"
);
}
);
};
hints = (
{
place = "{43, 88}";
},
{
horizontal = 1;
place = "{0, 66}";
},
{
horizontal = 1;
place = "{634, 66}";
}
);
layerId = UUID0;
paths = (
{
closed = 1;
nodes = (
"368 0 LINE",
"368 66 LINE",
"234 66 LINE SMOOTH",
"174 66 OFFCURVE",
"131 103 OFFCURVE",
"131 163 CURVE SMOOTH",
"131 537 LINE SMOOTH",
"131 597 OFFCURVE",
"174 634 OFFCURVE",
"234 634 CURVE SMOOTH",
"368 634 LINE",
"368 700 LINE",
"234 700 LINE SMOOTH",
"114 700 OFFCURVE",
"43 639 OFFCURVE",
"43 519 CURVE SMOOTH",
"43 181 LINE SMOOTH",
"43 61 OFFCURVE",
"114 0 OFFCURVE",
"234 0 CURVE SMOOTH"
);
}
);
width = 388;
}
);
unicode = 0043;
},
{
glyphname = Ccedilla;
lastChange = "2016-08-11 09:49:33 +0000";
layers = (
{
background = {
paths = (
{
closed = 1;
nodes = (
"277 11 LINE",
"215 11 LINE",
"194 -70 LINE",
"246 -70 LINE SMOOTH",
"267 -70 OFFCURVE",
"280 -73 OFFCURVE",
"280 -91 CURVE SMOOTH",
"280 -108 OFFCURVE",
"265 -113 OFFCURVE",
"235 -113 CURVE SMOOTH",
"155 -113 LINE",
"155 -160 LINE",
"262 -160 LINE SMOOTH",
"312 -160 OFFCURVE",
"340 -139 OFFCURVE",
"340 -92 CURVE SMOOTH",
"340 -43 OFFCURVE",
"309 -32 OFFCURVE",
"266 -32 CURVE"
);
}
);
};
components = (
{
name = C;
}
);
hints = (
{
place = "{280, 60}";
},
{
horizontal = 1;
place = "{-160, 47}";
},
{
horizontal = 1;
place = "{-70, 38}";
},
{
horizontal = 1;
place = "{-70, 81}";
}
);
layerId = UUID0;
paths = (
{
closed = 1;
nodes = (
"262 -160 LINE SMOOTH",
"312 -160 OFFCURVE",
"340 -139 OFFCURVE",
"340 -92 CURVE SMOOTH",
"340 -43 OFFCURVE",
"309 -32 OFFCURVE",
"266 -32 CURVE",
"277 11 LINE",
"215 11 LINE",
"194 -70 LINE",
"246 -70 LINE SMOOTH",
"267 -70 OFFCURVE",
"280 -73 OFFCURVE",
"280 -91 CURVE SMOOTH",
"280 -108 OFFCURVE",
"265 -113 OFFCURVE",
"235 -113 CURVE SMOOTH",
"155 -113 LINE",
"155 -160 LINE"
);
}
);
width = 388;
}
);
unicode = 00C7;
},
{
glyphname = D;
lastChange = "2016-08-11 09:49:33 +0000";
layers = (
{
background = {
paths = (
{
closed = 1;
nodes = (
"161 68 LINE",
"161 632 LINE",
"246 632 LINE SMOOTH",
"306 632 OFFCURVE",
"349 595 OFFCURVE",
"349 535 CURVE SMOOTH",
"349 165 LINE SMOOTH",
"349 105 OFFCURVE",
"306 68 OFFCURVE",
"246 68 CURVE SMOOTH"
);
},
{
closed = 1;
nodes = (
"246 0 LINE",
"366 1 OFFCURVE",
"437 61 OFFCURVE",
"437 181 CURVE SMOOTH",
"437 519 LINE SMOOTH",
"437 639 OFFCURVE",
"366 700 OFFCURVE",
"246 700 CURVE SMOOTH",
"72 700 LINE",
"72 0 LINE"
);
}
);
};
hints = (
{
place = "{72, 89}";
},
{
place = "{349, 88}";
},
{
horizontal = 1;
place = "{0, 68}";
},
{
horizontal = 1;
place = "{632, 68}";
}
);
layerId = UUID0;
paths = (
{
closed = 1;
nodes = (
"246 0 LINE",
"366 1 OFFCURVE",
"437 61 OFFCURVE",
"437 181 CURVE SMOOTH",
"437 519 LINE SMOOTH",
"437 639 OFFCURVE",
"366 700 OFFCURVE",
"246 700 CURVE SMOOTH",
"72 700 LINE",
"72 0 LINE"
);
},
{
closed = 1;
nodes = (
"161 632 LINE",
"246 632 LINE SMOOTH",
"306 632 OFFCURVE",
"349 595 OFFCURVE",
"349 535 CURVE SMOOTH",
"349 165 LINE SMOOTH",
"349 105 OFFCURVE",
"306 68 OFFCURVE",
"246 68 CURVE SMOOTH",
"161 68 LINE"
);
}
);
width = 480;
}
);
unicode = 0044;
},
{
glyphname = Eth;
lastChange = "2016-08-11 09:49:33 +0000";
layers = (
{
background = {
paths = (
{
closed = 1;
nodes = (
"44 324 LINE",
"113 324 LINE",
"113 0 LINE",
"286 0 LINE SMOOTH",
"406 0 OFFCURVE",
"477 61 OFFCURVE",
"477 181 CURVE SMOOTH",
"477 519 LINE SMOOTH",
"477 639 OFFCURVE",
"406 700 OFFCURVE",
"286 700 CURVE SMOOTH",
"113 700 LINE",
"113 390 LINE",
"44 390 LINE"
);
},
{
closed = 1;
nodes = (
"201 68 LINE",
"201 324 LINE",
"309 324 LINE",
"309 390 LINE",
"201 390 LINE",
"201 632 LINE",
"286 632 LINE SMOOTH",
"346 632 OFFCURVE",
"389 595 OFFCURVE",
"389 535 CURVE SMOOTH",
"389 165 LINE SMOOTH",
"389 105 OFFCURVE",
"346 68 OFFCURVE",
"286 68 CURVE SMOOTH"
);
}
);
};
hints = (
{
place = "{113, 88}";
},
{
place = "{389, 88}";
},
{
horizontal = 1;
place = "{0, 68}";
},
{
horizontal = 1;
place = "{324, 66}";
},
{
horizontal = 1;
place = "{632, 68}";
}
);
layerId = UUID0;
paths = (
{
closed = 1;
nodes = (
"286 0 LINE SMOOTH",
"406 0 OFFCURVE",
"477 61 OFFCURVE",
"477 181 CURVE SMOOTH",
"477 519 LINE SMOOTH",
"477 639 OFFCURVE",
"406 700 OFFCURVE",
"286 700 CURVE SMOOTH",
"113 700 LINE",
"113 390 LINE",
"44 390 LINE",
"44 324 LINE",
"113 324 LINE",
"113 0 LINE"
);
},
{
closed = 1;
nodes = (
"201 324 LINE",
"309 324 LINE",
"309 390 LINE",
"201 390 LINE",
"201 632 LINE",
"286 632 LINE SMOOTH",
"346 632 OFFCURVE",
"389 595 OFFCURVE",
"389 535 CURVE SMOOTH",
"389 165 LINE SMOOTH",
"389 105 OFFCURVE",
"346 68 OFFCURVE",
"286 68 CURVE SMOOTH",
"201 68 LINE"
);
}
);
width = 520;
}
);
unicode = 00D0;
},
{
glyphname = E;
lastChange = "2016-08-11 09:49:33 +0000";
layers = (
{
background = {
paths = (
{
closed = 1;
nodes = (
"73 0 LINE",
"388 0 LINE",
"388 68 LINE",
"161 68 LINE",
"161 340 LINE",
"337 340 LINE",
"337 408 LINE",
"161 408 LINE",
"161 632 LINE",
"378 632 LINE",
"378 700 LINE",
"73 700 LINE"
);
}
);
};
hints = (
{
place = "{73, 88}";
},
{
horizontal = 1;
place = "{0, 68}";
},
{
horizontal = 1;
place = "{340, 68}";
},
{
horizontal = 1;
place = "{632, 68}";
}
);
layerId = UUID0;
paths = (
{
closed = 1;
nodes = (
"388 0 LINE",
"388 68 LINE",
"161 68 LINE",
"161 340 LINE",
"337 340 LINE",
"337 408 LINE",
"161 408 LINE",
"161 632 LINE",
"378 632 LINE",
"378 700 LINE",
"73 700 LINE",
"73 0 LINE"
);
}
);
width = 428;
}
);
unicode = 0045;
},
{
glyphname = Ecircumflex;
lastChange = "2016-08-11 09:49:33 +0000";
layers = (
{
background = {
paths = (
{
closed = 1;
nodes = (
"215 868 LINE",
"99 769 LINE",
"132 739 LINE",
"215 790 LINE",
"298 739 LINE",
"331 769 LINE"
);
}
);
};
components = (
{
name = E;
}
);
hints = (
{
horizontal = 1;
place = "{868, -20}";
target = down;
type = TopGhost;
},
{
horizontal = 1;
place = "{739, 21}";
target = up;
type = BottomGhost;
}
);
layerId = UUID0;
paths = (
{
closed = 1;
nodes = (
"215 790 LINE",
"298 739 LINE",
"331 769 LINE",
"215 868 LINE",
"99 769 LINE",
"132 739 LINE"
);
}
);
width = 428;
}
);
unicode = 00CA;
},
{
glyphname = F;
lastChange = "2016-08-11 09:49:33 +0000";
layers = (
{
background = {
paths = (
{
closed = 1;
nodes = (
"73 0 LINE",
"161 0 LINE",
"161 324 LINE",
"317 324 LINE",
"317 392 LINE",
"161 392 LINE",
"161 632 LINE",
"368 632 LINE",
"368 700 LINE",
"73 700 LINE"
);
}
);
};
hints = (
{
place = "{73, 88}";
},
{
place = "{73, 244}";
},
{
horizontal = 1;
place = "{324, 68}";
},
{
horizontal = 1;
place = "{632, 68}";
},
{
horizontal = 1;
place = "{0, 21}";
target = up;
type = BottomGhost;
}
);
layerId = UUID0;
paths = (
{
closed = 1;
nodes = (
"161 0 LINE",
"161 324 LINE",
"317 324 LINE",
"317 392 LINE",
"161 392 LINE",
"161 632 LINE",
"368 632 LINE",
"368 700 LINE",
"73 700 LINE",
"73 0 LINE"
);
}
);
width = 388;
}
);
unicode = 0046;
},
{
glyphname = G;
lastChange = "2016-08-11 09:46:07 +0000";
layers = (
{
background = {
paths = (
{
closed = 1;
nodes = (
"411 0 LINE",
"411 407 LINE",
"233 407 LINE",
"233 341 LINE",
"323 341 LINE",
"323 66 LINE",
"230 66 LINE SMOOTH",
"170 66 OFFCURVE",
"131 103 OFFCURVE",
"131 163 CURVE SMOOTH",
"131 535 LINE SMOOTH",
"131 595 OFFCURVE",
"174 632 OFFCURVE",
"234 632 CURVE SMOOTH",
"391 632 LINE",
"391 699 LINE",
"244 699 LINE SMOOTH",
"124 699 OFFCURVE",
"43 639 OFFCURVE",
"43 519 CURVE SMOOTH",
"43 181 LINE SMOOTH",
"43 61 OFFCURVE",
"114 0 OFFCURVE",
"234 0 CURVE SMOOTH"
);
}
);
};
hints = (
{
place = "{43, 88}";
},
{
place = "{233, 178}";
},
{
place = "{323, 88}";
},
{
horizontal = 1;
place = "{0, 66}";
},
{
horizontal = 1;
place = "{341, 66}";
},
{
horizontal = 1;
place = "{632, 67}";
}
);
layerId = UUID0;
paths = (
{
closed = 1;
nodes = (
"411 0 LINE",
"411 407 LINE",
"233 407 LINE",
"233 341 LINE",
"323 341 LINE",
"323 66 LINE",
"230 66 LINE SMOOTH",
"170 66 OFFCURVE",
"131 103 OFFCURVE",
"131 163 CURVE SMOOTH",
"131 536 LINE SMOOTH",
"131 596 OFFCURVE",
"174 633 OFFCURVE",
"234 633 CURVE SMOOTH",
"391 633 LINE",
"391 700 LINE",
"244 700 LINE SMOOTH",
"124 700 OFFCURVE",
"43 640 OFFCURVE",
"43 520 CURVE SMOOTH",
"43 181 LINE SMOOTH",
"43 61 OFFCURVE",
"114 0 OFFCURVE",
"234 0 CURVE SMOOTH"
);
}
);
width = 461;
}
);
unicode = 0047;
},
{
glyphname = H;
lastChange = "2016-08-11 09:49:33 +0000";
layers = (
{
background = {
paths = (
{
closed = 1;
nodes = (
"360 338 LINE",
"360 0 LINE",
"448 0 LINE",
"448 700 LINE",
"360 700 LINE",
"360 404 LINE",
"161 404 LINE",
"161 700 LINE",
"73 700 LINE",
"73 0 LINE",
"161 0 LINE",
"161 338 LINE"
);
}
);
};
hints = (
{
place = "{73, 88}";
},
{
place = "{360, 88}";
},
{
horizontal = 1;
place = "{338, 66}";
},
{
horizontal = 1;
place = "{0, 21}";
target = up;
type = BottomGhost;
},
{
horizontal = 1;
place = "{700, -20}";
target = down;
type = TopGhost;
}
);
layerId = UUID0;
paths = (
{
closed = 1;
nodes = (
"161 0 LINE",
"161 338 LINE",
"360 338 LINE",
"360 0 LINE",
"448 0 LINE",
"448 700 LINE",
"360 700 LINE",
"360 404 LINE",
"161 404 LINE",
"161 700 LINE",
"73 700 LINE",
"73 0 LINE"
);
}
);
width = 521;
}
);
unicode = 0048;
},
{
glyphname = I;
lastChange = "2016-08-11 09:49:33 +0000";
layers = (
{
background = {
paths = (
{
closed = 1;
nodes = (
"73 0 LINE",
"161 0 LINE",
"161 700 LINE",
"73 700 LINE"
);
}
);
};
hints = (
{
place = "{73, 88}";
},
{
horizontal = 1;
place = "{0, 21}";
target = up;
type = BottomGhost;
},
{
horizontal = 1;
place = "{700, -20}";
target = down;
type = TopGhost;
}
);
layerId = UUID0;
paths = (
{
closed = 1;
nodes = (
"161 0 LINE",
"161 700 LINE",
"73 700 LINE",
"73 0 LINE"
);
}
);
width = 234;
}
);
unicode = 0049;
},
{
glyphname = Icircumflex;
lastChange = "2016-08-11 09:49:33 +0000";
layers = (
{
background = {
paths = (
{
closed = 1;
nodes = (
"117 868 LINE",
"1 769 LINE",
"34 739 LINE",
"117 790 LINE",
"200 739 LINE",
"233 769 LINE"
);
}
);
};
components = (
{
name = I;
}
);
hints = (
{
horizontal = 1;
place = "{868, -20}";
target = down;
type = TopGhost;
},
{
horizontal = 1;
place = "{739, 21}";
target = up;
type = BottomGhost;
}
);
layerId = UUID0;
paths = (
{
closed = 1;
nodes = (
"117 790 LINE",
"200 739 LINE",
"233 769 LINE",
"117 868 LINE",
"1 769 LINE",
"34 739 LINE"
);
}
);
width = 234;
}
);
unicode = 00CE;
},
{
glyphname = J;
lastChange = "2016-08-11 09:49:33 +0000";
layers = (
{
background = {
paths = (
{
closed = 1;
nodes = (
"102 141 LINE SMOOTH",
"102 80 OFFCURVE",
"67 68 OFFCURVE",
"36 68 CURVE SMOOTH",
"12 68 LINE",
"12 0 LINE",
"68 0 LINE SMOOTH",
"142 0 OFFCURVE",
"190 63 OFFCURVE",
"190 137 CURVE SMOOTH",
"190 700 LINE",
"102 700 LINE"
);
}
);
};
hints = (
{
place = "{12, 178}";
},
{
place = "{102, 88}";
},
{
horizontal = 1;
place = "{0, 68}";
},
{
horizontal = 1;
place = "{700, -20}";
target = down;
type = TopGhost;
}
);
layerId = UUID0;
paths = (
{
closed = 1;
nodes = (
"68 0 LINE SMOOTH",
"142 0 OFFCURVE",
"190 63 OFFCURVE",
"190 137 CURVE SMOOTH",
"190 700 LINE",
"102 700 LINE",
"102 141 LINE SMOOTH",
"102 80 OFFCURVE",
"67 68 OFFCURVE",
"36 68 CURVE SMOOTH",
"12 68 LINE",
"12 0 LINE"
);
}
);
width = 233;
}
);
unicode = 004A;
},
{
glyphname = K;
lastChange = "2016-08-11 09:49:33 +0000";
layers = (
{
background = {
paths = (
{
closed = 1;
nodes = (
"248 388 LINE",
"452 700 LINE",
"365 700 LINE",
"158 394 LINE",
"158 700 LINE",
"73 700 LINE",
"73 0 LINE",
"158 0 LINE",
"158 276 LINE",
"197 326 LINE",
"393 0 LINE",
"482 0 LINE"
);
}
);
};
hints = (
{
place = "{73, 85}";
},
{
horizontal = 1;
place = "{700, -20}";
target = down;
type = TopGhost;
},
{
horizontal = 1;
place = "{0, 21}";
target = up;
type = BottomGhost;
}
);
layerId = UUID0;
paths = (
{
closed = 1;
nodes = (
"158 0 LINE",
"158 276 LINE",
"197 326 LINE",
"393 0 LINE",
"482 0 LINE",
"248 388 LINE",
"452 700 LINE",
"365 700 LINE",
"158 394 LINE",
"158 700 LINE",
"73 700 LINE",
"73 0 LINE"
);
}
);
width = 484;
}
);
unicode = 004B;
},
{
glyphname = L;
lastChange = "2016-08-11 09:49:33 +0000";
layers = (
{
background = {
paths = (
{
closed = 1;
nodes = (
"73 0 LINE",
"366 0 LINE",
"366 66 LINE",
"161 66 LINE",
"161 700 LINE",
"73 700 LINE"
);
}
);
};
hints = (
{
place = "{73, 88}";
},
{
horizontal = 1;
place = "{0, 66}";
},
{
horizontal = 1;
place = "{700, -20}";
target = down;
type = TopGhost;
}
);
layerId = UUID0;
paths = (
{
closed = 1;
nodes = (
"366 0 LINE",
"366 66 LINE",
"161 66 LINE",
"161 700 LINE",
"73 700 LINE",
"73 0 LINE"
);
}
);
width = 379;
}
);
unicode = 004C;
},
{
glyphname = Ldotaccent;
lastChange = "2016-08-11 09:49:33 +0000";
layers = (
{
background = {
paths = (
{
closed = 1;
nodes = (
"224 328 LINE",
"304 328 LINE",
"304 431 LINE",
"224 431 LINE"
);
},
{
closed = 1;
nodes = (
"73 0 LINE",
"366 0 LINE",
"366 66 LINE",
"161 66 LINE",
"161 700 LINE",
"73 700 LINE"
);
}
);
};
hints = (
{
place = "{73, 88}";
},
{
place = "{224, 80}";
},
{
horizontal = 1;
place = "{0, 66}";
},
{
horizontal = 1;
place = "{328, 103}";
},
{
horizontal = 1;
place = "{700, -20}";
target = down;
type = TopGhost;
}
);
layerId = UUID0;
paths = (
{
closed = 1;
nodes = (
"366 0 LINE",
"366 66 LINE",
"161 66 LINE",
"161 700 LINE",
"73 700 LINE",
"73 0 LINE"
);
},
{
closed = 1;
nodes = (
"304 328 LINE",
"304 431 LINE",
"224 431 LINE",
"224 328 LINE"
);
}
);
width = 379;
}
);
unicode = 013F;
},
{
glyphname = Lslash;
lastChange = "2016-08-11 09:49:33 +0000";
layers = (
{
background = {
paths = (
{
closed = 1;
nodes = (
"-31 305 LINE",
"73 329 LINE",
"73 0 LINE",
"366 0 LINE",
"366 66 LINE",
"153 66 LINE",
"153 347 LINE",
"272 375 LINE",
"257 440 LINE",
"153 416 LINE",
"153 700 LINE",
"73 700 LINE",
"73 397 LINE",
"-46 370 LINE"
);
}
);
};
hints = (
{
place = "{73, 80}";
},
{
horizontal = 1;
place = "{0, 66}";
},
{
horizontal = 1;
place = "{700, -20}";
target = down;
type = TopGhost;
}
);
layerId = UUID0;
paths = (
{
closed = 1;
nodes = (
"366 0 LINE",
"366 66 LINE",
"153 66 LINE",
"153 347 LINE",
"272 375 LINE",
"257 440 LINE",
"153 416 LINE",
"153 700 LINE",
"73 700 LINE",
"73 397 LINE",
"-46 370 LINE",
"-31 305 LINE",
"73 329 LINE",
"73 0 LINE"
);
}
);
width = 379;
}
);
unicode = 0141;
},
{
glyphname = M;
lastChange = "2016-08-11 09:49:33 +0000";
layers = (
{
background = {
paths = (
{
closed = 1;
nodes = (
"514 595 LINE",
"514 0 LINE",
"602 0 LINE",
"602 700 LINE",
"474 700 LINE",
"337 286 LINE",
"330 286 LINE",
"196 700 LINE",
"63 700 LINE",
"63 0 LINE",
"151 0 LINE",
"151 596 LINE",
"285 186 LINE",
"380 186 LINE"
);
}
);
};
hints = (
{
place = "{63, 88}";
},
{
place = "{514, 88}";
},
{
horizontal = 1;
place = "{0, 21}";
target = up;
type = BottomGhost;
},
{
horizontal = 1;
place = "{700, -20}";
target = down;
type = TopGhost;
}
);
layerId = UUID0;
paths = (
{
closed = 1;
nodes = (
"151 0 LINE",
"151 596 LINE",
"285 186 LINE",
"380 186 LINE",
"514 595 LINE",
"514 0 LINE",
"602 0 LINE",
"602 700 LINE",
"474 700 LINE",
"337 286 LINE",
"330 286 LINE",
"196 700 LINE",
"63 700 LINE",
"63 0 LINE"
);
}
);
width = 665;
}
);
unicode = 004D;
},
{
glyphname = N;
lastChange = "2016-08-11 09:49:33 +0000";
layers = (
{
background = {
paths = (
{
closed = 1;
nodes = (
"338 0 LINE",
"153 636 LINE",
"153 0 LINE",
"65 0 LINE",
"65 700 LINE",
"212 700 LINE",
"375 95 LINE",
"375 700 LINE",
"464 700 LINE",
"464 0 LINE"
);
}
);
};
hints = (
{
place = "{65, 88}";
},
{
place = "{375, 89}";
},
{
horizontal = 1;
place = "{0, 21}";
target = up;
type = BottomGhost;
},
{
horizontal = 1;
place = "{700, -20}";
target = down;
type = TopGhost;
}
);
layerId = UUID0;
paths = (
{
closed = 1;
nodes = (
"153 0 LINE",
"153 636 LINE",
"338 0 LINE",
"464 0 LINE",
"464 700 LINE",
"375 700 LINE",
"375 95 LINE",
"212 700 LINE",
"65 700 LINE",
"65 0 LINE"
);
}
);
width = 529;
}
);
unicode = 004E;
},
{
glyphname = O;
lastChange = "2016-08-11 09:49:33 +0000";
layers = (
{
background = {
paths = (
{
closed = 1;
nodes = (
"426 527 LINE SMOOTH",
"426 639 OFFCURVE",
"361 707 OFFCURVE",
"234 707 CURVE SMOOTH",
"108 707 OFFCURVE",
"43 639 OFFCURVE",
"43 527 CURVE SMOOTH",
"43 173 LINE SMOOTH",
"43 61 OFFCURVE",
"108 -7 OFFCURVE",
"234 -7 CURVE SMOOTH",
"361 -7 OFFCURVE",
"426 61 OFFCURVE",
"426 173 CURVE"
);
},
{
closed = 1;
nodes = (
"131 544 LINE SMOOTH",
"131 609 OFFCURVE",
"179 641 OFFCURVE",
"234 641 CURVE SMOOTH",
"289 641 OFFCURVE",
"338 609 OFFCURVE",
"338 544 CURVE SMOOTH",
"338 156 LINE SMOOTH",
"338 91 OFFCURVE",
"289 59 OFFCURVE",
"234 59 CURVE SMOOTH",
"179 59 OFFCURVE",
"131 91 OFFCURVE",
"131 156 CURVE"
);
}
);
};
hints = (
{
place = "{43, 88}";
},
{
place = "{338, 88}";
},
{
horizontal = 1;
place = "{-7, 66}";
},
{
horizontal = 1;
place = "{641, 66}";
}
);
layerId = UUID0;
paths = (
{
closed = 1;
nodes = (
"361 -7 OFFCURVE",
"426 61 OFFCURVE",
"426 173 CURVE",
"426 173 LINE",
"426 527 LINE SMOOTH",
"426 639 OFFCURVE",
"361 707 OFFCURVE",
"234 707 CURVE SMOOTH",
"108 707 OFFCURVE",
"43 639 OFFCURVE",
"43 527 CURVE SMOOTH",
"43 173 LINE SMOOTH",
"43 61 OFFCURVE",
"108 -7 OFFCURVE",
"234 -7 CURVE SMOOTH"
);
},
{
closed = 1;
nodes = (
"179 59 OFFCURVE",
"131 91 OFFCURVE",
"131 156 CURVE",
"131 156 LINE",
"131 544 LINE SMOOTH",
"131 609 OFFCURVE",
"179 641 OFFCURVE",
"234 641 CURVE SMOOTH",
"289 641 OFFCURVE",
"338 609 OFFCURVE",
"338 544 CURVE SMOOTH",
"338 156 LINE SMOOTH",
"338 91 OFFCURVE",
"289 59 OFFCURVE",
"234 59 CURVE SMOOTH"
);
}
);
width = 469;
}
);
unicode = 004F;
},
{
glyphname = Ocircumflex;
lastChange = "2016-08-11 09:49:33 +0000";
layers = (
{
background = {
paths = (
{
closed = 1;
nodes = (
"230 868 LINE",
"114 769 LINE",
"147 739 LINE",
"230 790 LINE",
"313 739 LINE",
"346 769 LINE"
);
}
);
};
components = (
{
name = O;
}
);
hints = (
{
horizontal = 1;
place = "{868, -20}";
target = down;
type = TopGhost;
},
{
horizontal = 1;
place = "{739, 21}";
target = up;
type = BottomGhost;
}
);
layerId = UUID0;
paths = (
{
closed = 1;
nodes = (
"230 790 LINE",
"313 739 LINE",
"346 769 LINE",
"230 868 LINE",
"114 769 LINE",
"147 739 LINE"
);
}
);
width = 469;
}
);
unicode = 00D4;
},
{
glyphname = Oslash;
lastChange = "2016-08-11 09:49:33 +0000";
layers = (
{
background = {
paths = (
{
closed = 1;
nodes = (
"32 1 LINE",
"74 61 LINE",
"105 17 OFFCURVE",
"160 -8 OFFCURVE",
"236 -8 CURVE SMOOTH",
"363 -8 OFFCURVE",
"426 60 OFFCURVE",
"426 172 CURVE SMOOTH",
"426 531 LINE SMOOTH",
"426 541 OFFCURVE",
"425 550 OFFCURVE",
"424 559 CURVE",
"491 656 LINE",
"431 700 LINE",
"393 646 LINE",
"363 687 OFFCURVE",
"310 711 OFFCURVE",
"236 711 CURVE SMOOTH",
"110 711 OFFCURVE",
"43 643 OFFCURVE",
"43 531 CURVE SMOOTH",
"43 156 LINE",
"-30 49 LINE"
);
},
{
closed = 1;
nodes = (
"338 157 LINE SMOOTH",
"338 92 OFFCURVE",
"291 60 OFFCURVE",
"236 60 CURVE SMOOTH",
"184 60 OFFCURVE",
"137 88 OFFCURVE",
"131 145 CURVE",
"338 434 LINE"
);
},
{
closed = 1;
nodes = (
"131 274 LINE",
"131 546 LINE SMOOTH",
"131 611 OFFCURVE",
"181 643 OFFCURVE",
"236 643 CURVE SMOOTH",
"285 643 OFFCURVE",
"328 617 OFFCURVE",
"336 565 CURVE"
);
},
{
closed = 1;
nodes = (
"15 30 LINE",
"82 -8 LINE",
"113 49 LINE",
"127 85 LINE",
"379 549 LINE",
"398 573 LINE",
"451 670 LINE",
"384 709 LINE",
"349 645 LINE",
"338 615 LINE",
"105 185 LINE",
"82 152 LINE"
);
},
{
closed = 1;
nodes = (
"426 527 LINE SMOOTH",
"426 639 OFFCURVE",
"361 707 OFFCURVE",
"234 707 CURVE SMOOTH",
"108 707 OFFCURVE",
"43 639 OFFCURVE",
"43 527 CURVE SMOOTH",
"43 173 LINE SMOOTH",
"43 61 OFFCURVE",
"108 -7 OFFCURVE",
"234 -7 CURVE SMOOTH",
"361 -7 OFFCURVE",
"426 61 OFFCURVE",
"426 173 CURVE"
);
},
{
closed = 1;
nodes = (
"127 544 LINE SMOOTH",
"127 612 OFFCURVE",
"177 645 OFFCURVE",
"234 645 CURVE SMOOTH",
"291 645 OFFCURVE",
"342 612 OFFCURVE",
"342 544 CURVE SMOOTH",
"342 156 LINE SMOOTH",
"342 88 OFFCURVE",
"291 55 OFFCURVE",
"234 55 CURVE SMOOTH",
"177 55 OFFCURVE",
"127 88 OFFCURVE",
"127 156 CURVE"
);
}
);
};
hints = (
{
place = "{43, 84}";
},
{
place = "{342, 84}";
},
{
horizontal = 1;
place = "{-7, 62}";
},
{
horizontal = 1;
place = "{645, 62}";
},
{
horizontal = 1;
place = "{709, -20}";
target = down;
type = TopGhost;
},
{
horizontal = 1;
place = "{-8, 21}";
target = up;
type = BottomGhost;
}
);
layerId = UUID0;
paths = (
{
closed = 1;
nodes = (
"103 30 LINE",
"134 6 OFFCURVE",
"178 -7 OFFCURVE",
"234 -7 CURVE SMOOTH",
"361 -7 OFFCURVE",
"426 61 OFFCURVE",
"426 173 CURVE",
"426 173 LINE",
"426 527 LINE SMOOTH",
"426 555 OFFCURVE",
"422 580 OFFCURVE",
"414 602 CURVE",
"451 670 LINE",
"384 709 LINE",
"363 671 LINE",
"332 694 OFFCURVE",
"289 707 OFFCURVE",
"234 707 CURVE SMOOTH",
"108 707 OFFCURVE",
"43 639 OFFCURVE",
"43 527 CURVE SMOOTH",
"43 173 LINE SMOOTH",
"43 146 OFFCURVE",
"46 122 OFFCURVE",
"54 101 CURVE",
"15 30 LINE",
"82 -8 LINE"
);
},
{
closed = 1;
nodes = (
"193 55 OFFCURVE",
"156 71 OFFCURVE",
"138 106 CURVE",
"342 491 LINE",
"342 156 LINE SMOOTH",
"342 88 OFFCURVE",
"291 55 OFFCURVE",
"234 55 CURVE SMOOTH",
"234 55 LINE SMOOTH"
);
},
{
closed = 1;
nodes = (
"127 544 LINE SMOOTH",
"127 612 OFFCURVE",
"177 645 OFFCURVE",
"234 645 CURVE SMOOTH",
"273 645 OFFCURVE",
"309 629 OFFCURVE",
"328 597 CURVE",
"127 215 LINE"
);
}
);
width = 469;
}
);
unicode = 00D8;
},
{
glyphname = OE;
lastChange = "2016-08-11 09:49:33 +0000";
layers = (
{
background = {
paths = (
{
closed = 1;
nodes = (
"338 700 LINE",
"296 707 OFFCURVE",
"275 709 OFFCURVE",
"234 709 CURVE SMOOTH",
"108 709 OFFCURVE",
"43 641 OFFCURVE",
"43 529 CURVE SMOOTH",
"43 173 LINE SMOOTH",
"43 61 OFFCURVE",
"108 -7 OFFCURVE",
"234 -7 CURVE SMOOTH",
"249 -7 OFFCURVE",
"310 -6 OFFCURVE",
"338 0 CURVE",
"653 0 LINE",
"653 68 LINE",
"426 68 LINE",
"426 340 LINE",
"602 340 LINE",
"602 408 LINE",
"426 408 LINE",
"426 632 LINE",
"643 632 LINE",
"643 700 LINE"
);
},
{
closed = 1;
nodes = (
"131 544 LINE SMOOTH",
"131 609 OFFCURVE",
"179 641 OFFCURVE",
"234 641 CURVE SMOOTH",
"289 641 OFFCURVE",
"338 609 OFFCURVE",
"338 544 CURVE SMOOTH",
"338 158 LINE SMOOTH",
"338 93 OFFCURVE",
"289 61 OFFCURVE",
"234 61 CURVE SMOOTH",
"179 61 OFFCURVE",
"131 93 OFFCURVE",
"131 158 CURVE SMOOTH"
);
}
);
};
hints = (
{
place = "{43, 88}";
},
{
place = "{338, 88}";
},
{
horizontal = 1;
place = "{-7, 75}";
},
{
horizontal = 1;
place = "{340, 68}";
},
{
horizontal = 1;
place = "{632, 77}";
},
{
horizontal = 1;
place = "{0, 21}";
target = up;
type = BottomGhost;
},
{
horizontal = 1;
place = "{700, -20}";
target = down;
type = TopGhost;
}
);
layerId = UUID0;
paths = (
{
closed = 1;
nodes = (
"249 -7 OFFCURVE",
"310 -6 OFFCURVE",
"338 0 CURVE",
"653 0 LINE",
"653 68 LINE",
"426 68 LINE",
"426 340 LINE",
"602 340 LINE",
"602 408 LINE",
"426 408 LINE",
"426 632 LINE",
"643 632 LINE",
"643 700 LINE",
"338 700 LINE",
"296 707 OFFCURVE",
"275 709 OFFCURVE",
"234 709 CURVE SMOOTH",
"108 709 OFFCURVE",
"43 641 OFFCURVE",
"43 529 CURVE SMOOTH",
"43 173 LINE SMOOTH",
"43 61 OFFCURVE",
"108 -7 OFFCURVE",
"234 -7 CURVE SMOOTH"
);
},
{
closed = 1;
nodes = (
"179 61 OFFCURVE",
"131 93 OFFCURVE",
"131 158 CURVE SMOOTH",
"131 544 LINE SMOOTH",
"131 609 OFFCURVE",
"179 641 OFFCURVE",
"234 641 CURVE SMOOTH",
"289 641 OFFCURVE",
"318 634 OFFCURVE",
"338 624 CURVE",
"338 78 LINE",
"318 68 OFFCURVE",
"289 61 OFFCURVE",
"234 61 CURVE SMOOTH"
);
}
);
width = 693;
}
);
unicode = 0152;
},
{
glyphname = P;
lastChange = "2016-08-11 09:49:33 +0000";
layers = (
{
background = {
paths = (
{
closed = 1;
nodes = (
"161 634 LINE",
"225 634 LINE SMOOTH",
"304 634 OFFCURVE",
"345 593 OFFCURVE",
"345 514 CURVE SMOOTH",
"345 435 OFFCURVE",
"304 374 OFFCURVE",
"225 374 CURVE SMOOTH",
"161 374 LINE"
);
},
{
closed = 1;
nodes = (
"433 637 OFFCURVE",
"373 700 OFFCURVE",
"250 700 CURVE SMOOTH",
"73 700 LINE",
"73 0 LINE",
"161 0 LINE",
"161 308 LINE",
"231 308 LINE SMOOTH",
"362 308 OFFCURVE",
"433 386 OFFCURVE",
"433 514 CURVE SMOOTH"
);
}
);
};
hints = (
{
place = "{73, 88}";
},
{
place = "{345, 88}";
},
{
horizontal = 1;
place = "{308, 66}";
},
{
horizontal = 1;
place = "{634, 66}";
},
{
horizontal = 1;
place = "{0, 21}";
target = up;
type = BottomGhost;
}
);
layerId = UUID0;
paths = (
{
closed = 1;
nodes = (
"161 0 LINE",
"161 308 LINE",
"231 308 LINE SMOOTH",
"362 308 OFFCURVE",
"433 386 OFFCURVE",
"433 514 CURVE SMOOTH",
"433 514 LINE SMOOTH",
"433 637 OFFCURVE",
"373 700 OFFCURVE",
"250 700 CURVE SMOOTH",
"73 700 LINE",
"73 0 LINE"
);
},
{
closed = 1;
nodes = (
"161 634 LINE",
"225 634 LINE SMOOTH",
"304 634 OFFCURVE",
"345 593 OFFCURVE",
"345 514 CURVE SMOOTH",
"345 435 OFFCURVE",
"304 374 OFFCURVE",
"225 374 CURVE SMOOTH",
"161 374 LINE"
);
}
);
width = 453;
}
);
unicode = 0050;
},
{
glyphname = Thorn;
lastChange = "2016-08-11 09:49:33 +0000";
layers = (
{
background = {
paths = (
{
closed = 1;
nodes = (
"153 583 LINE",
"153 700 LINE",
"73 700 LINE",
"73 1 LINE",
"153 1 LINE",
"153 102 LINE",
"237 102 LINE SMOOTH",
"310 102 OFFCURVE",
"368 155 OFFCURVE",
"368 228 CURVE SMOOTH",
"368 457 LINE SMOOTH",
"368 530 OFFCURVE",
"309 583 OFFCURVE",
"236 583 CURVE SMOOTH"
);
},
{
closed = 1;
nodes = (
"221 523 LINE SMOOTH",
"258 523 OFFCURVE",
"289 495 OFFCURVE",
"289 457 CURVE SMOOTH",
"289 228 LINE SMOOTH",
"289 190 OFFCURVE",
"258 162 OFFCURVE",
"221 162 CURVE SMOOTH",
"153 162 LINE",
"153 523 LINE"
);
}
);
};
hints = (
{
place = "{73, 88}";
},
{
place = "{344, 89}";
},
{
horizontal = 1;
place = "{114, 66}";
},
{
horizontal = 1;
place = "{517, 66}";
},
{
horizontal = 1;
place = "{700, -20}";
target = down;
type = TopGhost;
},
{
horizontal = 1;
place = "{0, 21}";
target = up;
type = BottomGhost;
}
);
layerId = UUID0;
paths = (
{
closed = 1;
nodes = (
"161 0 LINE",
"161 114 LINE",
"272 114 LINE SMOOTH",
"363 114 OFFCURVE",
"433 187 OFFCURVE",
"433 290 CURVE SMOOTH",
"433 407 LINE SMOOTH",
"433 510 OFFCURVE",
"362 583 OFFCURVE",
"271 583 CURVE SMOOTH",
"161 583 LINE",
"161 700 LINE",
"73 700 LINE",
"73 0 LINE"
);
},
{
closed = 1;
nodes = (
"161 517 LINE",
"256 517 LINE SMOOTH",
"303 517 OFFCURVE",
"344 472 OFFCURVE",
"344 407 CURVE SMOOTH",
"344 290 LINE SMOOTH",
"344 225 OFFCURVE",
"303 180 OFFCURVE",
"256 180 CURVE SMOOTH",
"161 180 LINE"
);
}
);
width = 453;
}
);
unicode = 00DE;
},
{
glyphname = Q;
lastChange = "2016-08-11 09:49:33 +0000";
layers = (
{
background = {
paths = (
{
closed = 1;
nodes = (
"410 527 LINE SMOOTH",
"410 639 OFFCURVE",
"353 707 OFFCURVE",
"226 707 CURVE SMOOTH",
"100 707 OFFCURVE",
"43 639 OFFCURVE",
"43 527 CURVE SMOOTH",
"43 171 LINE SMOOTH",
"43 72 OFFCURVE",
"87 7 OFFCURVE",
"185 -6 CURVE",
"185 -39 LINE SMOOTH",
"185 -113 OFFCURVE",
"230 -161 OFFCURVE",
"304 -161 CURVE SMOOTH",
"363 -161 LINE",
"363 -98 LINE",
"316 -98 LINE SMOOTH",
"285 -98 OFFCURVE",
"267 -87 OFFCURVE",
"267 -26 CURVE SMOOTH",
"267 -6 LINE",
"365 7 OFFCURVE",
"410 72 OFFCURVE",
"410 171 CURVE"
);
},
{
closed = 1;
nodes = (
"131 544 LINE SMOOTH",
"131 609 OFFCURVE",
"171 641 OFFCURVE",
"226 641 CURVE SMOOTH",
"281 641 OFFCURVE",
"322 609 OFFCURVE",
"322 544 CURVE SMOOTH",
"322 154 LINE SMOOTH",
"322 89 OFFCURVE",
"281 57 OFFCURVE",
"226 57 CURVE SMOOTH",
"171 57 OFFCURVE",
"131 89 OFFCURVE",
"131 154 CURVE"
);
}
);
};
hints = (
{
place = "{43, 88}";
},
{
place = "{185, 82}";
},
{
place = "{322, 88}";
},
{
place = "{185, 178}";
},
{
horizontal = 1;
place = "{-161, 63}";
},
{
horizontal = 1;
place = "{641, 66}";
},
{
horizontal = 1;
place = "{-161, 218}";
}
);
layerId = UUID0;
paths = (
{
closed = 1;
nodes = (
"363 -161 LINE",
"363 -98 LINE",
"316 -98 LINE SMOOTH",
"285 -98 OFFCURVE",
"267 -87 OFFCURVE",
"267 -26 CURVE SMOOTH",
"267 -6 LINE",
"365 7 OFFCURVE",
"410 72 OFFCURVE",
"410 171 CURVE",
"410 171 LINE",
"410 527 LINE SMOOTH",
"410 639 OFFCURVE",
"353 707 OFFCURVE",
"226 707 CURVE SMOOTH",
"100 707 OFFCURVE",
"43 639 OFFCURVE",
"43 527 CURVE SMOOTH",
"43 171 LINE SMOOTH",
"43 72 OFFCURVE",
"87 7 OFFCURVE",
"185 -6 CURVE",
"185 -39 LINE SMOOTH",
"185 -113 OFFCURVE",
"230 -161 OFFCURVE",
"304 -161 CURVE SMOOTH"
);
},
{
closed = 1;
nodes = (
"171 57 OFFCURVE",
"131 89 OFFCURVE",
"131 154 CURVE",
"131 154 LINE",
"131 544 LINE SMOOTH",
"131 609 OFFCURVE",
"171 641 OFFCURVE",
"226 641 CURVE SMOOTH",
"281 641 OFFCURVE",
"322 609 OFFCURVE",
"322 544 CURVE SMOOTH",
"322 154 LINE SMOOTH",
"322 89 OFFCURVE",
"281 57 OFFCURVE",
"226 57 CURVE SMOOTH"
);
}
);
width = 453;
}
);
unicode = 0051;
},
{
glyphname = R;
lastChange = "2016-08-11 09:49:33 +0000";
layers = (
{
background = {
paths = (
{
closed = 1;
nodes = (
"161 634 LINE",
"232 634 LINE SMOOTH",
"311 634 OFFCURVE",
"352 593 OFFCURVE",
"352 514 CURVE SMOOTH",
"352 435 OFFCURVE",
"311 373 OFFCURVE",
"232 373 CURVE SMOOTH",
"161 373 LINE"
);
},
{
closed = 1;
nodes = (
"334 320 LINE",
"402 347 OFFCURVE",
"438 422 OFFCURVE",
"438 514 CURVE SMOOTH",
"438 637 OFFCURVE",
"381 700 OFFCURVE",
"258 700 CURVE SMOOTH",
"73 700 LINE",
"73 0 LINE",
"159 0 LINE",
"159 307 LINE",
"251 307 LINE",
"387 0 LINE",
"473 0 LINE"
);
}
);
};
hints = (
{
place = "{73, 86}";
},
{
place = "{352, 86}";
},
{
horizontal = 1;
place = "{307, 66}";
},
{
horizontal = 1;
place = "{634, 66}";
},
{
horizontal = 1;
place = "{0, 21}";
target = up;
type = BottomGhost;
}
);
layerId = UUID0;
paths = (
{
closed = 1;
nodes = (
"159 0 LINE",
"159 307 LINE",
"251 307 LINE",
"387 0 LINE",
"473 0 LINE",
"334 320 LINE",
"402 347 OFFCURVE",
"438 422 OFFCURVE",
"438 514 CURVE SMOOTH",
"438 637 OFFCURVE",
"381 700 OFFCURVE",
"258 700 CURVE SMOOTH",
"73 700 LINE",
"73 0 LINE"
);
},
{
closed = 1;
nodes = (
"161 634 LINE",
"232 634 LINE SMOOTH",
"311 634 OFFCURVE",
"352 593 OFFCURVE",
"352 514 CURVE SMOOTH",
"352 435 OFFCURVE",
"311 373 OFFCURVE",
"232 373 CURVE SMOOTH",
"161 373 LINE"
);
}
);
width = 493;
}
);
unicode = 0052;
},
{
glyphname = Rcommaaccent;
lastChange = "2016-08-11 09:49:33 +0000";
layers = (
{
background = {
paths = (
{
closed = 1;
nodes = (
"282 -50 LINE",
"210 -50 LINE",
"210 -204 LINE",
"277 -204 LINE"
);
}
);
};
components = (
{
name = R;
}
);
hints = (
{
place = "{210, 69}";
},
{
horizontal = 1;
place = "{-204, 154}";
}
);
layerId = UUID0;
paths = (
{
closed = 1;
nodes = (
"277 -204 LINE",
"282 -50 LINE",
"210 -50 LINE",
"210 -204 LINE"
);
}
);
width = 493;
}
);
unicode = 0156;
},
{
glyphname = S;
lastChange = "2016-08-11 09:49:33 +0000";
layers = (
{
background = {
paths = (
{
closed = 1;
nodes = (
"278 398 OFFCURVE",
"54 302 OFFCURVE",
"54 522 CURVE SMOOTH",
"54 629 OFFCURVE",
"119 700 OFFCURVE",
"235 700 CURVE SMOOTH",
"316 700 LINE",
"316 634 LINE",
"239 634 LINE SMOOTH",
"170 634 OFFCURVE",
"141 577 OFFCURVE",
"141 535 CURVE SMOOTH",
"141 381 OFFCURVE",
"366 418 OFFCURVE",
"366 191 CURVE SMOOTH",
"366 61 OFFCURVE",
"286 0 OFFCURVE",
"166 0 CURVE SMOOTH",
"61 0 LINE",
"61 66 LINE",
"170 66 LINE SMOOTH",
"253 66 OFFCURVE",
"278 128 OFFCURVE",
"278 181 CURVE SMOOTH"
);
}
);
};
hints = (
{
place = "{54, 87}";
},
{
place = "{278, 38}";
},
{
place = "{278, 88}";
},
{
horizontal = 1;
place = "{0, 66}";
},
{
horizontal = 1;
place = "{634, 66}";
}
);
layerId = UUID0;
paths = (
{
closed = 1;
nodes = (
"166 0 LINE SMOOTH",
"286 0 OFFCURVE",
"366 61 OFFCURVE",
"366 190 CURVE SMOOTH",
"366 407 OFFCURVE",
"141 396 OFFCURVE",
"141 531 CURVE SMOOTH",
"141 579 OFFCURVE",
"170 634 OFFCURVE",
"239 634 CURVE SMOOTH",
"316 634 LINE",
"316 700 LINE",
"235 700 LINE SMOOTH",
"119 700 OFFCURVE",
"54 628 OFFCURVE",
"54 524 CURVE SMOOTH",
"54 331 OFFCURVE",
"278 356 OFFCURVE",
"278 184 CURVE SMOOTH",
"278 184 LINE SMOOTH",
"278 127 OFFCURVE",
"253 66 OFFCURVE",
"170 66 CURVE SMOOTH",
"61 66 LINE",
"61 0 LINE"
);
}
);
width = 391;
}
);
unicode = 0053;
},
{
glyphname = T;
lastChange = "2016-08-11 09:49:33 +0000";
layers = (
{
background = {
paths = (
{
closed = 1;
nodes = (
"160 0 LINE",
"248 0 LINE",
"248 634 LINE",
"388 634 LINE",
"388 700 LINE",
"20 700 LINE",
"20 634 LINE",
"160 634 LINE"
);
}
);
};
hints = (
{
place = "{160, 88}";
},
{
horizontal = 1;
place = "{634, 66}";
},
{
horizontal = 1;
place = "{0, 21}";
target = up;
type = BottomGhost;
}
);
layerId = UUID0;
paths = (
{
closed = 1;
nodes = (
"248 0 LINE",
"248 634 LINE",
"388 634 LINE",
"388 700 LINE",
"20 700 LINE",
"20 634 LINE",
"160 634 LINE",
"160 0 LINE"
);
}
);
width = 408;
}
);
unicode = 0054;
},
{
glyphname = U;
lastChange = "2016-08-11 09:49:33 +0000";
layers = (
{
background = {
paths = (
{
closed = 1;
nodes = (
"131 700 LINE",
"131 156 LINE SMOOTH",
"131 91 OFFCURVE",
"165 59 OFFCURVE",
"220 59 CURVE SMOOTH",
"275 59 OFFCURVE",
"310 91 OFFCURVE",
"310 156 CURVE SMOOTH",
"310 700 LINE",
"398 700 LINE",
"398 173 LINE SMOOTH",
"398 61 OFFCURVE",
"347 -7 OFFCURVE",
"220 -7 CURVE SMOOTH",
"94 -7 OFFCURVE",
"43 61 OFFCURVE",
"43 173 CURVE SMOOTH",
"43 700 LINE"
);
}
);
};
hints = (
{
place = "{43, 88}";
},
{
place = "{310, 88}";
},
{
horizontal = 1;
place = "{-7, 66}";
},
{
horizontal = 1;
place = "{700, -20}";
target = down;
type = TopGhost;
}
);
layerId = UUID0;
paths = (
{
closed = 1;
nodes = (
"347 -7 OFFCURVE",
"398 61 OFFCURVE",
"398 173 CURVE SMOOTH",
"398 700 LINE",
"310 700 LINE",
"310 156 LINE SMOOTH",
"310 91 OFFCURVE",
"275 59 OFFCURVE",
"220 59 CURVE SMOOTH",
"165 59 OFFCURVE",
"131 91 OFFCURVE",
"131 156 CURVE SMOOTH",
"131 700 LINE",
"43 700 LINE",
"43 173 LINE SMOOTH",
"43 61 OFFCURVE",
"94 -7 OFFCURVE",
"220 -7 CURVE SMOOTH"
);
}
);
width = 441;
}
);
unicode = 0055;
},
{
glyphname = Ucircumflex;
lastChange = "2016-08-11 09:49:33 +0000";
layers = (
{
background = {
paths = (
{
closed = 1;
nodes = (
"220 868 LINE",
"104 769 LINE",
"137 739 LINE",
"220 790 LINE",
"303 739 LINE",
"336 769 LINE"
);
}
);
};
components = (
{
name = U;
}
);
hints = (
{
horizontal = 1;
place = "{868, -20}";
target = down;
type = TopGhost;
},
{
horizontal = 1;
place = "{739, 21}";
target = up;
type = BottomGhost;
}
);
layerId = UUID0;
paths = (
{
closed = 1;
nodes = (
"220 790 LINE",
"303 739 LINE",
"336 769 LINE",
"220 868 LINE",
"104 769 LINE",
"137 739 LINE"
);
}
);
width = 441;
}
);
unicode = 00DB;
},
{
glyphname = V;
lastChange = "2016-08-11 09:49:33 +0000";
layers = (
{
background = {
paths = (
{
closed = 1;
nodes = (
"256 80 LINE",
"117 700 LINE",
"30 700 LINE",
"198 0 LINE",
"316 0 LINE",
"481 700 LINE",
"394 700 LINE"
);
}
);
};
hints = (
{
horizontal = 1;
place = "{700, -20}";
target = down;
type = TopGhost;
},
{
horizontal = 1;
place = "{0, 21}";
target = up;
type = BottomGhost;
}
);
layerId = UUID0;
paths = (
{
closed = 1;
nodes = (
"316 0 LINE",
"481 700 LINE",
"394 700 LINE",
"256 80 LINE",
"117 700 LINE",
"30 700 LINE",
"198 0 LINE"
);
}
);
width = 511;
}
);
leftKerningGroup = V;
rightKerningGroup = V;
unicode = 0056;
},
{
glyphname = W;
lastChange = "2016-08-11 09:49:33 +0000";
layers = (
{
background = {
paths = (
{
closed = 1;
nodes = (
"434 518 LINE",
"528 85 LINE",
"646 700 LINE",
"733 700 LINE",
"588 0 LINE",
"470 0 LINE",
"388 419 LINE",
"307 0 LINE",
"189 0 LINE",
"41 700 LINE",
"128 700 LINE",
"247 85 LINE",
"340 518 LINE"
);
}
);
};
hints = (
{
horizontal = 1;
place = "{700, -20}";
target = down;
type = TopGhost;
},
{
horizontal = 1;
place = "{0, 21}";
target = up;
type = BottomGhost;
}
);
layerId = UUID0;
paths = (
{
closed = 1;
nodes = (
"307 0 LINE",
"388 419 LINE",
"470 0 LINE",
"588 0 LINE",
"733 700 LINE",
"646 700 LINE",
"528 85 LINE",
"434 518 LINE",
"340 518 LINE",
"247 85 LINE",
"128 700 LINE",
"41 700 LINE",
"189 0 LINE"
);
}
);
width = 774;
}
);
leftKerningGroup = V;
rightKerningGroup = V;
unicode = 0057;
},
{
glyphname = X;
lastChange = "2016-08-11 09:49:33 +0000";
layers = (
{
background = {
paths = (
{
closed = 1;
nodes = (
"238 280 LINE",
"356 0 LINE",
"445 0 LINE",
"283 368 LINE",
"428 700 LINE",
"340 700 LINE",
"238 459 LINE",
"138 700 LINE",
"50 700 LINE",
"188 368 LINE",
"30 0 LINE",
"118 0 LINE"
);
}
);
};
hints = (
{
horizontal = 1;
place = "{0, 21}";
target = up;
type = BottomGhost;
},
{
horizontal = 1;
place = "{700, -20}";
target = down;
type = TopGhost;
}
);
layerId = UUID0;
paths = (
{
closed = 1;
nodes = (
"118 0 LINE",
"238 280 LINE",
"356 0 LINE",
"445 0 LINE",
"283 368 LINE",
"428 700 LINE",
"340 700 LINE",
"238 459 LINE",
"138 700 LINE",
"50 700 LINE",
"188 368 LINE",
"30 0 LINE"
);
}
);
width = 475;
}
);
unicode = 0058;
},
{
glyphname = Y;
lastChange = "2016-08-11 09:49:33 +0000";
layers = (
{
background = {
paths = (
{
closed = 1;
nodes = (
"222 278 LINE",
"371 700 LINE",
"283 700 LINE",
"181 369 LINE",
"81 700 LINE",
"-7 700 LINE",
"134 278 LINE",
"134 0 LINE",
"222 0 LINE"
);
}
);
};
hints = (
{
place = "{134, 88}";
},
{
horizontal = 1;
place = "{700, -20}";
target = down;
type = TopGhost;
},
{
horizontal = 1;
place = "{0, 21}";
target = up;
type = BottomGhost;
}
);
layerId = UUID0;
paths = (
{
closed = 1;
nodes = (
"222 0 LINE",
"222 278 LINE",
"371 700 LINE",
"283 700 LINE",
"181 369 LINE",
"81 700 LINE",
"-7 700 LINE",
"134 278 LINE",
"134 0 LINE"
);
}
);
width = 355;
}
);
leftKerningGroup = V;
rightKerningGroup = V;
unicode = 0059;
},
{
glyphname = Z;
lastChange = "2016-08-11 09:46:07 +0000";
layers = (
{
background = {
paths = (
{
closed = 1;
nodes = (
"331 0 LINE",
"331 66 LINE",
"112 66 LINE",
"332 635 LINE",
"332 700 LINE",
"45 700 LINE",
"45 634 LINE",
"235 634 LINE",
"20 66 LINE",
"20 0 LINE"
);
}
);
};
hints = (
{
horizontal = 1;
place = "{0, 66}";
},
{
horizontal = 1;
place = "{634, 66}";
}
);
layerId = UUID0;
paths = (
{
closed = 1;
nodes = (
"331 0 LINE",
"331 66 LINE",
"112 66 LINE",
"332 635 LINE",
"332 700 LINE",
"45 700 LINE",
"45 634 LINE",
"235 634 LINE",
"20 66 LINE",
"20 0 LINE"
);
}
);
width = 352;
}
);
unicode = 005A;
},
{
glyphname = a;
lastChange = "2016-08-11 09:49:33 +0000";
layers = (
{
background = {
paths = (
{
closed = 1;
nodes = (
"75 520 LINE",
"75 461 LINE",
"188 461 LINE SMOOTH",
"219 461 OFFCURVE",
"240 437 OFFCURVE",
"240 406 CURVE SMOOTH",
"240 359 LINE",
"116 313 LINE SMOOTH",
"74 297 OFFCURVE",
"34 260 OFFCURVE",
"34 199 CURVE SMOOTH",
"34 127 LINE SMOOTH",
"34 54 OFFCURVE",
"93 0 OFFCURVE",
"166 0 CURVE SMOOTH",
"315 0 LINE",
"315 399 LINE SMOOTH",
"315 473 OFFCURVE",
"269 520 OFFCURVE",
"195 520 CURVE SMOOTH"
);
},
{
closed = 1;
nodes = (
"240 292 LINE",
"240 61 LINE",
"173 61 LINE SMOOTH",
"136 61 OFFCURVE",
"105 89 OFFCURVE",
"105 126 CURVE SMOOTH",
"105 178 LINE SMOOTH",
"105 230 OFFCURVE",
"119 246 OFFCURVE",
"152 259 CURVE SMOOTH"
);
}
);
};
hints = (
{
place = "{34, 71}";
},
{
place = "{240, 75}";
},
{
horizontal = 1;
place = "{0, 61}";
},
{
horizontal = 1;
place = "{461, 59}";
}
);
layerId = UUID0;
paths = (
{
closed = 1;
nodes = (
"315 0 LINE",
"315 399 LINE SMOOTH",
"315 473 OFFCURVE",
"269 520 OFFCURVE",
"195 520 CURVE SMOOTH",
"75 520 LINE",
"75 461 LINE",
"188 461 LINE SMOOTH",
"219 461 OFFCURVE",
"240 437 OFFCURVE",
"240 406 CURVE SMOOTH",
"240 359 LINE",
"116 313 LINE SMOOTH",
"73 297 OFFCURVE",
"34 255 OFFCURVE",
"34 189 CURVE SMOOTH",
"34 137 LINE SMOOTH",
"34 58 OFFCURVE",
"93 0 OFFCURVE",
"166 0 CURVE SMOOTH"
);
},
{
closed = 1;
nodes = (
"136 61 OFFCURVE",
"105 89 OFFCURVE",
"105 126 CURVE SMOOTH",
"105 182 LINE SMOOTH",
"105 234 OFFCURVE",
"119 250 OFFCURVE",
"152 263 CURVE SMOOTH",
"240 296 LINE",
"240 61 LINE",
"173 61 LINE SMOOTH"
);
}
);
width = 365;
}
);
leftKerningGroup = a;
unicode = 0061;
},
{
glyphname = acircumflex;
lastChange = "2016-08-11 09:49:33 +0000";
layers = (
{
background = {
paths = (
{
closed = 1;
nodes = (
"83 614 LINE",
"132 576 LINE",
"197 628 LINE",
"262 576 LINE",
"311 614 LINE",
"197 701 LINE"
);
}
);
};
components = (
{
name = a;
}
);
hints = (
{
horizontal = 1;
place = "{576, 21}";
target = up;
type = BottomGhost;
},
{
horizontal = 1;
place = "{701, -20}";
target = down;
type = TopGhost;
}
);
layerId = UUID0;
paths = (
{
closed = 1;
nodes = (
"197 628 LINE",
"262 576 LINE",
"311 614 LINE",
"197 701 LINE",
"83 614 LINE",
"132 576 LINE"
);
}
);
width = 365;
}
);
leftKerningGroup = a;
unicode = 00E2;
},
{
glyphname = adieresis;
lastChange = "2016-08-11 09:49:33 +0000";
layers = (
{
background = {
paths = (
{
closed = 1;
nodes = (
"75 599 LINE",
"155 599 LINE",
"155 679 LINE",
"75 679 LINE"
);
},
{
closed = 1;
nodes = (
"220 599 LINE",
"300 599 LINE",
"300 679 LINE",
"220 679 LINE"
);
}
);
};
components = (
{
name = a;
}
);
hints = (
{
place = "{75, 80}";
},
{
place = "{220, 80}";
},
{
horizontal = 1;
place = "{599, 80}";
}
);
layerId = UUID0;
paths = (
{
closed = 1;
nodes = (
"300 599 LINE",
"300 679 LINE",
"220 679 LINE",
"220 599 LINE"
);
},
{
closed = 1;
nodes = (
"155 599 LINE",
"155 679 LINE",
"75 679 LINE",
"75 599 LINE"
);
}
);
width = 365;
}
);
leftKerningGroup = a;
unicode = 00E4;
},
{
glyphname = agrave;
lastChange = "2016-08-11 09:46:07 +0000";
layers = (
{
background = {
paths = (
{
closed = 1;
nodes = (
"229 589 LINE",
"113 688 LINE",
"62 641 LINE",
"196 559 LINE"
);
}
);
};
components = (
{
name = a;
}
);
hints = (
{
horizontal = 1;
place = "{688, -20}";
target = down;
type = TopGhost;
},
{
horizontal = 1;
place = "{559, 21}";
target = up;
type = BottomGhost;
}
);
layerId = UUID0;
paths = (
{
closed = 1;
nodes = (
"229 589 LINE",
"113 688 LINE",
"62 641 LINE",
"196 559 LINE"
);
}
);
width = 365;
}
);
leftKerningGroup = a;
unicode = 00E0;
},
{
glyphname = aring;
lastChange = "2016-08-11 09:49:33 +0000";
layers = (
{
background = {
paths = (
{
closed = 1;
nodes = (
"265 639 LINE SMOOTH",
"265 674 OFFCURVE",
"234 692 OFFCURVE",
"194 692 CURVE SMOOTH",
"155 692 OFFCURVE",
"123 674 OFFCURVE",
"123 639 CURVE SMOOTH",
"123 615 LINE SMOOTH",
"123 580 OFFCURVE",
"155 558 OFFCURVE",
"194 558 CURVE SMOOTH",
"234 558 OFFCURVE",
"265 580 OFFCURVE",
"265 615 CURVE"
);
},
{
closed = 1;
nodes = (
"165 632 LINE SMOOTH",
"165 652 OFFCURVE",
"176 658 OFFCURVE",
"194 658 CURVE SMOOTH",
"211 658 OFFCURVE",
"223 652 OFFCURVE",
"223 632 CURVE SMOOTH",
"223 618 LINE SMOOTH",
"223 597 OFFCURVE",
"211 593 OFFCURVE",
"194 593 CURVE SMOOTH",
"176 593 OFFCURVE",
"165 597 OFFCURVE",
"165 618 CURVE SMOOTH"
);
}
);
};
components = (
{
name = a;
}
);
hints = (
{
place = "{123, 42}";
},
{
place = "{223, 42}";
},
{
horizontal = 1;
place = "{558, 35}";
},
{
horizontal = 1;
place = "{658, 34}";
}
);
layerId = UUID0;
paths = (
{
closed = 1;
nodes = (
"234 558 OFFCURVE",
"265 580 OFFCURVE",
"265 615 CURVE",
"265 615 LINE",
"265 639 LINE SMOOTH",
"265 674 OFFCURVE",
"234 692 OFFCURVE",
"194 692 CURVE SMOOTH",
"155 692 OFFCURVE",
"123 674 OFFCURVE",
"123 639 CURVE SMOOTH",
"123 615 LINE SMOOTH",
"123 580 OFFCURVE",
"155 558 OFFCURVE",
"194 558 CURVE SMOOTH"
);
},
{
closed = 1;
nodes = (
"176 593 OFFCURVE",
"165 597 OFFCURVE",
"165 618 CURVE SMOOTH",
"165 632 LINE SMOOTH",
"165 652 OFFCURVE",
"176 658 OFFCURVE",
"194 658 CURVE SMOOTH",
"211 658 OFFCURVE",
"223 652 OFFCURVE",
"223 632 CURVE SMOOTH",
"223 618 LINE SMOOTH",
"223 597 OFFCURVE",
"211 593 OFFCURVE",
"194 593 CURVE SMOOTH"
);
}
);
width = 365;
}
);
leftKerningGroup = a;
unicode = 00E5;
},
{
glyphname = atilde;
lastChange = "2016-08-11 09:49:33 +0000";
layers = (
{
background = {
paths = (
{
closed = 1;
nodes = (
"101 603 OFFCURVE",
"104 590 OFFCURVE",
"100 570 CURVE",
"37 570 LINE",
"38 623 OFFCURVE",
"51 662 OFFCURVE",
"112 662 CURVE SMOOTH",
"134 662 OFFCURVE",
"222 629 OFFCURVE",
"245 629 CURVE SMOOTH",
"268 629 OFFCURVE",
"265 652 OFFCURVE",
"269 672 CURVE",
"332 672 LINE",
"331 619 OFFCURVE",
"328 570 OFFCURVE",
"257 570 CURVE SMOOTH",
"234 570 OFFCURVE",
"146 603 OFFCURVE",
"124 603 CURVE SMOOTH"
);
}
);
};
components = (
{
name = a;
}
);
hints = (
{
horizontal = 1;
place = "{570, 59}";
},
{
horizontal = 1;
place = "{603, 59}";
},
{
horizontal = 1;
place = "{672, -20}";
target = down;
type = TopGhost;
}
);
layerId = UUID0;
paths = (
{
closed = 1;
nodes = (
"100 570 LINE",
"104 590 OFFCURVE",
"101 603 OFFCURVE",
"124 603 CURVE SMOOTH",
"124 603 LINE SMOOTH",
"146 603 OFFCURVE",
"234 570 OFFCURVE",
"257 570 CURVE SMOOTH",
"328 570 OFFCURVE",
"331 619 OFFCURVE",
"332 672 CURVE",
"269 672 LINE",
"265 652 OFFCURVE",
"268 629 OFFCURVE",
"245 629 CURVE SMOOTH",
"222 629 OFFCURVE",
"134 662 OFFCURVE",
"112 662 CURVE SMOOTH",
"51 662 OFFCURVE",
"38 623 OFFCURVE",
"37 570 CURVE"
);
}
);
width = 365;
}
);
leftKerningGroup = a;
unicode = 00E3;
},
{
glyphname = ae;
lastChange = "2016-08-11 09:49:33 +0000";
layers = (
{
background = {
paths = (
{
closed = 1;
nodes = (
"345 40 LINE",
"295 -10 LINE",
"208 -10 LINE",
"164 -10 LINE",
"101 5 LINE",
"60 39 LINE",
"40 97 LINE",
"40 140 LINE",
"40 285 LINE",
"170 285 LINE",
"200 285 LINE",
"260 280 LINE",
"290 275 LINE",
"290 340 LINE",
"290 404 LINE",
"237 450 LINE",
"180 450 LINE",
"80 450 LINE",
"80 490 LINE",
"142 510 LINE",
"197 510 LINE",
"255 510 LINE",
"324 483 LINE",
"345 445 LINE",
"367 481 LINE",
"421 510 LINE",
"460 510 LINE",
"503 510 LINE",
"567 482 LINE",
"609 416 LINE",
"630 309 LINE",
"630 230 LINE",
"380 230 LINE",
"380 179 LINE",
"394 110 LINE",
"426 68 LINE",
"475 50 LINE",
"510 50 LINE",
"610 50 LINE",
"610 10 LINE",
"548 -10 LINE",
"498 -10 LINE",
"472 -10 LINE",
"431 -5 LINE",
"396 6 LINE",
"363 25 LINE"
);
},
{
closed = 1;
nodes = (
"290 70 LINE",
"290 230 LINE",
"220 230 LINE",
"130 230 LINE",
"130 140 LINE",
"130 50 LINE",
"220 50 LINE",
"259 50 LINE"
);
},
{
closed = 1;
nodes = (
"540 290 LINE",
"540 377 LINE",
"494 455 LINE",
"460 455 LINE",
"426 455 LINE",
"380 377 LINE",
"380 290 LINE"
);
},
{
closed = 1;
nodes = (
"478 464 OFFCURVE",
"508 453 OFFCURVE",
"508 409 CURVE SMOOTH",
"508 343 LINE SMOOTH",
"508 291 OFFCURVE",
"492 303 OFFCURVE",
"376 269 CURVE",
"376 409 LINE SMOOTH",
"376 453 OFFCURVE",
"406 464 OFFCURVE",
"442 464 CURVE SMOOTH"
);
},
{
closed = 1;
nodes = (
"309 503 OFFCURVE",
"291 520 OFFCURVE",
"235 520 CURVE SMOOTH",
"115 520 LINE",
"115 461 LINE",
"229 461 LINE SMOOTH",
"260 461 OFFCURVE",
"281 437 OFFCURVE",
"281 406 CURVE SMOOTH",
"281 359 LINE",
"157 313 LINE SMOOTH",
"115 297 OFFCURVE",
"75 260 OFFCURVE",
"75 199 CURVE SMOOTH",
"75 127 LINE SMOOTH",
"75 54 OFFCURVE",
"134 0 OFFCURVE",
"207 0 CURVE SMOOTH",
"235 0 LINE SMOOTH",
"274 0 OFFCURVE",
"308 14 OFFCURVE",
"329 37 CURVE",
"350 15 OFFCURVE",
"384 0 OFFCURVE",
"422 0 CURVE SMOOTH",
"537 0 LINE",
"537 60 LINE",
"428 60 LINE SMOOTH",
"397 60 OFFCURVE",
"376 84 OFFCURVE",
"376 115 CURVE SMOOTH",
"376 213 LINE",
"494 246 LINE SMOOTH",
"538 258 OFFCURVE",
"581 281 OFFCURVE",
"581 342 CURVE SMOOTH",
"581 414 LINE SMOOTH",
"581 480 OFFCURVE",
"530 520 OFFCURVE",
"464 520 CURVE SMOOTH",
"412 520 LINE SMOOTH",
"379 520 OFFCURVE",
"349 505 OFFCURVE",
"330 484 CURVE"
);
},
{
closed = 1;
nodes = (
"281 115 LINE SMOOTH",
"281 84 OFFCURVE",
"260 60 OFFCURVE",
"229 60 CURVE SMOOTH",
"216 60 LINE SMOOTH",
"179 60 OFFCURVE",
"148 89 OFFCURVE",
"148 126 CURVE SMOOTH",
"148 178 LINE SMOOTH",
"148 230 OFFCURVE",
"162 246 OFFCURVE",
"195 259 CURVE SMOOTH",
"281 292 LINE"
);
}
);
};
hints = (
{
place = "{75, 73}";
},
{
place = "{281, 95}";
},
{
place = "{508, 73}";
},
{
horizontal = 1;
place = "{0, 60}";
},
{
horizontal = 1;
place = "{464, 56}";
}
);
layerId = UUID0;
paths = (
{
closed = 1;
nodes = (
"235 0 LINE SMOOTH",
"274 0 OFFCURVE",
"308 14 OFFCURVE",
"329 37 CURVE",
"350 15 OFFCURVE",
"384 0 OFFCURVE",
"422 0 CURVE SMOOTH",
"537 0 LINE",
"537 60 LINE",
"428 60 LINE SMOOTH",
"397 60 OFFCURVE",
"376 84 OFFCURVE",
"376 115 CURVE SMOOTH",
"376 213 LINE",
"494 246 LINE SMOOTH",
"538 258 OFFCURVE",
"581 281 OFFCURVE",
"581 342 CURVE SMOOTH",
"581 414 LINE SMOOTH",
"581 480 OFFCURVE",
"530 520 OFFCURVE",
"464 520 CURVE SMOOTH",
"412 520 LINE SMOOTH",
"379 520 OFFCURVE",
"349 505 OFFCURVE",
"330 484 CURVE",
"330 484 LINE",
"309 503 OFFCURVE",
"291 520 OFFCURVE",
"235 520 CURVE SMOOTH",
"115 520 LINE",
"115 461 LINE",
"229 461 LINE SMOOTH",
"260 461 OFFCURVE",
"281 437 OFFCURVE",
"281 406 CURVE SMOOTH",
"281 359 LINE",
"157 313 LINE SMOOTH",
"115 297 OFFCURVE",
"75 260 OFFCURVE",
"75 199 CURVE SMOOTH",
"75 127 LINE SMOOTH",
"75 54 OFFCURVE",
"134 0 OFFCURVE",
"207 0 CURVE SMOOTH"
);
},
{
closed = 1;
nodes = (
"179 60 OFFCURVE",
"148 89 OFFCURVE",
"148 126 CURVE SMOOTH",
"148 178 LINE SMOOTH",
"148 230 OFFCURVE",
"162 246 OFFCURVE",
"195 259 CURVE SMOOTH",
"281 292 LINE",
"281 115 LINE SMOOTH",
"281 84 OFFCURVE",
"260 60 OFFCURVE",
"229 60 CURVE SMOOTH",
"216 60 LINE SMOOTH"
);
},
{
closed = 1;
nodes = (
"376 409 LINE SMOOTH",
"376 453 OFFCURVE",
"406 464 OFFCURVE",
"442 464 CURVE SMOOTH",
"442 464 LINE SMOOTH",
"478 464 OFFCURVE",
"508 453 OFFCURVE",
"508 409 CURVE SMOOTH",
"508 343 LINE SMOOTH",
"508 291 OFFCURVE",
"492 303 OFFCURVE",
"376 269 CURVE"
);
}
);
width = 645;
}
);
leftKerningGroup = a;
unicode = 00E6;
},
{
glyphname = b;
lastChange = "2016-08-11 09:49:33 +0000";
layers = (
{
background = {
paths = (
{
closed = 1;
nodes = (
"140 544 LINE",
"140 700 LINE",
"60 700 LINE",
"60 0 LINE",
"225 0 LINE SMOOTH",
"298 0 OFFCURVE",
"356 53 OFFCURVE",
"356 126 CURVE SMOOTH",
"356 383 LINE SMOOTH",
"356 444 OFFCURVE",
"316 482 OFFCURVE",
"274 497 CURVE SMOOTH"
);
},
{
closed = 1;
nodes = (
"140 471 LINE",
"229 441 LINE SMOOTH",
"263 430 OFFCURVE",
"276 412 OFFCURVE",
"276 360 CURVE SMOOTH",
"276 126 LINE SMOOTH",
"276 88 OFFCURVE",
"245 60 OFFCURVE",
"208 60 CURVE SMOOTH",
"140 60 LINE"
);
}
);
};
hints = (
{
place = "{60, 80}";
},
{
place = "{276, 80}";
},
{
horizontal = 1;
place = "{0, 60}";
},
{
horizontal = 1;
place = "{700, -20}";
target = down;
type = TopGhost;
}
);
layerId = UUID0;
paths = (
{
closed = 1;
nodes = (
"225 0 LINE SMOOTH",
"298 0 OFFCURVE",
"356 53 OFFCURVE",
"356 126 CURVE SMOOTH",
"356 383 LINE SMOOTH",
"356 444 OFFCURVE",
"316 482 OFFCURVE",
"274 497 CURVE SMOOTH",
"140 544 LINE",
"140 700 LINE",
"60 700 LINE",
"60 0 LINE"
);
},
{
closed = 1;
nodes = (
"140 478 LINE",
"229 448 LINE SMOOTH",
"263 437 OFFCURVE",
"276 419 OFFCURVE",
"276 367 CURVE SMOOTH",
"276 126 LINE SMOOTH",
"276 88 OFFCURVE",
"245 60 OFFCURVE",
"208 60 CURVE SMOOTH",
"140 60 LINE"
);
}
);
width = 391;
}
);
unicode = 0062;
},
{
glyphname = c;
lastChange = "2016-08-11 09:49:33 +0000";
layers = (
{
background = {
paths = (
{
closed = 1;
nodes = (
"290 460 LINE",
"181 460 LINE SMOOTH",
"150 460 OFFCURVE",
"130 436 OFFCURVE",
"130 405 CURVE SMOOTH",
"130 115 LINE SMOOTH",
"130 84 OFFCURVE",
"151 60 OFFCURVE",
"182 60 CURVE SMOOTH",
"290 60 LINE",
"290 0 LINE",
"170 0 LINE SMOOTH",
"96 0 OFFCURVE",
"50 48 OFFCURVE",
"50 122 CURVE SMOOTH",
"50 388 LINE SMOOTH",
"50 472 OFFCURVE",
"95 520 OFFCURVE",
"179 520 CURVE SMOOTH",
"290 520 LINE"
);
}
);
};
hints = (
{
place = "{50, 80}";
},
{
place = "{50, 240}";
},
{
horizontal = 1;
place = "{0, 60}";
},
{
horizontal = 1;
place = "{460, 60}";
}
);
layerId = UUID0;
paths = (
{
closed = 1;
nodes = (
"290 0 LINE",
"290 60 LINE",
"182 60 LINE SMOOTH",
"151 60 OFFCURVE",
"130 84 OFFCURVE",
"130 115 CURVE SMOOTH",
"130 405 LINE SMOOTH",
"130 436 OFFCURVE",
"150 460 OFFCURVE",
"181 460 CURVE SMOOTH",
"290 460 LINE",
"290 520 LINE",
"179 520 LINE SMOOTH",
"95 520 OFFCURVE",
"50 472 OFFCURVE",
"50 388 CURVE SMOOTH",
"50 122 LINE SMOOTH",
"50 48 OFFCURVE",
"96 0 OFFCURVE",
"170 0 CURVE SMOOTH"
);
}
);
width = 300;
}
);
unicode = 0063;
},
{
glyphname = ccedilla;
lastChange = "2016-08-11 09:49:33 +0000";
layers = (
{
background = {
paths = (
{
closed = 1;
nodes = (
"290 460 LINE",
"181 460 LINE SMOOTH",
"150 460 OFFCURVE",
"130 436 OFFCURVE",
"130 405 CURVE SMOOTH",
"130 115 LINE SMOOTH",
"130 84 OFFCURVE",
"151 60 OFFCURVE",
"182 60 CURVE SMOOTH",
"290 60 LINE",
"290 0 LINE",
"170 0 LINE SMOOTH",
"96 0 OFFCURVE",
"50 48 OFFCURVE",
"50 122 CURVE SMOOTH",
"50 388 LINE SMOOTH",
"50 472 OFFCURVE",
"95 520 OFFCURVE",
"179 520 CURVE SMOOTH",
"290 520 LINE"
);
},
{
closed = 1;
nodes = (
"228 0 LINE",
"166 0 LINE",
"149 -70 LINE",
"201 -70 LINE SMOOTH",
"222 -70 OFFCURVE",
"235 -73 OFFCURVE",
"235 -91 CURVE SMOOTH",
"235 -108 OFFCURVE",
"220 -113 OFFCURVE",
"190 -113 CURVE SMOOTH",
"110 -113 LINE",
"110 -160 LINE",
"217 -160 LINE SMOOTH",
"267 -160 OFFCURVE",
"295 -139 OFFCURVE",
"295 -92 CURVE SMOOTH",
"295 -43 OFFCURVE",
"264 -32 OFFCURVE",
"221 -32 CURVE"
);
}
);
};
components = (
{
name = c;
}
);
hints = (
{
place = "{50, 80}";
},
{
place = "{235, 60}";
},
{
horizontal = 1;
place = "{-160, 47}";
},
{
horizontal = 1;
place = "{-70, 70}";
},
{
horizontal = 1;
place = "{460, 60}";
},
{
horizontal = 1;
place = "{0, 60}";
},
{
horizontal = 1;
place = "{-113, 43}";
}
);
layerId = UUID0;
paths = (
{
closed = 1;
nodes = (
"290 0 LINE",
"290 60 LINE",
"182 60 LINE SMOOTH",
"151 60 OFFCURVE",
"130 84 OFFCURVE",
"130 115 CURVE SMOOTH",
"130 405 LINE SMOOTH",
"130 436 OFFCURVE",
"150 460 OFFCURVE",
"181 460 CURVE SMOOTH",
"290 460 LINE",
"290 520 LINE",
"179 520 LINE SMOOTH",
"95 520 OFFCURVE",
"50 472 OFFCURVE",
"50 388 CURVE SMOOTH",
"50 122 LINE SMOOTH",
"50 48 OFFCURVE",
"96 0 OFFCURVE",
"170 0 CURVE SMOOTH"
);
},
{
closed = 1;
nodes = (
"217 -160 LINE SMOOTH",
"267 -160 OFFCURVE",
"295 -139 OFFCURVE",
"295 -92 CURVE SMOOTH",
"295 -43 OFFCURVE",
"264 -32 OFFCURVE",
"221 -32 CURVE",
"228 0 LINE",
"166 0 LINE",
"149 -70 LINE",
"201 -70 LINE SMOOTH",
"222 -70 OFFCURVE",
"235 -73 OFFCURVE",
"235 -91 CURVE SMOOTH",
"235 -108 OFFCURVE",
"220 -113 OFFCURVE",
"190 -113 CURVE SMOOTH",
"110 -113 LINE",
"110 -160 LINE"
);
}
);
width = 300;
}
);
unicode = 00E7;
},
{
glyphname = d;
lastChange = "2016-08-11 09:49:33 +0000";
layers = (
{
background = {
paths = (
{
closed = 1;
nodes = (
"133 499 LINE",
"90 486 OFFCURVE",
"51 446 OFFCURVE",
"51 385 CURVE SMOOTH",
"51 136 LINE SMOOTH",
"51 53 OFFCURVE",
"109 0 OFFCURVE",
"192 0 CURVE SMOOTH",
"347 0 LINE",
"347 700 LINE",
"267 700 LINE",
"267 546 LINE"
);
},
{
closed = 1;
nodes = (
"267 60 LINE",
"209 60 LINE SMOOTH",
"162 60 OFFCURVE",
"131 88 OFFCURVE",
"131 136 CURVE SMOOTH",
"131 362 LINE SMOOTH",
"131 414 OFFCURVE",
"144 432 OFFCURVE",
"178 443 CURVE SMOOTH",
"267 473 LINE"
);
}
);
};
hints = (
{
place = "{51, 80}";
},
{
place = "{267, 80}";
},
{
horizontal = 1;
place = "{0, 60}";
},
{
horizontal = 1;
place = "{700, -20}";
target = down;
type = TopGhost;
}
);
layerId = UUID0;
paths = (
{
closed = 1;
nodes = (
"347 0 LINE",
"347 700 LINE",
"267 700 LINE",
"267 546 LINE",
"133 499 LINE",
"90 486 OFFCURVE",
"51 446 OFFCURVE",
"51 385 CURVE SMOOTH",
"51 136 LINE SMOOTH",
"51 53 OFFCURVE",
"109 0 OFFCURVE",
"192 0 CURVE SMOOTH"
);
},
{
closed = 1;
nodes = (
"162 60 OFFCURVE",
"131 88 OFFCURVE",
"131 136 CURVE SMOOTH",
"131 369 LINE SMOOTH",
"131 421 OFFCURVE",
"144 439 OFFCURVE",
"178 450 CURVE SMOOTH",
"267 480 LINE",
"267 60 LINE",
"209 60 LINE SMOOTH"
);
}
);
width = 407;
}
);
unicode = 0064;
},
{
glyphname = eth;
lastChange = "2016-08-11 09:49:33 +0000";
layers = (
{
background = {
paths = (
{
closed = 1;
nodes = (
"192 422 LINE SMOOTH",
"106 422 OFFCURVE",
"62 376 OFFCURVE",
"62 287 CURVE SMOOTH",
"62 124 LINE SMOOTH",
"62 35 OFFCURVE",
"150 -7 OFFCURVE",
"239 -7 CURVE SMOOTH",
"328 -7 OFFCURVE",
"415 36 OFFCURVE",
"415 125 CURVE SMOOTH",
"415 405 LINE SMOOTH",
"415 570 OFFCURVE",
"323 706 OFFCURVE",
"111 706 CURVE",
"111 646 LINE",
"237 646 OFFCURVE",
"335 536 OFFCURVE",
"335 422 CURVE"
);
},
{
closed = 1;
nodes = (
"142 280 LINE SMOOTH",
"142 328 OFFCURVE",
"151 355 OFFCURVE",
"209 355 CURVE SMOOTH",
"335 355 LINE",
"335 121 LINE SMOOTH",
"335 73 OFFCURVE",
"282 59 OFFCURVE",
"241 59 CURVE SMOOTH",
"200 59 OFFCURVE",
"142 72 OFFCURVE",
"142 120 CURVE SMOOTH"
);
}
);
};
hints = (
{
place = "{62, 80}";
},
{
place = "{335, 80}";
},
{
horizontal = 1;
place = "{-7, 66}";
},
{
horizontal = 1;
place = "{355, 67}";
},
{
horizontal = 1;
place = "{646, 60}";
}
);
layerId = UUID0;
paths = (
{
closed = 1;
nodes = (
"328 -7 OFFCURVE",
"415 36 OFFCURVE",
"415 125 CURVE SMOOTH",
"415 405 LINE SMOOTH",
"415 570 OFFCURVE",
"323 706 OFFCURVE",
"111 706 CURVE",
"111 646 LINE",
"257 646 OFFCURVE",
"335 556 OFFCURVE",
"335 422 CURVE",
"335 422 LINE",
"192 422 LINE SMOOTH",
"106 422 OFFCURVE",
"62 376 OFFCURVE",
"62 287 CURVE SMOOTH",
"62 124 LINE SMOOTH",
"62 35 OFFCURVE",
"150 -7 OFFCURVE",
"239 -7 CURVE SMOOTH"
);
},
{
closed = 1;
nodes = (
"200 59 OFFCURVE",
"142 72 OFFCURVE",
"142 120 CURVE SMOOTH",
"142 280 LINE SMOOTH",
"142 328 OFFCURVE",
"151 355 OFFCURVE",
"209 355 CURVE SMOOTH",
"335 355 LINE",
"335 121 LINE SMOOTH",
"335 73 OFFCURVE",
"282 59 OFFCURVE",
"241 59 CURVE SMOOTH"
);
}
);
width = 476;
}
);
unicode = 00F0;
},
{
glyphname = e;
lastChange = "2016-08-11 09:49:33 +0000";
layers = (
{
background = {
paths = (
{
closed = 1;
nodes = (
"212 520 LINE SMOOTH",
"278 520 OFFCURVE",
"329 480 OFFCURVE",
"329 414 CURVE SMOOTH",
"329 342 LINE SMOOTH",
"329 281 OFFCURVE",
"286 258 OFFCURVE",
"242 246 CURVE SMOOTH",
"124 213 LINE",
"124 121 LINE SMOOTH",
"124 90 OFFCURVE",
"145 66 OFFCURVE",
"176 66 CURVE SMOOTH",
"284 66 LINE",
"284 0 LINE",
"164 0 LINE SMOOTH",
"90 0 OFFCURVE",
"44 48 OFFCURVE",
"44 122 CURVE SMOOTH",
"44 407 LINE SMOOTH",
"44 473 OFFCURVE",
"88 520 OFFCURVE",
"154 520 CURVE SMOOTH"
);
},
{
closed = 1;
nodes = (
"124 276 LINE",
"240 310 OFFCURVE",
"249 298 OFFCURVE",
"249 350 CURVE SMOOTH",
"249 399 LINE SMOOTH",
"249 443 OFFCURVE",
"219 454 OFFCURVE",
"183 454 CURVE",
"150 452 OFFCURVE",
"124 440 OFFCURVE",
"124 399 CURVE"
);
}
);
};
hints = (
{
place = "{44, 80}";
},
{
place = "{249, 80}";
},
{
place = "{44, 240}";
},
{
horizontal = 1;
place = "{0, 60}";
},
{
horizontal = 1;
place = "{460, 60}";
}
);
layerId = UUID0;
paths = (
{
closed = 1;
nodes = (
"284 0 LINE",
"284 60 LINE",
"176 60 LINE SMOOTH",
"145 60 OFFCURVE",
"124 84 OFFCURVE",
"124 115 CURVE SMOOTH",
"124 213 LINE",
"242 246 LINE SMOOTH",
"286 258 OFFCURVE",
"329 281 OFFCURVE",
"329 342 CURVE SMOOTH",
"329 388 LINE SMOOTH",
"329 472 OFFCURVE",
"284 527 OFFCURVE",
"187 527 CURVE SMOOTH",
"89 527 OFFCURVE",
"44 472 OFFCURVE",
"44 388 CURVE SMOOTH",
"44 122 LINE SMOOTH",
"44 48 OFFCURVE",
"90 0 OFFCURVE",
"164 0 CURVE SMOOTH"
);
},
{
closed = 1;
nodes = (
"124 405 LINE SMOOTH",
"124 446 OFFCURVE",
"151 467 OFFCURVE",
"187 467 CURVE SMOOTH",
"223 467 OFFCURVE",
"249 449 OFFCURVE",
"249 405 CURVE SMOOTH",
"249 350 LINE SMOOTH",
"249 298 OFFCURVE",
"240 310 OFFCURVE",
"124 276 CURVE"
);
}
);
width = 349;
}
);
leftKerningGroup = e;
unicode = 0065;
},
{
glyphname = eacute;
lastChange = "2016-08-11 09:49:33 +0000";
layers = (
{
background = {
paths = (
{
closed = 1;
nodes = (
"320 362 LINE SMOOTH",
"320 301 OFFCURVE",
"280 260 OFFCURVE",
"238 240 CURVE SMOOTH",
"124 185 LINE",
"124 115 LINE SMOOTH",
"124 84 OFFCURVE",
"145 60 OFFCURVE",
"176 60 CURVE SMOOTH",
"284 60 LINE",
"284 0 LINE",
"164 0 LINE SMOOTH",
"90 0 OFFCURVE",
"44 48 OFFCURVE",
"44 122 CURVE SMOOTH",
"44 388 LINE SMOOTH",
"44 472 OFFCURVE",
"89 520 OFFCURVE",
"173 520 CURVE SMOOTH",
"193 520 LINE SMOOTH",
"277 520 OFFCURVE",
"320 472 OFFCURVE",
"320 388 CURVE SMOOTH"
);
},
{
closed = 1;
nodes = (
"175 460 LINE SMOOTH",
"144 460 OFFCURVE",
"124 436 OFFCURVE",
"124 405 CURVE SMOOTH",
"124 255 LINE",
"234 303 OFFCURVE",
"246 317 OFFCURVE",
"246 369 CURVE SMOOTH",
"246 405 LINE SMOOTH",
"246 436 OFFCURVE",
"226 460 OFFCURVE",
"195 460 CURVE SMOOTH"
);
},
{
closed = 1;
nodes = (
"137 589 LINE",
"253 688 LINE",
"304 641 LINE",
"170 559 LINE"
);
}
);
};
components = (
{
name = e;
}
);
hints = (
{
horizontal = 1;
place = "{559, 21}";
target = up;
type = BottomGhost;
},
{
horizontal = 1;
place = "{688, -20}";
target = down;
type = TopGhost;
}
);
layerId = UUID0;
paths = (
{
closed = 1;
nodes = (
"304 641 LINE",
"253 688 LINE",
"137 589 LINE",
"170 559 LINE"
);
}
);
width = 349;
}
);
leftKerningGroup = e;
unicode = 00E9;
},
{
glyphname = ecircumflex;
lastChange = "2016-08-11 09:49:33 +0000";
layers = (
{
background = {
paths = (
{
closed = 1;
nodes = (
"77 614 LINE",
"126 576 LINE",
"191 628 LINE",
"256 576 LINE",
"305 614 LINE",
"191 701 LINE"
);
},
{
closed = 1;
nodes = (
"320 362 LINE SMOOTH",
"320 301 OFFCURVE",
"280 260 OFFCURVE",
"238 240 CURVE SMOOTH",
"124 185 LINE",
"124 115 LINE SMOOTH",
"124 84 OFFCURVE",
"145 60 OFFCURVE",
"176 60 CURVE SMOOTH",
"284 60 LINE",
"284 0 LINE",
"164 0 LINE SMOOTH",
"90 0 OFFCURVE",
"44 48 OFFCURVE",
"44 122 CURVE SMOOTH",
"44 388 LINE SMOOTH",
"44 472 OFFCURVE",
"89 520 OFFCURVE",
"173 520 CURVE SMOOTH",
"193 520 LINE SMOOTH",
"277 520 OFFCURVE",
"320 472 OFFCURVE",
"320 388 CURVE SMOOTH"
);
},
{
closed = 1;
nodes = (
"175 460 LINE SMOOTH",
"144 460 OFFCURVE",
"124 436 OFFCURVE",
"124 405 CURVE SMOOTH",
"124 255 LINE",
"234 303 OFFCURVE",
"246 317 OFFCURVE",
"246 369 CURVE SMOOTH",
"246 405 LINE SMOOTH",
"246 436 OFFCURVE",
"226 460 OFFCURVE",
"195 460 CURVE SMOOTH"
);
}
);
};
components = (
{
name = e;
}
);
hints = (
{
horizontal = 1;
place = "{576, 21}";
target = up;
type = BottomGhost;
},
{
horizontal = 1;
place = "{701, -20}";
target = down;
type = TopGhost;
}
);
layerId = UUID0;
paths = (
{
closed = 1;
nodes = (
"191 628 LINE",
"256 576 LINE",
"305 614 LINE",
"191 701 LINE",
"77 614 LINE",
"126 576 LINE"
);
}
);
width = 349;
}
);
leftKerningGroup = e;
unicode = 00EA;
},
{
glyphname = edieresis;
lastChange = "2016-08-11 09:49:33 +0000";
layers = (
{
background = {
paths = (
{
closed = 1;
nodes = (
"320 362 LINE SMOOTH",
"320 301 OFFCURVE",
"280 260 OFFCURVE",
"238 240 CURVE SMOOTH",
"124 185 LINE",
"124 115 LINE SMOOTH",
"124 84 OFFCURVE",
"145 60 OFFCURVE",
"176 60 CURVE SMOOTH",
"284 60 LINE",
"284 0 LINE",
"164 0 LINE SMOOTH",
"90 0 OFFCURVE",
"44 48 OFFCURVE",
"44 122 CURVE SMOOTH",
"44 388 LINE SMOOTH",
"44 472 OFFCURVE",
"89 520 OFFCURVE",
"173 520 CURVE SMOOTH",
"193 520 LINE SMOOTH",
"277 520 OFFCURVE",
"320 472 OFFCURVE",
"320 388 CURVE SMOOTH"
);
},
{
closed = 1;
nodes = (
"175 460 LINE SMOOTH",
"144 460 OFFCURVE",
"124 436 OFFCURVE",
"124 405 CURVE SMOOTH",
"124 255 LINE",
"234 303 OFFCURVE",
"246 317 OFFCURVE",
"246 369 CURVE SMOOTH",
"246 405 LINE SMOOTH",
"246 436 OFFCURVE",
"226 460 OFFCURVE",
"195 460 CURVE SMOOTH"
);
},
{
closed = 1;
nodes = (
"64 599 LINE",
"144 599 LINE",
"144 679 LINE",
"64 679 LINE"
);
},
{
closed = 1;
nodes = (
"209 599 LINE",
"289 599 LINE",
"289 679 LINE",
"209 679 LINE"
);
}
);
};
components = (
{
name = e;
}
);
hints = (
{
place = "{74, 80}";
},
{
place = "{219, 80}";
},
{
horizontal = 1;
place = "{599, 80}";
}
);
layerId = UUID0;
paths = (
{
closed = 1;
nodes = (
"299 599 LINE",
"299 679 LINE",
"219 679 LINE",
"219 599 LINE"
);
},
{
closed = 1;
nodes = (
"154 599 LINE",
"154 679 LINE",
"74 679 LINE",
"74 599 LINE"
);
}
);
width = 349;
}
);
leftKerningGroup = e;
unicode = 00EB;
},
{
glyphname = egrave;
lastChange = "2016-08-11 09:46:07 +0000";
layers = (
{
background = {
paths = (
{
closed = 1;
nodes = (
"240 590 LINE",
"120 679 LINE",
"78 631 LINE",
"212 559 LINE"
);
},
{
closed = 1;
nodes = (
"320 362 LINE SMOOTH",
"320 301 OFFCURVE",
"280 260 OFFCURVE",
"238 240 CURVE SMOOTH",
"124 185 LINE",
"124 115 LINE SMOOTH",
"124 84 OFFCURVE",
"145 60 OFFCURVE",
"176 60 CURVE SMOOTH",
"284 60 LINE",
"284 0 LINE",
"164 0 LINE SMOOTH",
"90 0 OFFCURVE",
"44 48 OFFCURVE",
"44 122 CURVE SMOOTH",
"44 388 LINE SMOOTH",
"44 472 OFFCURVE",
"89 520 OFFCURVE",
"173 520 CURVE SMOOTH",
"193 520 LINE SMOOTH",
"277 520 OFFCURVE",
"320 472 OFFCURVE",
"320 388 CURVE SMOOTH"
);
},
{
closed = 1;
nodes = (
"175 460 LINE SMOOTH",
"144 460 OFFCURVE",
"124 436 OFFCURVE",
"124 405 CURVE SMOOTH",
"124 255 LINE",
"234 303 OFFCURVE",
"246 317 OFFCURVE",
"246 369 CURVE SMOOTH",
"246 405 LINE SMOOTH",
"246 436 OFFCURVE",
"226 460 OFFCURVE",
"195 460 CURVE SMOOTH"
);
}
);
};
components = (
{
name = e;
}
);
hints = (
{
horizontal = 1;
place = "{679, -20}";
target = down;
type = TopGhost;
},
{
horizontal = 1;
place = "{559, 21}";
target = up;
type = BottomGhost;
}
);
layerId = UUID0;
paths = (
{
closed = 1;
nodes = (
"240 590 LINE",
"120 679 LINE",
"78 631 LINE",
"212 559 LINE"
);
}
);
width = 349;
}
);
leftKerningGroup = e;
unicode = 00E8;
},
{
glyphname = f;
lastChange = "2016-08-11 09:49:33 +0000";
layers = (
{
background = {
paths = (
{
closed = 1;
nodes = (
"25 454 LINE",
"85 454 LINE",
"85 0 LINE",
"165 0 LINE",
"165 454 LINE",
"246 454 LINE",
"246 520 LINE",
"165 520 LINE",
"165 585 LINE SMOOTH",
"165 616 OFFCURVE",
"187 640 OFFCURVE",
"218 640 CURVE SMOOTH",
"248 640 LINE",
"248 700 LINE",
"204 700 LINE SMOOTH",
"130 700 OFFCURVE",
"85 652 OFFCURVE",
"85 578 CURVE SMOOTH",
"85 520 LINE",
"25 520 LINE"
);
}
);
};
hints = (
{
place = "{25, 221}";
},
{
place = "{85, 80}";
},
{
place = "{85, 161}";
},
{
horizontal = 1;
place = "{454, 66}";
},
{
horizontal = 1;
place = "{640, 60}";
},
{
horizontal = 1;
place = "{0, 21}";
target = up;
type = BottomGhost;
}
);
layerId = UUID0;
paths = (
{
closed = 1;
nodes = (
"165 0 LINE",
"165 454 LINE",
"246 454 LINE",
"246 520 LINE",
"165 520 LINE",
"165 585 LINE SMOOTH",
"165 616 OFFCURVE",
"187 640 OFFCURVE",
"218 640 CURVE SMOOTH",
"248 640 LINE",
"248 700 LINE",
"204 700 LINE SMOOTH",
"130 700 OFFCURVE",
"85 652 OFFCURVE",
"85 578 CURVE SMOOTH",
"85 520 LINE",
"25 520 LINE",
"25 454 LINE",
"85 454 LINE",
"85 0 LINE"
);
}
);
width = 251;
}
);
unicode = 0066;
},
{
glyphname = g;
lastChange = "2016-08-11 09:49:33 +0000";
layers = (
{
background = {
paths = (
{
closed = 1;
nodes = (
"336 520 LINE",
"173 520 LINE SMOOTH",
"100 520 OFFCURVE",
"41 467 OFFCURVE",
"41 394 CURVE SMOOTH",
"41 125 LINE SMOOTH",
"41 52 OFFCURVE",
"99 -1 OFFCURVE",
"172 -1 CURVE SMOOTH",
"255 -1 LINE",
"255 -45 LINE SMOOTH",
"255 -76 OFFCURVE",
"236 -100 OFFCURVE",
"205 -100 CURVE SMOOTH",
"102 -100 LINE",
"102 -160 LINE",
"220 -160 LINE SMOOTH",
"294 -160 OFFCURVE",
"336 -112 OFFCURVE",
"336 -38 CURVE SMOOTH"
);
},
{
closed = 1;
nodes = (
"256 460 LINE",
"256 59 LINE",
"189 59 LINE SMOOTH",
"152 59 OFFCURVE",
"121 87 OFFCURVE",
"121 125 CURVE SMOOTH",
"121 394 LINE SMOOTH",
"121 432 OFFCURVE",
"152 460 OFFCURVE",
"189 460 CURVE SMOOTH"
);
}
);
};
hints = (
{
place = "{41, 80}";
},
{
place = "{102, 234}";
},
{
place = "{256, 80}";
},
{
horizontal = 1;
place = "{-160, 60}";
},
{
horizontal = 1;
place = "{-1, 60}";
},
{
horizontal = 1;
place = "{460, 60}";
}
);
layerId = UUID0;
paths = (
{
closed = 1;
nodes = (
"220 -160 LINE SMOOTH",
"294 -160 OFFCURVE",
"336 -112 OFFCURVE",
"336 -38 CURVE SMOOTH",
"336 520 LINE",
"173 520 LINE SMOOTH",
"100 520 OFFCURVE",
"41 467 OFFCURVE",
"41 394 CURVE SMOOTH",
"41 125 LINE SMOOTH",
"41 52 OFFCURVE",
"99 -1 OFFCURVE",
"172 -1 CURVE SMOOTH",
"255 -1 LINE",
"255 -45 LINE SMOOTH",
"255 -76 OFFCURVE",
"236 -100 OFFCURVE",
"205 -100 CURVE SMOOTH",
"102 -100 LINE",
"102 -160 LINE"
);
},
{
closed = 1;
nodes = (
"152 59 OFFCURVE",
"121 87 OFFCURVE",
"121 125 CURVE SMOOTH",
"121 394 LINE SMOOTH",
"121 432 OFFCURVE",
"152 460 OFFCURVE",
"189 460 CURVE SMOOTH",
"256 460 LINE",
"256 59 LINE",
"189 59 LINE SMOOTH"
);
}
);
width = 386;
}
);
unicode = 0067;
},
{
glyphname = h;
lastChange = "2016-08-11 09:49:33 +0000";
layers = (
{
background = {
paths = (
{
closed = 1;
nodes = (
"60 700 LINE",
"60 0 LINE",
"140 0 LINE",
"140 424 LINE",
"240 455 OFFCURVE",
"246 456 OFFCURVE",
"251 456 CURVE SMOOTH",
"274 456 OFFCURVE",
"275 437 OFFCURVE",
"275 404 CURVE SMOOTH",
"275 0 LINE",
"355 0 LINE",
"355 430 LINE SMOOTH",
"355 480 OFFCURVE",
"335 520 OFFCURVE",
"285 520 CURVE SMOOTH",
"243 520 OFFCURVE",
"200 503 OFFCURVE",
"133 484 CURVE",
"133 700 LINE"
);
}
);
};
hints = (
{
place = "{60, 80}";
},
{
place = "{275, 80}";
},
{
horizontal = 1;
place = "{456, 64}";
},
{
horizontal = 1;
place = "{700, -20}";
target = down;
type = TopGhost;
},
{
horizontal = 1;
place = "{0, 21}";
target = up;
type = BottomGhost;
}
);
layerId = UUID0;
paths = (
{
closed = 1;
nodes = (
"140 0 LINE",
"140 431 LINE",
"240 462 OFFCURVE",
"246 463 OFFCURVE",
"251 463 CURVE SMOOTH",
"274 463 OFFCURVE",
"275 444 OFFCURVE",
"275 411 CURVE SMOOTH",
"275 0 LINE",
"355 0 LINE",
"355 437 LINE SMOOTH",
"355 487 OFFCURVE",
"335 527 OFFCURVE",
"285 527 CURVE SMOOTH",
"243 527 OFFCURVE",
"207 512 OFFCURVE",
"140 493 CURVE",
"140 700 LINE",
"60 700 LINE",
"60 0 LINE"
);
}
);
width = 416;
}
);
unicode = 0068;
},
{
glyphname = hbar;
lastChange = "2016-08-11 09:49:33 +0000";
layers = (
{
background = {
paths = (
{
closed = 1;
nodes = (
"60 700 LINE",
"60 630 LINE",
"12 630 LINE",
"12 564 LINE",
"60 564 LINE",
"60 0 LINE",
"140 0 LINE",
"140 424 LINE",
"241 455 OFFCURVE",
"247 456 OFFCURVE",
"252 456 CURVE SMOOTH",
"275 456 OFFCURVE",
"276 437 OFFCURVE",
"276 404 CURVE SMOOTH",
"276 0 LINE",
"355 0 LINE",
"355 430 LINE SMOOTH",
"355 480 OFFCURVE",
"335 520 OFFCURVE",
"285 520 CURVE SMOOTH",
"243 520 OFFCURVE",
"200 503 OFFCURVE",
"133 484 CURVE",
"133 564 LINE",
"273 564 LINE",
"273 630 LINE",
"133 630 LINE",
"133 700 LINE"
);
}
);
};
components = (
{
name = h;
}
);
hints = (
{
place = "{60, 80}";
},
{
place = "{276, 79}";
},
{
horizontal = 1;
place = "{456, 64}";
},
{
horizontal = 1;
place = "{564, 66}";
},
{
horizontal = 1;
place = "{700, -20}";
target = down;
type = TopGhost;
},
{
horizontal = 1;
place = "{0, 21}";
target = up;
type = BottomGhost;
}
);
layerId = UUID0;
paths = (
{
closed = 1;
nodes = (
"140 0 LINE",
"140 424 LINE",
"241 455 OFFCURVE",
"247 456 OFFCURVE",
"252 456 CURVE SMOOTH",
"275 456 OFFCURVE",
"276 437 OFFCURVE",
"276 404 CURVE SMOOTH",
"276 0 LINE",
"355 0 LINE",
"355 430 LINE SMOOTH",
"355 480 OFFCURVE",
"335 520 OFFCURVE",
"285 520 CURVE SMOOTH",
"243 520 OFFCURVE",
"200 503 OFFCURVE",
"133 484 CURVE",
"133 574 LINE",
"273 574 LINE",
"273 630 LINE",
"133 630 LINE",
"133 700 LINE",
"60 700 LINE",
"60 630 LINE",
"12 630 LINE",
"12 574 LINE",
"60 574 LINE",
"60 0 LINE"
);
}
);
width = 416;
}
);
unicode = 0127;
},
{
glyphname = i;
lastChange = "2016-08-11 09:49:33 +0000";
layers = (
{
background = {
paths = (
{
closed = 1;
nodes = (
"60 0 LINE",
"140 0 LINE",
"140 520 LINE",
"60 520 LINE"
);
},
{
closed = 1;
nodes = (
"60 605 LINE",
"140 605 LINE",
"140 685 LINE",
"60 685 LINE"
);
}
);
};
hints = (
{
place = "{60, 80}";
},
{
horizontal = 1;
place = "{605, 80}";
},
{
horizontal = 1;
place = "{0, 21}";
target = up;
type = BottomGhost;
},
{
horizontal = 1;
place = "{520, -20}";
target = down;
type = TopGhost;
}
);
layerId = UUID0;
paths = (
{
closed = 1;
nodes = (
"140 0 LINE",
"140 520 LINE",
"60 520 LINE",
"60 0 LINE"
);
},
{
closed = 1;
nodes = (
"140 605 LINE",
"140 685 LINE",
"60 685 LINE",
"60 605 LINE"
);
}
);
width = 200;
}
);
unicode = 0069;
},
{
glyphname = dotlessi;
lastChange = "2016-08-11 09:49:33 +0000";
layers = (
{
background = {
paths = (
{
closed = 1;
nodes = (
"60 0 LINE",
"140 0 LINE",
"140 520 LINE",
"60 520 LINE"
);
}
);
};
hints = (
{
place = "{60, 80}";
},
{
horizontal = 1;
place = "{0, 21}";
target = up;
type = BottomGhost;
},
{
horizontal = 1;
place = "{520, -20}";
target = down;
type = TopGhost;
}
);
layerId = UUID0;
paths = (
{
closed = 1;
nodes = (
"140 0 LINE",
"140 520 LINE",
"60 520 LINE",
"60 0 LINE"
);
}
);
width = 200;
}
);
unicode = 0131;
},
{
glyphname = iacute;
lastChange = "2016-08-11 09:49:33 +0000";
layers = (
{
background = {
paths = (
{
closed = 1;
nodes = (
"139 520 LINE",
"60 520 LINE",
"60 0 LINE",
"139 0 LINE"
);
},
{
closed = 1;
nodes = (
"49 589 LINE",
"165 688 LINE",
"216 641 LINE",
"82 559 LINE"
);
}
);
};
components = (
{
name = dotlessi;
}
);
hints = (
{
place = "{60, 79}";
},
{
horizontal = 1;
place = "{688, -20}";
target = down;
type = TopGhost;
},
{
horizontal = 1;
place = "{0, 21}";
target = up;
type = BottomGhost;
},
{
horizontal = 1;
place = "{520, -20}";
target = down;
type = TopGhost;
}
);
layerId = UUID0;
paths = (
{
closed = 1;
nodes = (
"216 641 LINE",
"165 688 LINE",
"49 589 LINE",
"82 559 LINE"
);
}
);
width = 200;
}
);
unicode = 00ED;
},
{
glyphname = icircumflex;
lastChange = "2016-08-11 09:49:33 +0000";
layers = (
{
background = {
paths = (
{
closed = 1;
nodes = (
"-10 614 LINE",
"39 576 LINE",
"104 628 LINE",
"169 576 LINE",
"218 614 LINE",
"104 701 LINE"
);
},
{
closed = 1;
nodes = (
"139 500 LINE",
"60 500 LINE",
"60 0 LINE",
"139 0 LINE"
);
}
);
};
components = (
{
name = dotlessi;
}
);
hints = (
{
place = "{60, 79}";
},
{
horizontal = 1;
place = "{701, -20}";
target = down;
type = TopGhost;
},
{
horizontal = 1;
place = "{0, 21}";
target = up;
type = BottomGhost;
}
);
layerId = UUID0;
paths = (
{
closed = 1;
nodes = (
"104 628 LINE",
"169 576 LINE",
"218 614 LINE",
"104 701 LINE",
"-10 614 LINE",
"39 576 LINE"
);
}
);
width = 200;
}
);
unicode = 00EE;
},
{
glyphname = idieresis;
lastChange = "2016-08-11 09:49:33 +0000";
layers = (
{
background = {
paths = (
{
closed = 1;
nodes = (
"60 0 LINE",
"140 0 LINE",
"140 520 LINE",
"60 520 LINE"
);
},
{
closed = 1;
nodes = (
"-15 599 LINE",
"65 599 LINE",
"65 679 LINE",
"-15 679 LINE"
);
},
{
closed = 1;
nodes = (
"130 599 LINE",
"210 599 LINE",
"210 679 LINE",
"130 679 LINE"
);
}
);
};
components = (
{
name = dotlessi;
}
);
hints = (
{
place = "{-15, 80}";
},
{
place = "{60, 80}";
},
{
place = "{130, 80}";
},
{
horizontal = 1;
place = "{599, 80}";
},
{
horizontal = 1;
place = "{0, 21}";
target = up;
type = BottomGhost;
},
{
horizontal = 1;
place = "{520, -20}";
target = down;
type = TopGhost;
}
);
layerId = UUID0;
paths = (
{
closed = 1;
nodes = (
"210 599 LINE",
"210 679 LINE",
"130 679 LINE",
"130 599 LINE"
);
},
{
closed = 1;
nodes = (
"65 599 LINE",
"65 679 LINE",
"-15 679 LINE",
"-15 599 LINE"
);
}
);
width = 200;
}
);
unicode = 00EF;
},
{
glyphname = igrave;
lastChange = "2016-08-11 09:46:07 +0000";
layers = (
{
background = {
paths = (
{
closed = 1;
nodes = (
"139 500 LINE",
"60 500 LINE",
"60 0 LINE",
"139 0 LINE"
);
},
{
closed = 1;
nodes = (
"137 589 LINE",
"21 688 LINE",
"-30 641 LINE",
"104 559 LINE"
);
}
);
};
components = (
{
name = dotlessi;
}
);
hints = (
{
place = "{60, 79}";
},
{
horizontal = 1;
place = "{0, 21}";
target = up;
type = BottomGhost;
},
{
horizontal = 1;
place = "{688, -20}";
target = down;
type = TopGhost;
}
);
layerId = UUID0;
paths = (
{
closed = 1;
nodes = (
"137 589 LINE",
"21 688 LINE",
"-30 641 LINE",
"104 559 LINE"
);
}
);
width = 200;
}
);
unicode = 00EC;
},
{
glyphname = itilde;
lastChange = "2016-08-11 09:49:33 +0000";
layers = (
{
background = {
paths = (
{
closed = 1;
nodes = (
"60 0 LINE",
"140 0 LINE",
"140 520 LINE",
"60 520 LINE"
);
}
);
};
components = (
{
name = tilde;
transform = "{1, 0, 0, 1, -108, 0}";
}
);
hints = (
{
place = "{60, 80}";
},
{
horizontal = 1;
place = "{0, 21}";
target = up;
type = BottomGhost;
},
{
horizontal = 1;
place = "{520, -20}";
target = down;
type = TopGhost;
}
);
layerId = UUID0;
paths = (
{
closed = 1;
nodes = (
"140 0 LINE",
"140 520 LINE",
"60 520 LINE",
"60 0 LINE"
);
}
);
width = 200;
}
);
unicode = 0129;
},
{
glyphname = j;
lastChange = "2016-08-11 09:49:33 +0000";
layers = (
{
background = {
paths = (
{
closed = 1;
nodes = (
"78 605 LINE",
"158 605 LINE",
"158 685 LINE",
"78 685 LINE"
);
},
{
closed = 1;
nodes = (
"79 -45 LINE SMOOTH",
"79 -76 OFFCURVE",
"60 -100 OFFCURVE",
"29 -100 CURVE SMOOTH",
"5 -100 LINE",
"5 -160 LINE",
"40 -160 LINE SMOOTH",
"114 -160 OFFCURVE",
"159 -112 OFFCURVE",
"159 -38 CURVE SMOOTH",
"159 520 LINE",
"79 520 LINE"
);
}
);
};
hints = (
{
place = "{5, 154}";
},
{
place = "{79, 80}";
},
{
horizontal = 1;
place = "{-160, 60}";
},
{
horizontal = 1;
place = "{605, 80}";
},
{
horizontal = 1;
place = "{520, -20}";
target = down;
type = TopGhost;
}
);
layerId = UUID0;
paths = (
{
closed = 1;
nodes = (
"40 -160 LINE SMOOTH",
"114 -160 OFFCURVE",
"159 -112 OFFCURVE",
"159 -38 CURVE SMOOTH",
"159 520 LINE",
"79 520 LINE",
"79 -45 LINE SMOOTH",
"79 -76 OFFCURVE",
"60 -100 OFFCURVE",
"29 -100 CURVE SMOOTH",
"5 -100 LINE",
"5 -160 LINE"
);
},
{
closed = 1;
nodes = (
"158 605 LINE",
"158 685 LINE",
"78 685 LINE",
"78 605 LINE"
);
}
);
width = 219;
}
);
unicode = 006A;
},
{
glyphname = jcircumflex;
lastChange = "2016-08-11 09:49:33 +0000";
layers = (
{
background = {
paths = (
{
closed = 1;
nodes = (
"78 -45 LINE SMOOTH",
"78 -76 OFFCURVE",
"59 -100 OFFCURVE",
"28 -100 CURVE SMOOTH",
"5 -100 LINE",
"5 -160 LINE",
"40 -160 LINE SMOOTH",
"114 -160 OFFCURVE",
"159 -112 OFFCURVE",
"159 -38 CURVE SMOOTH",
"159 520 LINE",
"78 520 LINE"
);
}
);
};
components = (
{
name = circumflex;
transform = "{1, 0, 0, 1, -76, 0}";
}
);
hints = (
{
place = "{5, 154}";
},
{
place = "{78, 81}";
},
{
horizontal = 1;
place = "{-160, 60}";
},
{
horizontal = 1;
place = "{520, -20}";
target = down;
type = TopGhost;
}
);
layerId = UUID0;
paths = (
{
closed = 1;
nodes = (
"40 -160 LINE SMOOTH",
"114 -160 OFFCURVE",
"159 -112 OFFCURVE",
"159 -38 CURVE SMOOTH",
"159 520 LINE",
"78 520 LINE",
"78 -45 LINE SMOOTH",
"78 -76 OFFCURVE",
"59 -100 OFFCURVE",
"28 -100 CURVE SMOOTH",
"5 -100 LINE",
"5 -160 LINE"
);
}
);
width = 219;
}
);
unicode = 0135;
},
{
glyphname = k;
lastChange = "2016-08-11 09:49:33 +0000";
layers = (
{
background = {
paths = (
{
closed = 1;
nodes = (
"220 308 LINE",
"368 520 LINE",
"293 520 LINE",
"138 308 LINE",
"138 700 LINE",
"58 700 LINE",
"58 0 LINE",
"138 0 LINE",
"138 215 LINE",
"173 262 LINE",
"300 0 LINE",
"375 0 LINE"
);
}
);
};
hints = (
{
place = "{58, 80}";
},
{
horizontal = 1;
place = "{520, -20}";
target = down;
type = TopGhost;
},
{
horizontal = 1;
place = "{700, -20}";
target = down;
type = TopGhost;
},
{
horizontal = 1;
place = "{0, 21}";
target = up;
type = BottomGhost;
}
);
layerId = UUID0;
paths = (
{
closed = 1;
nodes = (
"138 0 LINE",
"138 215 LINE",
"173 262 LINE",
"300 0 LINE",
"375 0 LINE",
"220 308 LINE",
"368 520 LINE",
"293 520 LINE",
"138 308 LINE",
"138 700 LINE",
"58 700 LINE",
"58 0 LINE"
);
}
);
width = 383;
}
);
unicode = 006B;
},
{
glyphname = kcedilla;
lastChange = "2016-08-11 09:49:33 +0000";
layers = (
{
background = {
paths = (
{
closed = 1;
nodes = (
"207 308 LINE",
"364 520 LINE",
"286 520 LINE",
"131 308 LINE",
"131 700 LINE",
"58 700 LINE",
"58 0 LINE",
"131 0 LINE",
"131 215 LINE",
"168 262 LINE",
"296 0 LINE",
"370 0 LINE"
);
},
{
closed = 1;
nodes = (
"243 -50 LINE",
"171 -50 LINE",
"171 -204 LINE",
"238 -204 LINE"
);
}
);
};
hints = (
{
place = "{58, 73}";
},
{
place = "{171, 69}";
},
{
horizontal = 1;
place = "{-204, 154}";
},
{
horizontal = 1;
place = "{520, -20}";
target = down;
type = TopGhost;
},
{
horizontal = 1;
place = "{700, -20}";
target = down;
type = TopGhost;
},
{
horizontal = 1;
place = "{0, 21}";
target = up;
type = BottomGhost;
}
);
layerId = UUID0;
paths = (
{
closed = 1;
nodes = (
"131 0 LINE",
"131 215 LINE",
"168 262 LINE",
"296 0 LINE",
"370 0 LINE",
"207 308 LINE",
"364 520 LINE",
"286 520 LINE",
"131 308 LINE",
"131 700 LINE",
"58 700 LINE",
"58 0 LINE"
);
},
{
closed = 1;
nodes = (
"238 -204 LINE",
"243 -50 LINE",
"171 -50 LINE",
"171 -204 LINE"
);
}
);
width = 383;
}
);
unicode = E003;
},
{
glyphname = kcommaaccent;
lastChange = "2016-08-11 09:49:33 +0000";
layers = (
{
background = {
paths = (
{
closed = 1;
nodes = (
"231 -50 LINE",
"159 -50 LINE",
"159 -204 LINE",
"226 -204 LINE"
);
}
);
};
components = (
{
name = k;
}
);
hints = (
{
place = "{159, 69}";
},
{
horizontal = 1;
place = "{-204, 154}";
}
);
layerId = UUID0;
paths = (
{
closed = 1;
nodes = (
"226 -204 LINE",
"231 -50 LINE",
"159 -50 LINE",
"159 -204 LINE"
);
}
);
width = 383;
}
);
unicode = 0137;
},
{
glyphname = kgreenlandic;
lastChange = "2016-08-11 09:49:33 +0000";
layers = (
{
background = {
paths = (
{
closed = 1;
nodes = (
"207 308 LINE",
"364 520 LINE",
"286 520 LINE",
"131 308 LINE",
"131 520 LINE",
"58 520 LINE",
"58 0 LINE",
"131 0 LINE",
"131 215 LINE",
"168 262 LINE",
"296 0 LINE",
"370 0 LINE"
);
}
);
};
hints = (
{
place = "{58, 73}";
},
{
horizontal = 1;
place = "{520, -20}";
target = down;
type = TopGhost;
},
{
horizontal = 1;
place = "{0, 21}";
target = up;
type = BottomGhost;
}
);
layerId = UUID0;
paths = (
{
closed = 1;
nodes = (
"131 0 LINE",
"131 215 LINE",
"168 262 LINE",
"296 0 LINE",
"370 0 LINE",
"207 308 LINE",
"364 520 LINE",
"286 520 LINE",
"131 308 LINE",
"131 520 LINE",
"58 520 LINE",
"58 0 LINE"
);
}
);
width = 383;
}
);
unicode = 0138;
},
{
glyphname = l;
lastChange = "2016-08-11 09:49:33 +0000";
layers = (
{
background = {
paths = (
{
closed = 1;
nodes = (
"61 0 LINE",
"141 0 LINE",
"141 700 LINE",
"61 700 LINE"
);
}
);
};
hints = (
{
place = "{61, 80}";
},
{
horizontal = 1;
place = "{0, 21}";
target = up;
type = BottomGhost;
},
{
horizontal = 1;
place = "{700, -20}";
target = down;
type = TopGhost;
}
);
layerId = UUID0;
paths = (
{
closed = 1;
nodes = (
"141 0 LINE",
"141 700 LINE",
"61 700 LINE",
"61 0 LINE"
);
}
);
width = 200;
}
);
unicode = 006C;
},
{
glyphname = lslash;
lastChange = "2016-08-11 09:49:33 +0000";
layers = (
{
background = {
paths = (
{
closed = 1;
nodes = (
"-44 305 LINE",
"61 329 LINE",
"61 0 LINE",
"141 0 LINE",
"141 348 LINE",
"259 375 LINE",
"244 440 LINE",
"141 416 LINE",
"141 700 LINE",
"61 700 LINE",
"61 397 LINE",
"-59 370 LINE"
);
}
);
};
hints = (
{
place = "{61, 80}";
},
{
horizontal = 1;
place = "{0, 21}";
target = up;
type = BottomGhost;
},
{
horizontal = 1;
place = "{700, -20}";
target = down;
type = TopGhost;
}
);
layerId = UUID0;
paths = (
{
closed = 1;
nodes = (
"141 0 LINE",
"141 348 LINE",
"259 375 LINE",
"244 440 LINE",
"141 416 LINE",
"141 700 LINE",
"61 700 LINE",
"61 397 LINE",
"-59 370 LINE",
"-44 305 LINE",
"61 329 LINE",
"61 0 LINE"
);
}
);
width = 200;
}
);
unicode = 0142;
},
{
glyphname = m;
lastChange = "2016-08-11 09:49:33 +0000";
layers = (
{
background = {
paths = (
{
closed = 1;
nodes = (
"60 520 LINE",
"60 0 LINE",
"140 0 LINE",
"140 424 LINE",
"234 453 LINE",
"275 463 OFFCURVE",
"276 444 OFFCURVE",
"276 404 CURVE SMOOTH",
"276 0 LINE",
"356 0 LINE",
"355 430 LINE SMOOTH",
"355 480 OFFCURVE",
"335 520 OFFCURVE",
"285 520 CURVE SMOOTH",
"243 520 OFFCURVE",
"200 503 OFFCURVE",
"133 484 CURVE",
"122 520 LINE"
);
},
{
closed = 1;
nodes = (
"340 481 OFFCURVE",
"354 424 OFFCURVE",
"354 424 CURVE",
"448 453 LINE",
"489 463 OFFCURVE",
"490 444 OFFCURVE",
"490 404 CURVE SMOOTH",
"490 0 LINE",
"570 0 LINE",
"569 430 LINE SMOOTH",
"569 480 OFFCURVE",
"549 520 OFFCURVE",
"499 520 CURVE SMOOTH",
"457 520 OFFCURVE",
"340 481 OFFCURVE",
"340 481 CURVE"
);
},
{
closed = 1;
nodes = (
"335 505 OFFCURVE",
"315 520 OFFCURVE",
"285 520 CURVE SMOOTH",
"243 520 OFFCURVE",
"200 503 OFFCURVE",
"133 484 CURVE",
"122 520 LINE",
"60 520 LINE",
"60 0 LINE",
"140 0 LINE",
"140 424 LINE",
"241 455 OFFCURVE",
"247 456 OFFCURVE",
"252 456 CURVE SMOOTH",
"275 456 OFFCURVE",
"276 437 OFFCURVE",
"276 404 CURVE SMOOTH",
"276 0 LINE",
"356 0 LINE",
"356 424 LINE",
"455 455 OFFCURVE",
"461 456 OFFCURVE",
"466 456 CURVE SMOOTH",
"489 456 OFFCURVE",
"490 437 OFFCURVE",
"490 404 CURVE SMOOTH",
"490 0 LINE",
"570 0 LINE",
"570 430 LINE SMOOTH",
"570 480 OFFCURVE",
"549 520 OFFCURVE",
"499 520 CURVE SMOOTH",
"462 520 OFFCURVE",
"367 490 OFFCURVE",
"345 482 CURVE"
);
}
);
};
hints = (
{
place = "{60, 80}";
},
{
place = "{276, 80}";
},
{
place = "{490, 80}";
},
{
horizontal = 1;
place = "{456, 64}";
},
{
horizontal = 1;
place = "{0, 21}";
target = up;
type = BottomGhost;
}
);
layerId = UUID0;
paths = (
{
closed = 1;
nodes = (
"140 0 LINE",
"140 431 LINE",
"241 462 OFFCURVE",
"247 463 OFFCURVE",
"252 463 CURVE SMOOTH",
"275 463 OFFCURVE",
"276 444 OFFCURVE",
"276 411 CURVE SMOOTH",
"276 0 LINE",
"356 0 LINE",
"356 431 LINE",
"455 462 OFFCURVE",
"461 463 OFFCURVE",
"466 463 CURVE SMOOTH",
"489 463 OFFCURVE",
"490 444 OFFCURVE",
"490 411 CURVE SMOOTH",
"490 0 LINE",
"570 0 LINE",
"570 437 LINE SMOOTH",
"570 487 OFFCURVE",
"549 527 OFFCURVE",
"499 527 CURVE SMOOTH",
"462 527 OFFCURVE",
"367 497 OFFCURVE",
"345 489 CURVE",
"345 489 LINE",
"335 512 OFFCURVE",
"315 527 OFFCURVE",
"285 527 CURVE SMOOTH",
"243 527 OFFCURVE",
"198 510 OFFCURVE",
"131 491 CURVE",
"122 520 LINE",
"60 520 LINE",
"60 0 LINE"
);
}
);
width = 620;
}
);
unicode = 006D;
},
{
glyphname = n;
lastChange = "2016-08-11 09:49:33 +0000";
layers = (
{
background = {
paths = (
{
closed = 1;
nodes = (
"60 520 LINE",
"60 0 LINE",
"140 0 LINE",
"140 424 LINE",
"240 455 OFFCURVE",
"246 456 OFFCURVE",
"251 456 CURVE SMOOTH",
"274 456 OFFCURVE",
"275 437 OFFCURVE",
"275 404 CURVE SMOOTH",
"275 0 LINE",
"355 0 LINE",
"355 430 LINE SMOOTH",
"355 480 OFFCURVE",
"335 520 OFFCURVE",
"285 520 CURVE SMOOTH",
"243 520 OFFCURVE",
"200 503 OFFCURVE",
"133 484 CURVE",
"122 520 LINE"
);
}
);
};
hints = (
{
place = "{60, 80}";
},
{
place = "{275, 80}";
},
{
horizontal = 1;
place = "{456, 64}";
},
{
horizontal = 1;
place = "{0, 21}";
target = up;
type = BottomGhost;
}
);
layerId = UUID0;
paths = (
{
closed = 1;
nodes = (
"140 0 LINE",
"140 431 LINE",
"240 462 OFFCURVE",
"246 463 OFFCURVE",
"251 463 CURVE SMOOTH",
"274 463 OFFCURVE",
"275 444 OFFCURVE",
"275 411 CURVE SMOOTH",
"275 0 LINE",
"355 0 LINE",
"355 437 LINE SMOOTH",
"355 487 OFFCURVE",
"335 527 OFFCURVE",
"285 527 CURVE SMOOTH",
"243 527 OFFCURVE",
"198 510 OFFCURVE",
"131 491 CURVE",
"122 520 LINE",
"60 520 LINE",
"60 0 LINE"
);
}
);
width = 406;
}
);
unicode = 006E;
},
{
glyphname = ntilde;
lastChange = "2016-08-11 09:49:33 +0000";
layers = (
{
background = {
paths = (
{
closed = 1;
nodes = (
"135 613 OFFCURVE",
"138 600 OFFCURVE",
"134 580 CURVE",
"71 580 LINE",
"72 633 OFFCURVE",
"85 672 OFFCURVE",
"146 672 CURVE SMOOTH",
"168 672 OFFCURVE",
"236 639 OFFCURVE",
"259 639 CURVE SMOOTH",
"282 639 OFFCURVE",
"279 662 OFFCURVE",
"283 682 CURVE",
"346 682 LINE",
"345 629 OFFCURVE",
"342 580 OFFCURVE",
"271 580 CURVE SMOOTH",
"248 580 OFFCURVE",
"180 613 OFFCURVE",
"158 613 CURVE SMOOTH"
);
}
);
};
components = (
{
name = n;
}
);
hints = (
{
horizontal = 1;
place = "{580, 59}";
},
{
horizontal = 1;
place = "{613, 59}";
},
{
horizontal = 1;
place = "{682, -20}";
target = down;
type = TopGhost;
}
);
layerId = UUID0;
paths = (
{
closed = 1;
nodes = (
"134 580 LINE",
"138 600 OFFCURVE",
"135 613 OFFCURVE",
"158 613 CURVE SMOOTH",
"158 613 LINE SMOOTH",
"180 613 OFFCURVE",
"248 580 OFFCURVE",
"271 580 CURVE SMOOTH",
"342 580 OFFCURVE",
"345 629 OFFCURVE",
"346 682 CURVE",
"283 682 LINE",
"279 662 OFFCURVE",
"282 639 OFFCURVE",
"259 639 CURVE SMOOTH",
"236 639 OFFCURVE",
"168 672 OFFCURVE",
"146 672 CURVE SMOOTH",
"85 672 OFFCURVE",
"72 633 OFFCURVE",
"71 580 CURVE"
);
}
);
width = 406;
}
);
unicode = 00F1;
},
{
glyphname = o;
lastChange = "2016-08-11 09:49:33 +0000";
layers = (
{
background = {
paths = (
{
closed = 1;
nodes = (
"334 394 LINE SMOOTH",
"334 477 OFFCURVE",
"281 527 OFFCURVE",
"187 527 CURVE SMOOTH",
"93 527 OFFCURVE",
"40 477 OFFCURVE",
"40 394 CURVE SMOOTH",
"40 127 LINE SMOOTH",
"40 44 OFFCURVE",
"93 -7 OFFCURVE",
"187 -7 CURVE SMOOTH",
"281 -7 OFFCURVE",
"334 44 OFFCURVE",
"334 127 CURVE"
);
},
{
closed = 1;
nodes = (
"120 390 LINE SMOOTH",
"120 438 OFFCURVE",
"146 462 OFFCURVE",
"187 462 CURVE SMOOTH",
"228 462 OFFCURVE",
"254 438 OFFCURVE",
"254 390 CURVE SMOOTH",
"254 131 LINE SMOOTH",
"254 83 OFFCURVE",
"228 59 OFFCURVE",
"187 59 CURVE SMOOTH",
"146 59 OFFCURVE",
"120 83 OFFCURVE",
"120 131 CURVE"
);
}
);
};
hints = (
{
place = "{40, 80}";
},
{
place = "{254, 80}";
},
{
horizontal = 1;
place = "{-7, 66}";
},
{
horizontal = 1;
place = "{462, 65}";
}
);
layerId = UUID0;
paths = (
{
closed = 1;
nodes = (
"281 -7 OFFCURVE",
"334 44 OFFCURVE",
"334 127 CURVE",
"334 127 LINE",
"334 393 LINE SMOOTH",
"334 476 OFFCURVE",
"281 527 OFFCURVE",
"187 527 CURVE SMOOTH",
"93 527 OFFCURVE",
"40 476 OFFCURVE",
"40 393 CURVE SMOOTH",
"40 127 LINE SMOOTH",
"40 44 OFFCURVE",
"93 -7 OFFCURVE",
"187 -7 CURVE SMOOTH"
);
},
{
closed = 1;
nodes = (
"146 55 OFFCURVE",
"118 79 OFFCURVE",
"118 127 CURVE",
"118 127 LINE",
"118 393 LINE SMOOTH",
"118 441 OFFCURVE",
"146 465 OFFCURVE",
"187 465 CURVE SMOOTH",
"228 465 OFFCURVE",
"256 441 OFFCURVE",
"256 393 CURVE SMOOTH",
"256 127 LINE SMOOTH",
"256 79 OFFCURVE",
"228 55 OFFCURVE",
"187 55 CURVE SMOOTH"
);
}
);
width = 374;
}
);
leftKerningGroup = e;
unicode = 006F;
},
{
glyphname = oacute;
lastChange = "2016-08-11 09:49:33 +0000";
layers = (
{
background = {
paths = (
{
closed = 1;
nodes = (
"334 393 LINE SMOOTH",
"334 476 OFFCURVE",
"281 527 OFFCURVE",
"187 527 CURVE SMOOTH",
"93 527 OFFCURVE",
"40 476 OFFCURVE",
"40 393 CURVE SMOOTH",
"40 127 LINE SMOOTH",
"40 44 OFFCURVE",
"93 -7 OFFCURVE",
"187 -7 CURVE SMOOTH",
"281 -7 OFFCURVE",
"334 44 OFFCURVE",
"334 127 CURVE"
);
},
{
closed = 1;
nodes = (
"118 393 LINE SMOOTH",
"118 441 OFFCURVE",
"146 465 OFFCURVE",
"187 465 CURVE SMOOTH",
"228 465 OFFCURVE",
"256 441 OFFCURVE",
"256 393 CURVE SMOOTH",
"256 127 LINE SMOOTH",
"256 79 OFFCURVE",
"228 55 OFFCURVE",
"187 55 CURVE SMOOTH",
"146 55 OFFCURVE",
"118 79 OFFCURVE",
"118 127 CURVE"
);
},
{
closed = 1;
nodes = (
"155 589 LINE",
"271 688 LINE",
"322 641 LINE",
"188 559 LINE"
);
}
);
};
hints = (
{
place = "{40, 78}";
},
{
place = "{256, 78}";
},
{
horizontal = 1;
place = "{-7, 62}";
},
{
horizontal = 1;
place = "{465, 62}";
},
{
horizontal = 1;
place = "{688, -20}";
target = down;
type = TopGhost;
}
);
layerId = UUID0;
paths = (
{
closed = 1;
nodes = (
"281 -7 OFFCURVE",
"334 44 OFFCURVE",
"334 127 CURVE",
"334 127 LINE",
"334 393 LINE SMOOTH",
"334 476 OFFCURVE",
"281 527 OFFCURVE",
"187 527 CURVE SMOOTH",
"93 527 OFFCURVE",
"40 476 OFFCURVE",
"40 393 CURVE SMOOTH",
"40 127 LINE SMOOTH",
"40 44 OFFCURVE",
"93 -7 OFFCURVE",
"187 -7 CURVE SMOOTH"
);
},
{
closed = 1;
nodes = (
"146 55 OFFCURVE",
"118 79 OFFCURVE",
"118 127 CURVE",
"118 127 LINE",
"118 393 LINE SMOOTH",
"118 441 OFFCURVE",
"146 465 OFFCURVE",
"187 465 CURVE SMOOTH",
"228 465 OFFCURVE",
"256 441 OFFCURVE",
"256 393 CURVE SMOOTH",
"256 127 LINE SMOOTH",
"256 79 OFFCURVE",
"228 55 OFFCURVE",
"187 55 CURVE SMOOTH"
);
},
{
closed = 1;
nodes = (
"322 641 LINE",
"271 688 LINE",
"155 589 LINE",
"188 559 LINE"
);
}
);
width = 374;
}
);
leftKerningGroup = e;
unicode = 00F3;
},
{
glyphname = ocircumflex;
lastChange = "2016-08-11 09:49:33 +0000";
layers = (
{
background = {
paths = (
{
closed = 1;
nodes = (
"334 393 LINE SMOOTH",
"334 476 OFFCURVE",
"281 527 OFFCURVE",
"187 527 CURVE SMOOTH",
"93 527 OFFCURVE",
"40 476 OFFCURVE",
"40 393 CURVE SMOOTH",
"40 127 LINE SMOOTH",
"40 44 OFFCURVE",
"93 -7 OFFCURVE",
"187 -7 CURVE SMOOTH",
"281 -7 OFFCURVE",
"334 44 OFFCURVE",
"334 127 CURVE"
);
},
{
closed = 1;
nodes = (
"118 393 LINE SMOOTH",
"118 441 OFFCURVE",
"146 465 OFFCURVE",
"187 465 CURVE SMOOTH",
"228 465 OFFCURVE",
"256 441 OFFCURVE",
"256 393 CURVE SMOOTH",
"256 127 LINE SMOOTH",
"256 79 OFFCURVE",
"228 55 OFFCURVE",
"187 55 CURVE SMOOTH",
"146 55 OFFCURVE",
"118 79 OFFCURVE",
"118 127 CURVE"
);
},
{
closed = 1;
nodes = (
"73 614 LINE",
"122 576 LINE",
"187 628 LINE",
"252 576 LINE",
"301 614 LINE",
"187 701 LINE"
);
}
);
};
hints = (
{
place = "{40, 78}";
},
{
place = "{256, 78}";
},
{
horizontal = 1;
place = "{-7, 62}";
},
{
horizontal = 1;
place = "{465, 62}";
},
{
horizontal = 1;
place = "{701, -20}";
target = down;
type = TopGhost;
}
);
layerId = UUID0;
paths = (
{
closed = 1;
nodes = (
"281 -7 OFFCURVE",
"334 44 OFFCURVE",
"334 127 CURVE",
"334 127 LINE",
"334 393 LINE SMOOTH",
"334 476 OFFCURVE",
"281 527 OFFCURVE",
"187 527 CURVE SMOOTH",
"93 527 OFFCURVE",
"40 476 OFFCURVE",
"40 393 CURVE SMOOTH",
"40 127 LINE SMOOTH",
"40 44 OFFCURVE",
"93 -7 OFFCURVE",
"187 -7 CURVE SMOOTH"
);
},
{
closed = 1;
nodes = (
"146 55 OFFCURVE",
"118 79 OFFCURVE",
"118 127 CURVE",
"118 127 LINE",
"118 393 LINE SMOOTH",
"118 441 OFFCURVE",
"146 465 OFFCURVE",
"187 465 CURVE SMOOTH",
"228 465 OFFCURVE",
"256 441 OFFCURVE",
"256 393 CURVE SMOOTH",
"256 127 LINE SMOOTH",
"256 79 OFFCURVE",
"228 55 OFFCURVE",
"187 55 CURVE SMOOTH"
);
},
{
closed = 1;
nodes = (
"187 628 LINE",
"252 576 LINE",
"301 614 LINE",
"187 701 LINE",
"73 614 LINE",
"122 576 LINE"
);
}
);
width = 374;
}
);
leftKerningGroup = e;
unicode = 00F4;
},
{
glyphname = odieresis;
lastChange = "2016-08-11 09:49:33 +0000";
layers = (
{
background = {
paths = (
{
closed = 1;
nodes = (
"334 393 LINE SMOOTH",
"334 476 OFFCURVE",
"281 527 OFFCURVE",
"187 527 CURVE SMOOTH",
"93 527 OFFCURVE",
"40 476 OFFCURVE",
"40 393 CURVE SMOOTH",
"40 127 LINE SMOOTH",
"40 44 OFFCURVE",
"93 -7 OFFCURVE",
"187 -7 CURVE SMOOTH",
"281 -7 OFFCURVE",
"334 44 OFFCURVE",
"334 127 CURVE"
);
},
{
closed = 1;
nodes = (
"118 393 LINE SMOOTH",
"118 441 OFFCURVE",
"146 465 OFFCURVE",
"187 465 CURVE SMOOTH",
"228 465 OFFCURVE",
"256 441 OFFCURVE",
"256 393 CURVE SMOOTH",
"256 127 LINE SMOOTH",
"256 79 OFFCURVE",
"228 55 OFFCURVE",
"187 55 CURVE SMOOTH",
"146 55 OFFCURVE",
"118 79 OFFCURVE",
"118 127 CURVE"
);
},
{
closed = 1;
nodes = (
"72 599 LINE",
"152 599 LINE",
"152 679 LINE",
"72 679 LINE"
);
},
{
closed = 1;
nodes = (
"217 599 LINE",
"297 599 LINE",
"297 679 LINE",
"217 679 LINE"
);
}
);
};
hints = (
{
place = "{40, 78}";
},
{
place = "{72, 80}";
},
{
place = "{217, 80}";
},
{
place = "{256, 78}";
},
{
horizontal = 1;
place = "{-7, 62}";
},
{
horizontal = 1;
place = "{465, 62}";
},
{
horizontal = 1;
place = "{599, 80}";
}
);
layerId = UUID0;
paths = (
{
closed = 1;
nodes = (
"281 -7 OFFCURVE",
"334 44 OFFCURVE",
"334 127 CURVE",
"334 127 LINE",
"334 393 LINE SMOOTH",
"334 476 OFFCURVE",
"281 527 OFFCURVE",
"187 527 CURVE SMOOTH",
"93 527 OFFCURVE",
"40 476 OFFCURVE",
"40 393 CURVE SMOOTH",
"40 127 LINE SMOOTH",
"40 44 OFFCURVE",
"93 -7 OFFCURVE",
"187 -7 CURVE SMOOTH"
);
},
{
closed = 1;
nodes = (
"146 55 OFFCURVE",
"118 79 OFFCURVE",
"118 127 CURVE",
"118 127 LINE",
"118 393 LINE SMOOTH",
"118 441 OFFCURVE",
"146 465 OFFCURVE",
"187 465 CURVE SMOOTH",
"228 465 OFFCURVE",
"256 441 OFFCURVE",
"256 393 CURVE SMOOTH",
"256 127 LINE SMOOTH",
"256 79 OFFCURVE",
"228 55 OFFCURVE",
"187 55 CURVE SMOOTH"
);
},
{
closed = 1;
nodes = (
"152 599 LINE",
"152 679 LINE",
"72 679 LINE",
"72 599 LINE"
);
},
{
closed = 1;
nodes = (
"297 599 LINE",
"297 679 LINE",
"217 679 LINE",
"217 599 LINE"
);
}
);
width = 374;
}
);
leftKerningGroup = e;
unicode = 00F6;
},
{
glyphname = ograve;
lastChange = "2016-08-11 09:46:07 +0000";
layers = (
{
background = {
paths = (
{
closed = 1;
nodes = (
"334 393 LINE SMOOTH",
"334 476 OFFCURVE",
"281 527 OFFCURVE",
"187 527 CURVE SMOOTH",
"93 527 OFFCURVE",
"40 476 OFFCURVE",
"40 393 CURVE SMOOTH",
"40 127 LINE SMOOTH",
"40 44 OFFCURVE",
"93 -7 OFFCURVE",
"187 -7 CURVE SMOOTH",
"281 -7 OFFCURVE",
"334 44 OFFCURVE",
"334 127 CURVE"
);
},
{
closed = 1;
nodes = (
"118 393 LINE SMOOTH",
"118 441 OFFCURVE",
"146 465 OFFCURVE",
"187 465 CURVE SMOOTH",
"228 465 OFFCURVE",
"256 441 OFFCURVE",
"256 393 CURVE SMOOTH",
"256 127 LINE SMOOTH",
"256 79 OFFCURVE",
"228 55 OFFCURVE",
"187 55 CURVE SMOOTH",
"146 55 OFFCURVE",
"118 79 OFFCURVE",
"118 127 CURVE"
);
},
{
closed = 1;
nodes = (
"223 589 LINE",
"107 688 LINE",
"56 641 LINE",
"190 559 LINE"
);
}
);
};
components = (
{
name = o;
}
);
hints = (
{
place = "{40, 78}";
},
{
place = "{256, 78}";
},
{
horizontal = 1;
place = "{-7, 62}";
},
{
horizontal = 1;
place = "{465, 62}";
},
{
horizontal = 1;
place = "{688, -20}";
target = down;
type = TopGhost;
}
);
layerId = UUID0;
paths = (
{
closed = 1;
nodes = (
"223 589 LINE",
"107 688 LINE",
"56 641 LINE",
"190 559 LINE"
);
}
);
width = 374;
}
);
leftKerningGroup = e;
unicode = 00F2;
},
{
glyphname = oslash;
lastChange = "2016-08-11 09:49:33 +0000";
layers = (
{
background = {
paths = (
{
closed = 1;
nodes = (
"22 28 LINE",
"53 63 LINE",
"74 18 OFFCURVE",
"120 -7 OFFCURVE",
"187 -7 CURVE SMOOTH",
"281 -7 OFFCURVE",
"334 44 OFFCURVE",
"334 127 CURVE SMOOTH",
"334 378 LINE",
"408 461 LINE",
"356 497 LINE",
"321 457 LINE",
"300 502 OFFCURVE",
"254 528 OFFCURVE",
"187 528 CURVE SMOOTH",
"93 528 OFFCURVE",
"40 477 OFFCURVE",
"40 394 CURVE SMOOTH",
"40 142 LINE",
"-30 64 LINE"
);
},
{
closed = 1;
nodes = (
"118 230 LINE",
"118 394 LINE SMOOTH",
"118 442 OFFCURVE",
"146 466 OFFCURVE",
"187 466 CURVE SMOOTH",
"228 466 OFFCURVE",
"256 442 OFFCURVE",
"256 394 CURVE SMOOTH",
"256 385 LINE"
);
},
{
closed = 1;
nodes = (
"256 127 LINE SMOOTH",
"256 79 OFFCURVE",
"228 55 OFFCURVE",
"187 55 CURVE SMOOTH",
"146 55 OFFCURVE",
"118 79 OFFCURVE",
"118 127 CURVE SMOOTH",
"118 135 LINE",
"256 290 LINE"
);
}
);
};
hints = (
{
place = "{40, 78}";
},
{
place = "{256, 78}";
},
{
horizontal = 1;
place = "{-7, 62}";
},
{
horizontal = 1;
place = "{466, 62}";
}
);
layerId = UUID0;
paths = (
{
closed = 1;
nodes = (
"281 -7 OFFCURVE",
"334 44 OFFCURVE",
"334 127 CURVE SMOOTH",
"334 378 LINE",
"408 461 LINE",
"356 497 LINE",
"321 457 LINE",
"300 502 OFFCURVE",
"254 528 OFFCURVE",
"187 528 CURVE SMOOTH",
"93 528 OFFCURVE",
"40 477 OFFCURVE",
"40 394 CURVE SMOOTH",
"40 142 LINE",
"-30 64 LINE",
"22 28 LINE",
"53 63 LINE",
"74 18 OFFCURVE",
"120 -7 OFFCURVE",
"187 -7 CURVE SMOOTH"
);
},
{
closed = 1;
nodes = (
"146 55 OFFCURVE",
"118 79 OFFCURVE",
"118 127 CURVE SMOOTH",
"118 135 LINE",
"256 290 LINE",
"256 127 LINE SMOOTH",
"256 79 OFFCURVE",
"228 55 OFFCURVE",
"187 55 CURVE SMOOTH"
);
},
{
closed = 1;
nodes = (
"118 394 LINE SMOOTH",
"118 442 OFFCURVE",
"146 466 OFFCURVE",
"187 466 CURVE SMOOTH",
"228 466 OFFCURVE",
"256 442 OFFCURVE",
"256 394 CURVE SMOOTH",
"256 385 LINE",
"118 230 LINE"
);
}
);
width = 374;
}
);
leftKerningGroup = e;
unicode = 00F8;
},
{
glyphname = otilde;
lastChange = "2016-08-11 09:49:33 +0000";
layers = (
{
background = {
paths = (
{
closed = 1;
nodes = (
"334 393 LINE SMOOTH",
"334 476 OFFCURVE",
"281 527 OFFCURVE",
"187 527 CURVE SMOOTH",
"93 527 OFFCURVE",
"40 476 OFFCURVE",
"40 393 CURVE SMOOTH",
"40 127 LINE SMOOTH",
"40 44 OFFCURVE",
"93 -7 OFFCURVE",
"187 -7 CURVE SMOOTH",
"281 -7 OFFCURVE",
"334 44 OFFCURVE",
"334 127 CURVE"
);
},
{
closed = 1;
nodes = (
"118 393 LINE SMOOTH",
"118 441 OFFCURVE",
"146 465 OFFCURVE",
"187 465 CURVE SMOOTH",
"228 465 OFFCURVE",
"256 441 OFFCURVE",
"256 393 CURVE SMOOTH",
"256 127 LINE SMOOTH",
"256 79 OFFCURVE",
"228 55 OFFCURVE",
"187 55 CURVE SMOOTH",
"146 55 OFFCURVE",
"118 79 OFFCURVE",
"118 127 CURVE"
);
},
{
closed = 1;
nodes = (
"110 603 OFFCURVE",
"113 590 OFFCURVE",
"109 570 CURVE",
"46 570 LINE",
"47 623 OFFCURVE",
"60 662 OFFCURVE",
"121 662 CURVE SMOOTH",
"143 662 OFFCURVE",
"231 629 OFFCURVE",
"254 629 CURVE SMOOTH",
"277 629 OFFCURVE",
"274 652 OFFCURVE",
"278 672 CURVE",
"341 672 LINE",
"340 619 OFFCURVE",
"337 570 OFFCURVE",
"266 570 CURVE SMOOTH",
"243 570 OFFCURVE",
"155 603 OFFCURVE",
"133 603 CURVE SMOOTH"
);
}
);
};
hints = (
{
place = "{40, 78}";
},
{
place = "{256, 78}";
},
{
place = "{118, 138}";
},
{
horizontal = 1;
place = "{-7, 62}";
},
{
horizontal = 1;
place = "{465, 62}";
},
{
horizontal = 1;
place = "{603, 59}";
},
{
horizontal = 1;
place = "{570, 59}";
},
{
horizontal = 1;
place = "{672, -20}";
target = down;
type = TopGhost;
}
);
layerId = UUID0;
paths = (
{
closed = 1;
nodes = (
"281 -7 OFFCURVE",
"334 44 OFFCURVE",
"334 127 CURVE",
"334 127 LINE",
"334 393 LINE SMOOTH",
"334 476 OFFCURVE",
"281 527 OFFCURVE",
"187 527 CURVE SMOOTH",
"93 527 OFFCURVE",
"40 476 OFFCURVE",
"40 393 CURVE SMOOTH",
"40 127 LINE SMOOTH",
"40 44 OFFCURVE",
"93 -7 OFFCURVE",
"187 -7 CURVE SMOOTH"
);
},
{
closed = 1;
nodes = (
"146 55 OFFCURVE",
"118 79 OFFCURVE",
"118 127 CURVE",
"118 127 LINE",
"118 393 LINE SMOOTH",
"118 441 OFFCURVE",
"146 465 OFFCURVE",
"187 465 CURVE SMOOTH",
"228 465 OFFCURVE",
"256 441 OFFCURVE",
"256 393 CURVE SMOOTH",
"256 127 LINE SMOOTH",
"256 79 OFFCURVE",
"228 55 OFFCURVE",
"187 55 CURVE SMOOTH"
);
},
{
closed = 1;
nodes = (
"109 570 LINE",
"113 590 OFFCURVE",
"110 603 OFFCURVE",
"133 603 CURVE SMOOTH",
"133 603 LINE SMOOTH",
"155 603 OFFCURVE",
"243 570 OFFCURVE",
"266 570 CURVE SMOOTH",
"337 570 OFFCURVE",
"340 619 OFFCURVE",
"341 672 CURVE",
"278 672 LINE",
"274 652 OFFCURVE",
"277 629 OFFCURVE",
"254 629 CURVE SMOOTH",
"231 629 OFFCURVE",
"143 662 OFFCURVE",
"121 662 CURVE SMOOTH",
"60 662 OFFCURVE",
"47 623 OFFCURVE",
"46 570 CURVE"
);
}
);
width = 374;
}
);
leftKerningGroup = e;
unicode = 00F5;
},
{
glyphname = oe;
lastChange = "2016-08-11 09:49:33 +0000";
layers = (
{
background = {
paths = (
{
closed = 1;
nodes = (
"377 520 LINE SMOOTH",
"344 520 OFFCURVE",
"317 508 OFFCURVE",
"298 489 CURVE",
"273 513 OFFCURVE",
"235 527 OFFCURVE",
"187 527 CURVE SMOOTH",
"93 527 OFFCURVE",
"40 477 OFFCURVE",
"40 394 CURVE SMOOTH",
"40 127 LINE SMOOTH",
"40 44 OFFCURVE",
"93 -7 OFFCURVE",
"187 -7 CURVE SMOOTH",
"236 -7 OFFCURVE",
"274 7 OFFCURVE",
"299 32 CURVE",
"320 11 OFFCURVE",
"350 0 OFFCURVE",
"387 0 CURVE SMOOTH",
"502 0 LINE",
"502 60 LINE",
"393 60 LINE SMOOTH",
"362 60 OFFCURVE",
"341 84 OFFCURVE",
"341 115 CURVE SMOOTH",
"341 213 LINE",
"459 246 LINE SMOOTH",
"503 258 OFFCURVE",
"546 281 OFFCURVE",
"546 342 CURVE SMOOTH",
"546 414 LINE SMOOTH",
"546 480 OFFCURVE",
"495 520 OFFCURVE",
"429 520 CURVE SMOOTH"
);
},
{
closed = 1;
nodes = (
"120 390 LINE SMOOTH",
"120 438 OFFCURVE",
"146 462 OFFCURVE",
"187 462 CURVE SMOOTH",
"228 462 OFFCURVE",
"254 438 OFFCURVE",
"254 390 CURVE SMOOTH",
"254 131 LINE SMOOTH",
"254 83 OFFCURVE",
"228 59 OFFCURVE",
"187 59 CURVE SMOOTH",
"146 59 OFFCURVE",
"120 83 OFFCURVE",
"120 131 CURVE"
);
},
{
closed = 1;
nodes = (
"443 464 OFFCURVE",
"473 453 OFFCURVE",
"473 409 CURVE SMOOTH",
"473 343 LINE SMOOTH",
"473 291 OFFCURVE",
"457 303 OFFCURVE",
"341 269 CURVE",
"341 409 LINE SMOOTH",
"341 453 OFFCURVE",
"371 464 OFFCURVE",
"407 464 CURVE SMOOTH"
);
}
);
};
hints = (
{
place = "{40, 80}";
},
{
place = "{254, 87}";
},
{
place = "{473, 73}";
},
{
horizontal = 1;
place = "{-7, 67}";
},
{
horizontal = 1;
place = "{462, 65}";
},
{
horizontal = 1;
place = "{520, -20}";
target = down;
type = TopGhost;
},
{
horizontal = 1;
place = "{0, 21}";
target = up;
type = BottomGhost;
}
);
layerId = UUID0;
paths = (
{
closed = 1;
nodes = (
"236 -7 OFFCURVE",
"274 7 OFFCURVE",
"299 32 CURVE",
"320 11 OFFCURVE",
"350 0 OFFCURVE",
"387 0 CURVE SMOOTH",
"502 0 LINE",
"502 60 LINE",
"393 60 LINE SMOOTH",
"362 60 OFFCURVE",
"341 84 OFFCURVE",
"341 115 CURVE SMOOTH",
"341 213 LINE",
"459 246 LINE SMOOTH",
"503 258 OFFCURVE",
"546 281 OFFCURVE",
"546 342 CURVE SMOOTH",
"546 414 LINE SMOOTH",
"546 480 OFFCURVE",
"495 520 OFFCURVE",
"429 520 CURVE SMOOTH",
"377 520 LINE SMOOTH",
"344 520 OFFCURVE",
"317 508 OFFCURVE",
"298 489 CURVE",
"273 513 OFFCURVE",
"235 527 OFFCURVE",
"187 527 CURVE SMOOTH",
"93 527 OFFCURVE",
"40 477 OFFCURVE",
"40 394 CURVE SMOOTH",
"40 127 LINE SMOOTH",
"40 44 OFFCURVE",
"93 -7 OFFCURVE",
"187 -7 CURVE SMOOTH"
);
},
{
closed = 1;
nodes = (
"146 59 OFFCURVE",
"120 83 OFFCURVE",
"120 131 CURVE",
"120 131 LINE",
"120 390 LINE SMOOTH",
"120 438 OFFCURVE",
"146 462 OFFCURVE",
"187 462 CURVE SMOOTH",
"228 462 OFFCURVE",
"254 438 OFFCURVE",
"254 390 CURVE SMOOTH",
"254 131 LINE SMOOTH",
"254 83 OFFCURVE",
"228 59 OFFCURVE",
"187 59 CURVE SMOOTH"
);
},
{
closed = 1;
nodes = (
"341 409 LINE SMOOTH",
"341 453 OFFCURVE",
"371 464 OFFCURVE",
"407 464 CURVE SMOOTH",
"407 464 LINE SMOOTH",
"443 464 OFFCURVE",
"473 453 OFFCURVE",
"473 409 CURVE SMOOTH",
"473 343 LINE SMOOTH",
"473 291 OFFCURVE",
"457 303 OFFCURVE",
"341 269 CURVE"
);
}
);
width = 566;
}
);
leftKerningGroup = e;
unicode = 0153;
},
{
glyphname = p;
lastChange = "2016-08-11 09:49:33 +0000";
layers = (
{
background = {
paths = (
{
closed = 1;
nodes = (
"140 -160 LINE",
"140 0 LINE",
"223 0 LINE SMOOTH",
"296 0 OFFCURVE",
"354 52 OFFCURVE",
"354 125 CURVE SMOOTH",
"354 394 LINE SMOOTH",
"354 467 OFFCURVE",
"295 520 OFFCURVE",
"222 520 CURVE SMOOTH",
"60 520 LINE",
"60 -160 LINE"
);
},
{
closed = 1;
nodes = (
"206 460 LINE SMOOTH",
"243 460 OFFCURVE",
"274 432 OFFCURVE",
"274 394 CURVE SMOOTH",
"274 125 LINE SMOOTH",
"274 87 OFFCURVE",
"243 59 OFFCURVE",
"206 59 CURVE SMOOTH",
"140 59 LINE",
"140 460 LINE"
);
}
);
};
hints = (
{
place = "{60, 80}";
},
{
place = "{274, 80}";
},
{
horizontal = 1;
place = "{0, 59}";
},
{
horizontal = 1;
place = "{460, 60}";
},
{
horizontal = 1;
place = "{-160, 21}";
target = up;
type = BottomGhost;
}
);
layerId = UUID0;
paths = (
{
closed = 1;
nodes = (
"140 -160 LINE",
"140 0 LINE",
"223 0 LINE SMOOTH",
"296 0 OFFCURVE",
"354 52 OFFCURVE",
"354 125 CURVE SMOOTH",
"354 394 LINE SMOOTH",
"354 467 OFFCURVE",
"295 520 OFFCURVE",
"222 520 CURVE SMOOTH",
"60 520 LINE",
"60 -160 LINE"
);
},
{
closed = 1;
nodes = (
"140 460 LINE",
"206 460 LINE SMOOTH",
"243 460 OFFCURVE",
"274 432 OFFCURVE",
"274 394 CURVE SMOOTH",
"274 125 LINE SMOOTH",
"274 87 OFFCURVE",
"243 59 OFFCURVE",
"206 59 CURVE SMOOTH",
"140 59 LINE"
);
}
);
width = 389;
}
);
unicode = 0070;
},
{
glyphname = thorn;
lastChange = "2016-08-11 09:49:33 +0000";
layers = (
{
background = {
paths = (
{
closed = 1;
nodes = (
"140 0 LINE",
"224 0 LINE SMOOTH",
"297 0 OFFCURVE",
"355 53 OFFCURVE",
"355 126 CURVE SMOOTH",
"355 383 LINE SMOOTH",
"355 444 OFFCURVE",
"315 482 OFFCURVE",
"273 497 CURVE SMOOTH",
"140 544 LINE",
"140 700 LINE",
"60 700 LINE",
"60 -160 LINE",
"140 -160 LINE"
);
},
{
closed = 1;
nodes = (
"140 471 LINE",
"229 441 LINE SMOOTH",
"263 430 OFFCURVE",
"276 412 OFFCURVE",
"276 360 CURVE SMOOTH",
"276 126 LINE SMOOTH",
"276 88 OFFCURVE",
"245 60 OFFCURVE",
"208 60 CURVE SMOOTH",
"140 60 LINE"
);
}
);
};
hints = (
{
place = "{60, 80}";
},
{
place = "{276, 79}";
},
{
horizontal = 1;
place = "{0, 60}";
},
{
horizontal = 1;
place = "{700, -20}";
target = down;
type = TopGhost;
},
{
horizontal = 1;
place = "{-160, 21}";
target = up;
type = BottomGhost;
}
);
layerId = UUID0;
paths = (
{
closed = 1;
nodes = (
"140 -160 LINE",
"140 0 LINE",
"224 0 LINE SMOOTH",
"297 0 OFFCURVE",
"355 53 OFFCURVE",
"355 126 CURVE SMOOTH",
"355 383 LINE SMOOTH",
"355 444 OFFCURVE",
"315 482 OFFCURVE",
"273 497 CURVE SMOOTH",
"140 544 LINE",
"140 700 LINE",
"60 700 LINE",
"60 -160 LINE"
);
},
{
closed = 1;
nodes = (
"140 478 LINE",
"229 448 LINE SMOOTH",
"263 437 OFFCURVE",
"276 419 OFFCURVE",
"276 367 CURVE SMOOTH",
"276 126 LINE SMOOTH",
"276 88 OFFCURVE",
"245 60 OFFCURVE",
"208 60 CURVE SMOOTH",
"140 60 LINE"
);
}
);
width = 390;
}
);
unicode = 00FE;
},
{
glyphname = q;
lastChange = "2016-08-11 09:49:33 +0000";
layers = (
{
background = {
paths = (
{
closed = 1;
nodes = (
"336 -160 LINE",
"336 520 LINE",
"173 520 LINE SMOOTH",
"100 520 OFFCURVE",
"41 467 OFFCURVE",
"41 394 CURVE SMOOTH",
"41 125 LINE SMOOTH",
"41 52 OFFCURVE",
"99 0 OFFCURVE",
"172 0 CURVE SMOOTH",
"255 0 LINE",
"255 -160 LINE"
);
},
{
closed = 1;
nodes = (
"256 460 LINE",
"256 60 LINE",
"189 60 LINE SMOOTH",
"152 60 OFFCURVE",
"121 88 OFFCURVE",
"121 126 CURVE SMOOTH",
"121 394 LINE SMOOTH",
"121 432 OFFCURVE",
"152 460 OFFCURVE",
"189 460 CURVE SMOOTH"
);
}
);
};
hints = (
{
place = "{41, 80}";
},
{
place = "{256, 80}";
},
{
horizontal = 1;
place = "{0, 60}";
},
{
horizontal = 1;
place = "{460, 60}";
},
{
horizontal = 1;
place = "{-160, 21}";
target = up;
type = BottomGhost;
}
);
layerId = UUID0;
paths = (
{
closed = 1;
nodes = (
"336 -160 LINE",
"336 520 LINE",
"173 520 LINE SMOOTH",
"100 520 OFFCURVE",
"41 467 OFFCURVE",
"41 394 CURVE SMOOTH",
"41 125 LINE SMOOTH",
"41 52 OFFCURVE",
"99 0 OFFCURVE",
"172 0 CURVE SMOOTH",
"255 0 LINE",
"255 -160 LINE"
);
},
{
closed = 1;
nodes = (
"152 60 OFFCURVE",
"121 88 OFFCURVE",
"121 126 CURVE SMOOTH",
"121 394 LINE SMOOTH",
"121 432 OFFCURVE",
"152 460 OFFCURVE",
"189 460 CURVE SMOOTH",
"256 460 LINE",
"256 60 LINE",
"189 60 LINE SMOOTH"
);
}
);
width = 396;
}
);
unicode = 0071;
},
{
glyphname = r;
lastChange = "2016-08-11 09:49:33 +0000";
layers = (
{
background = {
paths = (
{
closed = 1;
nodes = (
"253 460 LINE",
"239 460 OFFCURVE",
"223 458 OFFCURVE",
"140 418 CURVE",
"140 0 LINE",
"60 0 LINE",
"60 520 LINE",
"122 520 LINE",
"133 475 LINE",
"174 494 OFFCURVE",
"211 519 OFFCURVE",
"253 519 CURVE"
);
}
);
};
hints = (
{
place = "{60, 80}";
},
{
horizontal = 1;
place = "{519, -20}";
target = down;
type = TopGhost;
},
{
horizontal = 1;
place = "{520, -20}";
target = down;
type = TopGhost;
},
{
horizontal = 1;
place = "{0, 21}";
target = up;
type = BottomGhost;
}
);
layerId = UUID0;
paths = (
{
closed = 1;
nodes = (
"140 0 LINE",
"140 426 LINE",
"223 466 OFFCURVE",
"239 468 OFFCURVE",
"253 468 CURVE",
"253 527 LINE",
"211 527 OFFCURVE",
"172 502 OFFCURVE",
"131 483 CURVE",
"122 520 LINE",
"60 520 LINE",
"60 0 LINE"
);
}
);
width = 268;
}
);
unicode = 0072;
},
{
glyphname = rcommaaccent;
lastChange = "2016-08-11 09:49:33 +0000";
layers = (
{
background = {
paths = (
{
closed = 1;
nodes = (
"136 -50 LINE",
"64 -50 LINE",
"64 -204 LINE",
"131 -204 LINE"
);
}
);
};
components = (
{
name = r;
}
);
hints = (
{
place = "{64, 69}";
},
{
horizontal = 1;
place = "{-204, 154}";
}
);
layerId = UUID0;
paths = (
{
closed = 1;
nodes = (
"131 -204 LINE",
"136 -50 LINE",
"64 -50 LINE",
"64 -204 LINE"
);
}
);
width = 268;
}
);
unicode = 0157;
},
{
glyphname = s;
lastChange = "2016-08-11 09:49:33 +0000";
layers = (
{
background = {
paths = (
{
closed = 1;
nodes = (
"197 293 OFFCURVE",
"30 245 OFFCURVE",
"30 398 CURVE SMOOTH",
"30 467 OFFCURVE",
"80 520 OFFCURVE",
"161 520 CURVE SMOOTH",
"238 520 LINE",
"238 460 LINE",
"176 460 LINE SMOOTH",
"125 460 OFFCURVE",
"105 435 OFFCURVE",
"105 393 CURVE SMOOTH",
"105 299 OFFCURVE",
"270 313 OFFCURVE",
"270 141 CURVE SMOOTH",
"270 45 OFFCURVE",
"216 0 OFFCURVE",
"127 0 CURVE SMOOTH",
"50 0 LINE",
"50 60 LINE",
"115 60 LINE SMOOTH",
"176 60 OFFCURVE",
"197 99 OFFCURVE",
"197 145 CURVE SMOOTH"
);
},
{
closed = 1;
nodes = (
"197 243 OFFCURVE",
"30 255 OFFCURVE",
"30 398 CURVE SMOOTH",
"30 467 OFFCURVE",
"80 520 OFFCURVE",
"161 520 CURVE SMOOTH",
"248 520 LINE",
"248 460 LINE",
"176 460 LINE SMOOTH",
"125 460 OFFCURVE",
"105 435 OFFCURVE",
"105 393 CURVE SMOOTH",
"105 304 OFFCURVE",
"270 293 OFFCURVE",
"270 141 CURVE SMOOTH",
"270 45 OFFCURVE",
"216 0 OFFCURVE",
"127 0 CURVE SMOOTH",
"20 0 LINE",
"20 60 LINE",
"115 60 LINE SMOOTH",
"176 60 OFFCURVE",
"197 99 OFFCURVE",
"197 145 CURVE SMOOTH"
);
}
);
};
hints = (
{
place = "{30, 75}";
},
{
place = "{197, 73}";
},
{
place = "{30, 218}";
},
{
horizontal = 1;
place = "{0, 60}";
},
{
horizontal = 1;
place = "{460, 60}";
}
);
layerId = UUID0;
paths = (
{
closed = 1;
nodes = (
"127 0 LINE SMOOTH",
"216 0 OFFCURVE",
"270 45 OFFCURVE",
"270 141 CURVE SMOOTH",
"270 293 OFFCURVE",
"105 304 OFFCURVE",
"105 393 CURVE SMOOTH",
"105 435 OFFCURVE",
"125 460 OFFCURVE",
"176 460 CURVE SMOOTH",
"248 460 LINE",
"248 520 LINE",
"161 520 LINE SMOOTH",
"80 520 OFFCURVE",
"30 467 OFFCURVE",
"30 398 CURVE SMOOTH",
"30 255 OFFCURVE",
"197 243 OFFCURVE",
"197 145 CURVE SMOOTH",
"197 145 LINE SMOOTH",
"197 99 OFFCURVE",
"176 60 OFFCURVE",
"115 60 CURVE SMOOTH",
"30 60 LINE",
"30 0 LINE"
);
}
);
width = 300;
}
);
unicode = 0073;
},
{
glyphname = germandbls;
lastChange = "2016-08-11 09:49:33 +0000";
layers = (
{
background = {
paths = (
{
closed = 1;
nodes = (
"436 391 OFFCURVE",
"327 409 OFFCURVE",
"327 345 CURVE SMOOTH",
"327 284 OFFCURVE",
"443 276 OFFCURVE",
"443 140 CURVE SMOOTH",
"443 44 OFFCURVE",
"389 0 OFFCURVE",
"300 0 CURVE SMOOTH",
"213 0 LINE",
"213 65 LINE",
"285 65 LINE SMOOTH",
"346 65 OFFCURVE",
"367 104 OFFCURVE",
"367 150 CURVE SMOOTH",
"367 234 OFFCURVE",
"247 252 OFFCURVE",
"247 348 CURVE SMOOTH",
"247 444 OFFCURVE",
"356 419 OFFCURVE",
"356 548 CURVE SMOOTH",
"356 613 OFFCURVE",
"306 641 OFFCURVE",
"251 641 CURVE SMOOTH",
"196 641 OFFCURVE",
"141 613 OFFCURVE",
"141 548 CURVE SMOOTH",
"141 0 LINE",
"61 0 LINE",
"61 527 LINE SMOOTH",
"61 639 OFFCURVE",
"126 707 OFFCURVE",
"252 707 CURVE SMOOTH",
"379 707 OFFCURVE",
"436 639 OFFCURVE",
"436 527 CURVE SMOOTH"
);
}
);
};
hints = (
{
place = "{61, 80}";
},
{
place = "{193, 210}";
},
{
place = "{207, 80}";
},
{
place = "{316, 87}";
},
{
horizontal = 1;
place = "{0, 60}";
},
{
horizontal = 1;
place = "{641, 66}";
}
);
layerId = UUID0;
paths = (
{
closed = 1;
nodes = (
"141 0 LINE",
"141 548 LINE SMOOTH",
"141 613 OFFCURVE",
"186 641 OFFCURVE",
"231 641 CURVE SMOOTH",
"284 641 OFFCURVE",
"316 603 OFFCURVE",
"316 548 CURVE SMOOTH",
"316 449 OFFCURVE",
"207 424 OFFCURVE",
"207 348 CURVE SMOOTH",
"207 252 OFFCURVE",
"327 214 OFFCURVE",
"327 150 CURVE SMOOTH",
"327 101 OFFCURVE",
"306 60 OFFCURVE",
"245 60 CURVE SMOOTH",
"193 60 LINE",
"193 0 LINE",
"260 0 LINE SMOOTH",
"349 0 OFFCURVE",
"403 44 OFFCURVE",
"403 140 CURVE SMOOTH",
"403 256 OFFCURVE",
"287 284 OFFCURVE",
"287 345 CURVE SMOOTH",
"287 399 OFFCURVE",
"396 441 OFFCURVE",
"396 537 CURVE SMOOTH",
"396 537 LINE SMOOTH",
"396 639 OFFCURVE",
"337 707 OFFCURVE",
"232 707 CURVE SMOOTH",
"120 707 OFFCURVE",
"61 639 OFFCURVE",
"61 527 CURVE SMOOTH",
"61 0 LINE"
);
}
);
width = 433;
}
);
unicode = 00DF;
},
{
glyphname = t;
lastChange = "2016-08-11 09:49:33 +0000";
layers = (
{
background = {
paths = (
{
closed = 1;
nodes = (
"204 -1 LINE",
"233 -1 LINE"
);
},
{
closed = 1;
nodes = (
"166 460 LINE",
"246 460 LINE",
"246 520 LINE",
"166 520 LINE",
"166 701 LINE",
"86 671 LINE",
"86 520 LINE",
"26 520 LINE",
"26 460 LINE",
"86 460 LINE",
"86 122 LINE SMOOTH",
"86 48 OFFCURVE",
"131 0 OFFCURVE",
"205 0 CURVE SMOOTH",
"246 0 LINE",
"246 60 LINE",
"216 60 LINE SMOOTH",
"185 60 OFFCURVE",
"166 84 OFFCURVE",
"166 115 CURVE SMOOTH"
);
}
);
};
hints = (
{
place = "{26, 220}";
},
{
place = "{86, 80}";
},
{
place = "{86, 160}";
},
{
horizontal = 1;
place = "{0, 60}";
},
{
horizontal = 1;
place = "{460, 60}";
},
{
horizontal = 1;
place = "{701, -20}";
target = down;
type = TopGhost;
}
);
layerId = UUID0;
paths = (
{
closed = 1;
nodes = (
"246 0 LINE",
"246 60 LINE",
"216 60 LINE SMOOTH",
"185 60 OFFCURVE",
"166 84 OFFCURVE",
"166 115 CURVE SMOOTH",
"166 460 LINE",
"246 460 LINE",
"246 520 LINE",
"166 520 LINE",
"166 701 LINE",
"86 671 LINE",
"86 520 LINE",
"26 520 LINE",
"26 460 LINE",
"86 460 LINE",
"86 122 LINE SMOOTH",
"86 48 OFFCURVE",
"131 0 OFFCURVE",
"205 0 CURVE SMOOTH"
);
}
);
width = 266;
}
);
unicode = 0074;
},
{
glyphname = u;
lastChange = "2016-08-11 09:49:33 +0000";
layers = (
{
background = {
paths = (
{
closed = 1;
nodes = (
"346 0 LINE",
"346 520 LINE",
"266 520 LINE",
"266 94 LINE",
"164 65 OFFCURVE",
"158 64 OFFCURVE",
"153 64 CURVE SMOOTH",
"131 64 OFFCURVE",
"130 84 OFFCURVE",
"130 116 CURVE SMOOTH",
"130 520 LINE",
"50 520 LINE",
"50 90 LINE SMOOTH",
"50 40 OFFCURVE",
"71 0 OFFCURVE",
"121 0 CURVE SMOOTH",
"163 0 OFFCURVE",
"213 21 OFFCURVE",
"271 41 CURVE",
"289 0 LINE"
);
}
);
};
hints = (
{
place = "{50, 80}";
},
{
place = "{266, 80}";
},
{
horizontal = 1;
place = "{0, 64}";
},
{
horizontal = 1;
place = "{520, -20}";
target = down;
type = TopGhost;
}
);
layerId = UUID0;
paths = (
{
closed = 1;
nodes = (
"163 -7 OFFCURVE",
"216 14 OFFCURVE",
"274 34 CURVE",
"289 0 LINE",
"346 0 LINE",
"346 520 LINE",
"266 520 LINE",
"266 87 LINE",
"164 58 OFFCURVE",
"158 57 OFFCURVE",
"153 57 CURVE SMOOTH",
"131 57 OFFCURVE",
"130 77 OFFCURVE",
"130 109 CURVE SMOOTH",
"130 520 LINE",
"50 520 LINE",
"50 83 LINE SMOOTH",
"50 33 OFFCURVE",
"71 -7 OFFCURVE",
"121 -7 CURVE SMOOTH"
);
}
);
width = 406;
}
);
unicode = 0075;
},
{
glyphname = uacute;
lastChange = "2016-08-11 09:49:33 +0000";
layers = (
{
background = {
paths = (
{
closed = 1;
nodes = (
"158 589 LINE",
"274 688 LINE",
"325 641 LINE",
"191 559 LINE"
);
}
);
};
components = (
{
name = u;
}
);
hints = (
{
horizontal = 1;
place = "{559, 21}";
target = up;
type = BottomGhost;
},
{
horizontal = 1;
place = "{688, -20}";
target = down;
type = TopGhost;
}
);
layerId = UUID0;
paths = (
{
closed = 1;
nodes = (
"325 641 LINE",
"274 688 LINE",
"158 589 LINE",
"191 559 LINE"
);
}
);
width = 406;
}
);
unicode = 00FA;
},
{
glyphname = ucircumflex;
lastChange = "2016-08-11 09:49:33 +0000";
layers = (
{
background = {
paths = (
{
closed = 1;
nodes = (
"68 614 LINE",
"117 576 LINE",
"182 628 LINE",
"247 576 LINE",
"296 614 LINE",
"182 701 LINE"
);
}
);
};
components = (
{
name = u;
}
);
hints = (
{
horizontal = 1;
place = "{576, 21}";
target = up;
type = BottomGhost;
},
{
horizontal = 1;
place = "{701, -20}";
target = down;
type = TopGhost;
}
);
layerId = UUID0;
paths = (
{
closed = 1;
nodes = (
"182 628 LINE",
"247 576 LINE",
"296 614 LINE",
"182 701 LINE",
"68 614 LINE",
"117 576 LINE"
);
}
);
width = 406;
}
);
unicode = 00FB;
},
{
glyphname = udieresis;
lastChange = "2016-08-11 09:49:33 +0000";
layers = (
{
background = {
paths = (
{
closed = 1;
nodes = (
"85 599 LINE",
"165 599 LINE",
"165 679 LINE",
"85 679 LINE"
);
},
{
closed = 1;
nodes = (
"230 599 LINE",
"310 599 LINE",
"310 679 LINE",
"230 679 LINE"
);
}
);
};
components = (
{
name = u;
}
);
hints = (
{
place = "{85, 80}";
},
{
place = "{230, 80}";
},
{
horizontal = 1;
place = "{599, 80}";
}
);
layerId = UUID0;
paths = (
{
closed = 1;
nodes = (
"310 599 LINE",
"310 679 LINE",
"230 679 LINE",
"230 599 LINE"
);
},
{
closed = 1;
nodes = (
"165 599 LINE",
"165 679 LINE",
"85 679 LINE",
"85 599 LINE"
);
}
);
width = 406;
}
);
unicode = 00FC;
},
{
glyphname = ugrave;
lastChange = "2016-08-11 09:46:07 +0000";
layers = (
{
background = {
paths = (
{
closed = 1;
nodes = (
"235 589 LINE",
"119 688 LINE",
"68 641 LINE",
"202 559 LINE"
);
}
);
};
components = (
{
name = u;
}
);
hints = (
{
horizontal = 1;
place = "{688, -20}";
target = down;
type = TopGhost;
},
{
horizontal = 1;
place = "{559, 21}";
target = up;
type = BottomGhost;
}
);
layerId = UUID0;
paths = (
{
closed = 1;
nodes = (
"235 589 LINE",
"119 688 LINE",
"68 641 LINE",
"202 559 LINE"
);
}
);
width = 406;
}
);
unicode = 00F9;
},
{
glyphname = v;
lastChange = "2016-08-11 09:49:33 +0000";
layers = (
{
background = {
paths = (
{
closed = 1;
nodes = (
"254 520 LINE",
"334 520 LINE",
"222 0 LINE",
"142 0 LINE",
"15 520 LINE",
"98 520 LINE",
"157 247 LINE",
"182 111 LINE",
"204 249 LINE"
);
},
{
closed = 1;
nodes = (
"145 249 LINE",
"167 111 LINE",
"192 247 LINE",
"251 520 LINE",
"334 520 LINE",
"207 0 LINE",
"127 0 LINE",
"15 520 LINE",
"95 520 LINE"
);
},
{
closed = 1;
nodes = (
"175 111 LINE",
"98 520 LINE",
"15 520 LINE",
"134 0 LINE",
"215 0 LINE",
"334 520 LINE",
"251 520 LINE"
);
}
);
};
hints = (
{
horizontal = 1;
place = "{520, -20}";
target = down;
type = TopGhost;
},
{
horizontal = 1;
place = "{0, 21}";
target = up;
type = BottomGhost;
}
);
layerId = UUID0;
paths = (
{
closed = 1;
nodes = (
"215 0 LINE",
"334 520 LINE",
"251 520 LINE",
"175 101 LINE",
"98 520 LINE",
"15 520 LINE",
"134 0 LINE"
);
}
);
width = 349;
}
);
leftKerningGroup = v;
unicode = 0076;
},
{
glyphname = w;
lastChange = "2016-08-11 09:49:33 +0000";
layers = (
{
background = {
paths = (
{
closed = 1;
nodes = (
"302 387 LINE",
"354 104 LINE",
"417 520 LINE",
"492 520 LINE",
"397 0 LINE",
"315 0 LINE",
"256 313 LINE",
"197 0 LINE",
"115 0 LINE",
"20 520 LINE",
"95 520 LINE",
"158 104 LINE",
"210 387 LINE"
);
}
);
};
hints = (
{
horizontal = 1;
place = "{520, -20}";
target = down;
type = TopGhost;
},
{
horizontal = 1;
place = "{0, 21}";
target = up;
type = BottomGhost;
}
);
layerId = UUID0;
paths = (
{
closed = 1;
nodes = (
"197 0 LINE",
"256 313 LINE",
"315 0 LINE",
"397 0 LINE",
"492 520 LINE",
"412 520 LINE",
"354 84 LINE",
"307 387 LINE",
"205 387 LINE",
"158 84 LINE",
"100 520 LINE",
"20 520 LINE",
"115 0 LINE"
);
}
);
width = 507;
}
);
leftKerningGroup = v;
unicode = 0077;
},
{
glyphname = x;
lastChange = "2016-08-11 09:49:33 +0000";
layers = (
{
background = {
paths = (
{
closed = 1;
nodes = (
"229 261 LINE",
"373 0 LINE",
"289 0 LINE",
"191 190 LINE",
"94 0 LINE",
"10 0 LINE",
"154 261 LINE",
"20 520 LINE",
"97 520 LINE",
"191 336 LINE",
"286 520 LINE",
"363 520 LINE"
);
}
);
};
hints = (
{
horizontal = 1;
place = "{520, -20}";
target = down;
type = TopGhost;
},
{
horizontal = 1;
place = "{0, 21}";
target = up;
type = BottomGhost;
}
);
layerId = UUID0;
paths = (
{
closed = 1;
nodes = (
"94 0 LINE",
"191 190 LINE",
"289 0 LINE",
"373 0 LINE",
"229 261 LINE",
"363 520 LINE",
"286 520 LINE",
"191 336 LINE",
"97 520 LINE",
"20 520 LINE",
"154 261 LINE",
"10 0 LINE"
);
}
);
width = 378;
}
);
unicode = 0078;
},
{
glyphname = y;
lastChange = "2016-08-11 09:49:33 +0000";
layers = (
{
background = {
paths = (
{
closed = 1;
nodes = (
"20 520 LINE",
"103 520 LINE",
"190 98 LINE",
"260 520 LINE",
"339 520 LINE",
"217 -60 LINE SMOOTH",
"204 -121 OFFCURVE",
"168 -160 OFFCURVE",
"101 -160 CURVE SMOOTH",
"57 -160 LINE",
"57 -100 LINE",
"88 -100 LINE SMOOTH",
"119 -100 OFFCURVE",
"159 -71 OFFCURVE",
"159 1 CURVE"
);
}
);
};
hints = (
{
horizontal = 1;
place = "{-160, 60}";
},
{
horizontal = 1;
place = "{520, -20}";
target = down;
type = TopGhost;
}
);
layerId = UUID0;
paths = (
{
closed = 1;
nodes = (
"101 -160 LINE SMOOTH",
"168 -160 OFFCURVE",
"204 -121 OFFCURVE",
"217 -60 CURVE SMOOTH",
"339 520 LINE",
"260 520 LINE",
"190 98 LINE",
"103 520 LINE",
"20 520 LINE",
"159 1 LINE",
"159 -71 OFFCURVE",
"119 -100 OFFCURVE",
"88 -100 CURVE SMOOTH",
"57 -100 LINE",
"57 -160 LINE"
);
}
);
width = 354;
}
);
leftKerningGroup = v;
unicode = 0079;
},
{
glyphname = yacute;
lastChange = "2016-08-11 09:49:33 +0000";
layers = (
{
background = {
paths = (
{
closed = 1;
nodes = (
"312 520 LINE",
"396 520 LINE",
"249 -161 LINE",
"160 -161 LINE",
"197 6 LINE",
"57 520 LINE",
"144 520 LINE",
"235 140 LINE"
);
},
{
closed = 1;
nodes = (
"200 589 LINE",
"316 688 LINE",
"367 641 LINE",
"233 559 LINE"
);
}
);
};
components = (
{
name = y;
transform = "{1, 0, 0, 1, 44, 0}";
}
);
hints = (
{
horizontal = 1;
place = "{559, 21}";
target = up;
type = BottomGhost;
},
{
horizontal = 1;
place = "{688, -20}";
target = down;
type = TopGhost;
}
);
layerId = UUID0;
paths = (
{
closed = 1;
nodes = (
"367 641 LINE",
"316 688 LINE",
"200 589 LINE",
"233 559 LINE"
);
}
);
width = 468;
}
);
leftKerningGroup = v;
unicode = 00FD;
},
{
glyphname = ydieresis;
lastChange = "2016-08-11 09:46:07 +0000";
layers = (
{
background = {
paths = (
{
closed = 1;
nodes = (
"257 520 LINE",
"341 520 LINE",
"194 -161 LINE",
"105 -161 LINE",
"142 6 LINE",
"2 520 LINE",
"89 520 LINE",
"180 140 LINE"
);
}
);
};
components = (
{
name = y;
},
{
name = dieresis;
}
);
layerId = UUID0;
width = 361;
}
);
leftKerningGroup = v;
unicode = 00FF;
},
{
glyphname = z;
lastChange = "2016-08-11 09:46:07 +0000";
layers = (
{
background = {
paths = (
{
closed = 1;
nodes = (
"291 0 LINE",
"291 60 LINE",
"108 60 LINE",
"292 461 LINE",
"292 520 LINE",
"34 520 LINE",
"34 460 LINE",
"207 460 LINE",
"30 60 LINE",
"30 0 LINE"
);
}
);
};
hints = (
{
horizontal = 1;
place = "{0, 60}";
},
{
horizontal = 1;
place = "{460, 60}";
}
);
layerId = UUID0;
paths = (
{
closed = 1;
nodes = (
"291 0 LINE",
"291 60 LINE",
"108 60 LINE",
"292 461 LINE",
"292 520 LINE",
"34 520 LINE",
"34 460 LINE",
"207 460 LINE",
"30 60 LINE",
"30 0 LINE"
);
}
);
width = 312;
}
);
unicode = 007A;
},
{
glyphname = zcaron;
lastChange = "2016-08-11 09:49:33 +0000";
layers = (
{
background = {
paths = (
{
closed = 1;
nodes = (
"165 545 LINE",
"281 644 LINE",
"248 674 LINE",
"165 623 LINE",
"82 674 LINE",
"49 644 LINE"
);
}
);
};
components = (
{
name = z;
}
);
hints = (
{
horizontal = 1;
place = "{545, 21}";
target = up;
type = BottomGhost;
},
{
horizontal = 1;
place = "{674, -20}";
target = down;
type = TopGhost;
}
);
layerId = UUID0;
paths = (
{
closed = 1;
nodes = (
"281 644 LINE",
"248 674 LINE",
"165 623 LINE",
"82 674 LINE",
"49 644 LINE",
"165 545 LINE"
);
}
);
width = 312;
}
);
unicode = 017E;
},
{
glyphname = ordfeminine;
lastChange = "2016-08-11 09:49:33 +0000";
layers = (
{
background = {
paths = (
{
closed = 1;
nodes = (
"115 700 LINE",
"115 644 LINE",
"173 644 LINE SMOOTH",
"192 644 OFFCURVE",
"205 630 OFFCURVE",
"205 611 CURVE SMOOTH",
"205 603 LINE",
"140 575 LINE",
"115 566 OFFCURVE",
"91 543 OFFCURVE",
"91 507 CURVE SMOOTH",
"91 464 LINE SMOOTH",
"91 420 OFFCURVE",
"126 388 OFFCURVE",
"170 388 CURVE SMOOTH",
"263 388 LINE",
"263 627 LINE SMOOTH",
"263 671 OFFCURVE",
"235 700 OFFCURVE",
"191 700 CURVE SMOOTH"
);
},
{
closed = 1;
nodes = (
"205 553 LINE",
"205 434 LINE",
"187 434 LINE SMOOTH",
"164 434 OFFCURVE",
"146 451 OFFCURVE",
"146 473 CURVE SMOOTH",
"146 484 LINE SMOOTH",
"146 515 OFFCURVE",
"151 530 OFFCURVE",
"171 538 CURVE SMOOTH"
);
}
);
};
hints = (
{
place = "{91, 55}";
},
{
place = "{205, 58}";
},
{
horizontal = 1;
place = "{644, 56}";
},
{
horizontal = 1;
place = "{388, 21}";
target = up;
type = BottomGhost;
}
);
layerId = UUID0;
paths = (
{
closed = 1;
nodes = (
"263 388 LINE",
"263 627 LINE SMOOTH",
"263 671 OFFCURVE",
"235 700 OFFCURVE",
"191 700 CURVE SMOOTH",
"115 700 LINE",
"115 654 LINE",
"173 654 LINE SMOOTH",
"192 654 OFFCURVE",
"205 640 OFFCURVE",
"205 621 CURVE SMOOTH",
"205 603 LINE",
"140 575 LINE",
"115 566 OFFCURVE",
"91 543 OFFCURVE",
"91 507 CURVE SMOOTH",
"91 464 LINE SMOOTH",
"91 420 OFFCURVE",
"126 388 OFFCURVE",
"170 388 CURVE SMOOTH"
);
},
{
closed = 1;
nodes = (
"164 434 OFFCURVE",
"146 451 OFFCURVE",
"146 473 CURVE SMOOTH",
"146 484 LINE SMOOTH",
"146 515 OFFCURVE",
"151 530 OFFCURVE",
"171 538 CURVE SMOOTH",
"205 553 LINE",
"205 434 LINE",
"187 434 LINE SMOOTH"
);
}
);
width = 365;
}
);
unicode = 00AA;
},
{
glyphname = ordmasculine;
lastChange = "2016-08-11 09:49:33 +0000";
layers = (
{
background = {
paths = (
{
closed = 1;
nodes = (
"206 386 LINE",
"259 386 LINE",
"259 697 LINE",
"154 697 LINE",
"154 657 LINE",
"206 657 LINE"
);
},
{
closed = 1;
nodes = (
"275 627 LINE SMOOTH",
"275 676 OFFCURVE",
"243 707 OFFCURVE",
"187 707 CURVE SMOOTH",
"131 707 OFFCURVE",
"99 676 OFFCURVE",
"99 627 CURVE SMOOTH",
"99 461 LINE SMOOTH",
"99 412 OFFCURVE",
"131 381 OFFCURVE",
"187 381 CURVE SMOOTH",
"243 381 OFFCURVE",
"275 412 OFFCURVE",
"275 461 CURVE"
);
},
{
closed = 1;
nodes = (
"150 621 LINE SMOOTH",
"150 649 OFFCURVE",
"163 664 OFFCURVE",
"188 664 CURVE SMOOTH",
"213 664 OFFCURVE",
"225 649 OFFCURVE",
"225 621 CURVE SMOOTH",
"225 467 LINE SMOOTH",
"225 439 OFFCURVE",
"213 424 OFFCURVE",
"188 424 CURVE SMOOTH",
"163 424 OFFCURVE",
"150 439 OFFCURVE",
"150 467 CURVE"
);
}
);
};
hints = (
{
place = "{99, 51}";
},
{
place = "{225, 50}";
},
{
horizontal = 1;
place = "{381, 43}";
},
{
horizontal = 1;
place = "{664, 43}";
}
);
layerId = UUID0;
paths = (
{
closed = 1;
nodes = (
"243 381 OFFCURVE",
"275 412 OFFCURVE",
"275 461 CURVE",
"275 461 LINE",
"275 627 LINE SMOOTH",
"275 676 OFFCURVE",
"243 707 OFFCURVE",
"187 707 CURVE SMOOTH",
"131 707 OFFCURVE",
"99 676 OFFCURVE",
"99 627 CURVE SMOOTH",
"99 461 LINE SMOOTH",
"99 412 OFFCURVE",
"131 381 OFFCURVE",
"187 381 CURVE SMOOTH"
);
},
{
closed = 1;
nodes = (
"163 424 OFFCURVE",
"150 439 OFFCURVE",
"150 467 CURVE",
"150 467 LINE",
"150 621 LINE SMOOTH",
"150 649 OFFCURVE",
"163 664 OFFCURVE",
"188 664 CURVE SMOOTH",
"213 664 OFFCURVE",
"225 649 OFFCURVE",
"225 621 CURVE SMOOTH",
"225 467 LINE SMOOTH",
"225 439 OFFCURVE",
"213 424 OFFCURVE",
"188 424 CURVE SMOOTH"
);
}
);
width = 374;
}
);
unicode = 00BA;
},
{
glyphname = zero;
lastChange = "2016-08-11 09:49:33 +0000";
layers = (
{
background = {
paths = (
{
closed = 1;
nodes = (
"394 593 LINE SMOOTH",
"394 676 OFFCURVE",
"321 707 OFFCURVE",
"227 707 CURVE SMOOTH",
"133 707 OFFCURVE",
"60 676 OFFCURVE",
"60 593 CURVE SMOOTH",
"60 117 LINE SMOOTH",
"60 34 OFFCURVE",
"133 -7 OFFCURVE",
"227 -7 CURVE SMOOTH",
"321 -7 OFFCURVE",
"394 34 OFFCURVE",
"394 117 CURVE SMOOTH"
);
},
{
closed = 1;
nodes = (
"148 576 LINE SMOOTH",
"148 624 OFFCURVE",
"185 637 OFFCURVE",
"226 637 CURVE SMOOTH",
"267 637 OFFCURVE",
"306 624 OFFCURVE",
"306 576 CURVE SMOOTH",
"306 120 LINE SMOOTH",
"306 72 OFFCURVE",
"267 61 OFFCURVE",
"226 61 CURVE SMOOTH",
"185 61 OFFCURVE",
"148 72 OFFCURVE",
"148 120 CURVE SMOOTH"
);
}
);
};
hints = (
{
place = "{60, 88}";
},
{
place = "{306, 88}";
},
{
horizontal = 1;
place = "{-7, 68}";
},
{
horizontal = 1;
place = "{637, 70}";
}
);
layerId = UUID0;
paths = (
{
closed = 1;
nodes = (
"321 -7 OFFCURVE",
"394 34 OFFCURVE",
"394 117 CURVE SMOOTH",
"394 593 LINE SMOOTH",
"394 676 OFFCURVE",
"321 707 OFFCURVE",
"227 707 CURVE SMOOTH",
"133 707 OFFCURVE",
"60 676 OFFCURVE",
"60 593 CURVE SMOOTH",
"60 117 LINE SMOOTH",
"60 34 OFFCURVE",
"133 -7 OFFCURVE",
"227 -7 CURVE SMOOTH"
);
},
{
closed = 1;
nodes = (
"185 61 OFFCURVE",
"148 72 OFFCURVE",
"148 120 CURVE SMOOTH",
"148 576 LINE SMOOTH",
"148 624 OFFCURVE",
"185 637 OFFCURVE",
"226 637 CURVE SMOOTH",
"267 637 OFFCURVE",
"306 624 OFFCURVE",
"306 576 CURVE SMOOTH",
"306 120 LINE SMOOTH",
"306 72 OFFCURVE",
"267 61 OFFCURVE",
"226 61 CURVE SMOOTH"
);
}
);
width = 454;
}
);
unicode = 0030;
},
{
glyphname = one;
lastChange = "2016-08-11 09:49:33 +0000";
layers = (
{
background = {
paths = (
{
closed = 1;
nodes = (
"147 0 LINE",
"235 0 LINE",
"235 700 LINE",
"60 700 LINE",
"60 634 LINE",
"147 634 LINE"
);
}
);
};
hints = (
{
place = "{60, 175}";
},
{
place = "{147, 88}";
},
{
horizontal = 1;
place = "{634, 66}";
},
{
horizontal = 1;
place = "{0, 21}";
target = up;
type = BottomGhost;
}
);
layerId = UUID0;
paths = (
{
closed = 1;
nodes = (
"235 0 LINE",
"235 700 LINE",
"60 700 LINE",
"60 634 LINE",
"147 634 LINE",
"147 0 LINE"
);
}
);
width = 295;
}
);
unicode = 0031;
},
{
glyphname = two;
lastChange = "2016-08-11 09:46:07 +0000";
layers = (
{
background = {
paths = (
{
closed = 1;
nodes = (
"367 0 LINE",
"367 66 LINE",
"152 66 LINE",
"273 316 OFFCURVE",
"367 438 OFFCURVE",
"367 556 CURVE SMOOTH",
"367 620 OFFCURVE",
"341 700 OFFCURVE",
"233 700 CURVE SMOOTH",
"91 700 LINE",
"91 631 LINE",
"188 631 LINE SMOOTH",
"235 631 OFFCURVE",
"275 615 OFFCURVE",
"275 561 CURVE SMOOTH",
"275 493 OFFCURVE",
"263 455 OFFCURVE",
"60 65 CURVE",
"60 0 LINE"
);
}
);
};
hints = (
{
place = "{275, 92}";
},
{
horizontal = 1;
place = "{0, 66}";
},
{
horizontal = 1;
place = "{631, 69}";
}
);
layerId = UUID0;
paths = (
{
closed = 1;
nodes = (
"367 0 LINE",
"367 66 LINE",
"152 66 LINE",
"273 316 OFFCURVE",
"367 438 OFFCURVE",
"367 556 CURVE SMOOTH",
"367 620 OFFCURVE",
"341 700 OFFCURVE",
"233 700 CURVE SMOOTH",
"91 700 LINE",
"91 631 LINE",
"188 631 LINE SMOOTH",
"235 631 OFFCURVE",
"275 615 OFFCURVE",
"275 561 CURVE SMOOTH",
"275 493 OFFCURVE",
"263 455 OFFCURVE",
"60 65 CURVE",
"60 0 LINE"
);
}
);
width = 428;
}
);
unicode = 0032;
},
{
glyphname = three;
lastChange = "2016-08-11 09:49:33 +0000";
layers = (
{
background = {
paths = (
{
closed = 1;
nodes = (
"60 66 LINE",
"60 0 LINE",
"165 0 LINE SMOOTH",
"366 0 OFFCURVE",
"390 120 OFFCURVE",
"390 213 CURVE SMOOTH",
"390 289 OFFCURVE",
"348 346 OFFCURVE",
"300 372 CURVE",
"336 396 OFFCURVE",
"365 455 OFFCURVE",
"365 524 CURVE SMOOTH",
"365 647 OFFCURVE",
"303 700 OFFCURVE",
"180 700 CURVE SMOOTH",
"60 700 LINE",
"60 634 LINE",
"161 634 LINE SMOOTH",
"240 634 OFFCURVE",
"287 609 OFFCURVE",
"287 530 CURVE SMOOTH",
"287 451 OFFCURVE",
"240 408 OFFCURVE",
"161 408 CURVE SMOOTH",
"90 408 LINE",
"90 342 LINE",
"161 342 LINE SMOOTH",
"228 342 OFFCURVE",
"306 310 OFFCURVE",
"306 212 CURVE SMOOTH",
"306 111 OFFCURVE",
"256 66 OFFCURVE",
"160 66 CURVE SMOOTH"
);
}
);
};
hints = (
{
place = "{287, 78}";
},
{
place = "{306, 59}";
},
{
place = "{306, 84}";
},
{
horizontal = 1;
place = "{0, 66}";
},
{
horizontal = 1;
place = "{342, 66}";
},
{
horizontal = 1;
place = "{634, 66}";
}
);
layerId = UUID0;
paths = (
{
closed = 1;
nodes = (
"165 0 LINE SMOOTH",
"366 0 OFFCURVE",
"390 120 OFFCURVE",
"390 213 CURVE SMOOTH",
"390 289 OFFCURVE",
"348 346 OFFCURVE",
"300 372 CURVE",
"336 396 OFFCURVE",
"365 455 OFFCURVE",
"365 524 CURVE SMOOTH",
"365 647 OFFCURVE",
"303 700 OFFCURVE",
"180 700 CURVE SMOOTH",
"60 700 LINE",
"60 634 LINE",
"161 634 LINE SMOOTH",
"240 634 OFFCURVE",
"287 609 OFFCURVE",
"287 530 CURVE SMOOTH",
"287 451 OFFCURVE",
"240 408 OFFCURVE",
"161 408 CURVE SMOOTH",
"90 408 LINE",
"90 342 LINE",
"161 342 LINE SMOOTH",
"228 342 OFFCURVE",
"306 310 OFFCURVE",
"306 212 CURVE SMOOTH",
"306 111 OFFCURVE",
"256 66 OFFCURVE",
"160 66 CURVE SMOOTH",
"60 66 LINE",
"60 0 LINE"
);
}
);
width = 450;
}
);
unicode = 0033;
},
{
glyphname = four;
lastChange = "2016-08-11 09:49:33 +0000";
layers = (
{
background = {
paths = (
{
closed = 1;
nodes = (
"293 251 LINE",
"148 251 LINE",
"286 634 LINE",
"293 634 LINE"
);
},
{
closed = 1;
nodes = (
"293 0 LINE",
"381 0 LINE",
"381 185 LINE",
"447 185 LINE",
"447 251 LINE",
"381 251 LINE",
"381 700 LINE",
"236 700 LINE",
"60 251 LINE",
"60 185 LINE",
"293 185 LINE"
);
}
);
};
hints = (
{
place = "{293, 88}";
},
{
horizontal = 1;
place = "{185, 66}";
},
{
horizontal = 1;
place = "{0, 21}";
target = up;
type = BottomGhost;
},
{
horizontal = 1;
place = "{700, -20}";
target = down;
type = TopGhost;
}
);
layerId = UUID0;
paths = (
{
closed = 1;
nodes = (
"381 0 LINE",
"381 185 LINE",
"447 185 LINE",
"447 251 LINE",
"381 251 LINE",
"381 700 LINE",
"236 700 LINE",
"60 251 LINE",
"60 185 LINE",
"293 185 LINE",
"293 0 LINE"
);
},
{
closed = 1;
nodes = (
"286 634 LINE",
"293 634 LINE",
"293 251 LINE",
"148 251 LINE"
);
}
);
width = 505;
}
);
unicode = 0034;
},
{
glyphname = five;
lastChange = "2016-08-11 09:49:33 +0000";
layers = (
{
background = {
paths = (
{
closed = 1;
nodes = (
"148 121 LINE",
"148 74 OFFCURVE",
"197 59 OFFCURVE",
"235 59 CURVE SMOOTH",
"276 59 OFFCURVE",
"325 72 OFFCURVE",
"325 120 CURVE SMOOTH",
"325 289 LINE SMOOTH",
"325 338 OFFCURVE",
"316 355 OFFCURVE",
"258 355 CURVE SMOOTH",
"62 355 LINE",
"62 700 LINE",
"365 700 LINE",
"365 634 LINE",
"149 634 LINE",
"149 421 LINE",
"282 421 LINE SMOOTH",
"374 421 OFFCURVE",
"413 382 OFFCURVE",
"413 295 CURVE SMOOTH",
"413 124 LINE SMOOTH",
"413 35 OFFCURVE",
"325 -7 OFFCURVE",
"236 -7 CURVE SMOOTH",
"147 -7 OFFCURVE",
"60 32 OFFCURVE",
"60 121 CURVE"
);
}
);
};
hints = (
{
place = "{62, 87}";
},
{
place = "{325, 88}";
},
{
horizontal = 1;
place = "{-7, 66}";
},
{
horizontal = 1;
place = "{355, 66}";
},
{
horizontal = 1;
place = "{634, 66}";
},
{
horizontal = 1;
place = "{-7, 128}";
}
);
layerId = UUID0;
paths = (
{
closed = 1;
nodes = (
"325 -7 OFFCURVE",
"413 35 OFFCURVE",
"413 124 CURVE SMOOTH",
"413 295 LINE SMOOTH",
"413 382 OFFCURVE",
"374 421 OFFCURVE",
"282 421 CURVE SMOOTH",
"149 421 LINE",
"149 634 LINE",
"365 634 LINE",
"365 700 LINE",
"62 700 LINE",
"62 355 LINE",
"258 355 LINE SMOOTH",
"316 355 OFFCURVE",
"325 338 OFFCURVE",
"325 289 CURVE SMOOTH",
"325 120 LINE SMOOTH",
"325 72 OFFCURVE",
"276 59 OFFCURVE",
"235 59 CURVE SMOOTH",
"197 59 OFFCURVE",
"148 74 OFFCURVE",
"148 121 CURVE",
"60 121 LINE",
"60 32 OFFCURVE",
"147 -7 OFFCURVE",
"236 -7 CURVE SMOOTH"
);
}
);
width = 473;
}
);
unicode = 0035;
},
{
glyphname = six;
lastChange = "2016-08-11 09:49:33 +0000";
layers = (
{
background = {
paths = (
{
closed = 1;
nodes = (
"413 284 LINE SMOOTH",
"413 373 OFFCURVE",
"372 410 OFFCURVE",
"283 410 CURVE SMOOTH",
"148 410 LINE",
"148 536 LINE SMOOTH",
"148 596 OFFCURVE",
"180 634 OFFCURVE",
"240 634 CURVE SMOOTH",
"364 634 LINE",
"364 700 LINE",
"228 700 LINE SMOOTH",
"124 700 OFFCURVE",
"61 642 OFFCURVE",
"61 538 CURVE SMOOTH",
"61 125 LINE SMOOTH",
"61 36 OFFCURVE",
"147 -7 OFFCURVE",
"236 -7 CURVE SMOOTH",
"325 -7 OFFCURVE",
"413 35 OFFCURVE",
"413 124 CURVE SMOOTH"
);
},
{
closed = 1;
nodes = (
"326 120 LINE SMOOTH",
"326 72 OFFCURVE",
"276 59 OFFCURVE",
"235 59 CURVE SMOOTH",
"194 59 OFFCURVE",
"148 73 OFFCURVE",
"148 121 CURVE SMOOTH",
"148 344 LINE",
"259 344 LINE SMOOTH",
"316 344 OFFCURVE",
"326 326 OFFCURVE",
"326 278 CURVE SMOOTH"
);
}
);
};
hints = (
{
place = "{61, 87}";
},
{
place = "{326, 87}";
},
{
horizontal = 1;
place = "{-7, 66}";
},
{
horizontal = 1;
place = "{344, 66}";
},
{
horizontal = 1;
place = "{634, 66}";
}
);
layerId = UUID0;
paths = (
{
closed = 1;
nodes = (
"325 -7 OFFCURVE",
"413 35 OFFCURVE",
"413 124 CURVE SMOOTH",
"413 284 LINE SMOOTH",
"413 373 OFFCURVE",
"372 410 OFFCURVE",
"283 410 CURVE SMOOTH",
"148 410 LINE",
"148 536 LINE SMOOTH",
"148 596 OFFCURVE",
"180 634 OFFCURVE",
"240 634 CURVE SMOOTH",
"364 634 LINE",
"364 700 LINE",
"228 700 LINE SMOOTH",
"124 700 OFFCURVE",
"61 642 OFFCURVE",
"61 538 CURVE SMOOTH",
"61 125 LINE SMOOTH",
"61 36 OFFCURVE",
"147 -7 OFFCURVE",
"236 -7 CURVE SMOOTH"
);
},
{
closed = 1;
nodes = (
"194 59 OFFCURVE",
"148 73 OFFCURVE",
"148 121 CURVE SMOOTH",
"148 344 LINE",
"259 344 LINE SMOOTH",
"316 344 OFFCURVE",
"326 326 OFFCURVE",
"326 278 CURVE SMOOTH",
"326 120 LINE SMOOTH",
"326 72 OFFCURVE",
"276 59 OFFCURVE",
"235 59 CURVE SMOOTH"
);
}
);
width = 475;
}
);
unicode = 0036;
},
{
glyphname = seven;
lastChange = "2016-08-11 09:46:07 +0000";
layers = (
{
background = {
paths = (
{
closed = 1;
nodes = (
"163 0 LINE",
"359 634 LINE",
"359 700 LINE",
"60 700 LINE",
"60 634 LINE",
"271 634 LINE",
"70 0 LINE"
);
}
);
};
hints = (
{
horizontal = 1;
place = "{634, 66}";
},
{
horizontal = 1;
place = "{0, 21}";
target = up;
type = BottomGhost;
}
);
layerId = UUID0;
paths = (
{
closed = 1;
nodes = (
"163 0 LINE",
"359 634 LINE",
"359 700 LINE",
"60 700 LINE",
"60 634 LINE",
"271 634 LINE",
"70 0 LINE"
);
}
);
width = 419;
}
);
unicode = 0037;
},
{
glyphname = eight;
lastChange = "2016-08-11 09:49:33 +0000";
layers = (
{
background = {
paths = (
{
closed = 1;
nodes = (
"63 576 LINE SMOOTH",
"63 651 OFFCURVE",
"109 707 OFFCURVE",
"236 707 CURVE SMOOTH",
"353 707 OFFCURVE",
"409 651 OFFCURVE",
"409 576 CURVE SMOOTH",
"409 447 LINE SMOOTH",
"409 406 OFFCURVE",
"383 375 OFFCURVE",
"347 354 CURVE",
"382 330 OFFCURVE",
"407 296 OFFCURVE",
"407 256 CURVE SMOOTH",
"407 117 LINE SMOOTH",
"407 42 OFFCURVE",
"349 -6 OFFCURVE",
"236 -6 CURVE SMOOTH",
"114 -6 OFFCURVE",
"61 41 OFFCURVE",
"61 117 CURVE SMOOTH",
"61 256 LINE SMOOTH",
"61 296 OFFCURVE",
"86 331 OFFCURVE",
"123 354 CURVE",
"87 375 OFFCURVE",
"63 407 OFFCURVE",
"63 447 CURVE"
);
},
{
closed = 1;
nodes = (
"149 127 LINE SMOOTH",
"149 83 OFFCURVE",
"177 60 OFFCURVE",
"234 60 CURVE SMOOTH",
"289 60 OFFCURVE",
"319 83 OFFCURVE",
"319 127 CURVE SMOOTH",
"319 244 LINE SMOOTH",
"319 288 OFFCURVE",
"294 321 OFFCURVE",
"234 321 CURVE SMOOTH",
"177 321 OFFCURVE",
"149 288 OFFCURVE",
"149 244 CURVE SMOOTH"
);
},
{
closed = 1;
nodes = (
"152 458 LINE SMOOTH",
"152 414 OFFCURVE",
"170 392 OFFCURVE",
"235 392 CURVE SMOOTH",
"292 392 OFFCURVE",
"321 414 OFFCURVE",
"321 458 CURVE SMOOTH",
"321 565 LINE SMOOTH",
"321 609 OFFCURVE",
"317 641 OFFCURVE",
"238 641 CURVE SMOOTH",
"160 641 OFFCURVE",
"151 609 OFFCURVE",
"151 565 CURVE SMOOTH"
);
}
);
};
hints = (
{
place = "{61, 88}";
},
{
place = "{73, 89}";
},
{
place = "{311, 96}";
},
{
horizontal = 1;
place = "{-6, 66}";
},
{
horizontal = 1;
place = "{321, 71}";
},
{
horizontal = 1;
place = "{641, 66}";
}
);
layerId = UUID0;
paths = (
{
closed = 1;
nodes = (
"349 -6 OFFCURVE",
"407 42 OFFCURVE",
"407 117 CURVE SMOOTH",
"407 256 LINE SMOOTH",
"407 296 OFFCURVE",
"382 330 OFFCURVE",
"347 354 CURVE",
"377 375 OFFCURVE",
"399 406 OFFCURVE",
"399 447 CURVE SMOOTH",
"399 576 LINE SMOOTH",
"399 651 OFFCURVE",
"346 707 OFFCURVE",
"236 707 CURVE SMOOTH",
"116 707 OFFCURVE",
"73 651 OFFCURVE",
"73 576 CURVE SMOOTH",
"73 447 LINE SMOOTH",
"73 407 OFFCURVE",
"93 375 OFFCURVE",
"123 354 CURVE",
"123 354 LINE",
"86 331 OFFCURVE",
"61 296 OFFCURVE",
"61 256 CURVE SMOOTH",
"61 117 LINE SMOOTH",
"61 41 OFFCURVE",
"114 -6 OFFCURVE",
"236 -6 CURVE SMOOTH"
);
},
{
closed = 1;
nodes = (
"177 60 OFFCURVE",
"149 83 OFFCURVE",
"149 127 CURVE SMOOTH",
"149 244 LINE SMOOTH",
"149 288 OFFCURVE",
"177 321 OFFCURVE",
"234 321 CURVE SMOOTH",
"294 321 OFFCURVE",
"319 288 OFFCURVE",
"319 244 CURVE SMOOTH",
"319 127 LINE SMOOTH",
"319 83 OFFCURVE",
"289 60 OFFCURVE",
"234 60 CURVE SMOOTH"
);
},
{
closed = 1;
nodes = (
"178 392 OFFCURVE",
"162 414 OFFCURVE",
"162 458 CURVE SMOOTH",
"161 565 LINE SMOOTH",
"161 609 OFFCURVE",
"169 641 OFFCURVE",
"238 641 CURVE SMOOTH",
"307 641 OFFCURVE",
"311 609 OFFCURVE",
"311 565 CURVE SMOOTH",
"311 458 LINE SMOOTH",
"311 414 OFFCURVE",
"285 392 OFFCURVE",
"235 392 CURVE SMOOTH"
);
}
);
width = 470;
}
);
unicode = 0038;
},
{
glyphname = nine;
lastChange = "2016-08-11 09:49:33 +0000";
layers = (
{
background = {
paths = (
{
closed = 1;
nodes = (
"327 134 LINE SMOOTH",
"327 90 OFFCURVE",
"299 66 OFFCURVE",
"243 66 CURVE SMOOTH",
"111 66 LINE",
"111 0 LINE",
"244 0 LINE SMOOTH",
"357 0 OFFCURVE",
"414 47 OFFCURVE",
"414 122 CURVE SMOOTH",
"414 575 LINE SMOOTH",
"414 664 OFFCURVE",
"327 707 OFFCURVE",
"238 707 CURVE SMOOTH",
"149 707 OFFCURVE",
"61 665 OFFCURVE",
"61 576 CURVE SMOOTH",
"61 429 LINE SMOOTH",
"61 340 OFFCURVE",
"103 294 OFFCURVE",
"192 294 CURVE SMOOTH",
"327 294 LINE"
);
},
{
closed = 1;
nodes = (
"149 580 LINE SMOOTH",
"149 628 OFFCURVE",
"199 641 OFFCURVE",
"240 641 CURVE SMOOTH",
"281 641 OFFCURVE",
"327 627 OFFCURVE",
"327 579 CURVE SMOOTH",
"327 361 LINE",
"216 361 LINE SMOOTH",
"158 361 OFFCURVE",
"149 388 OFFCURVE",
"149 436 CURVE SMOOTH"
);
}
);
};
hints = (
{
place = "{61, 88}";
},
{
place = "{327, 87}";
},
{
horizontal = 1;
place = "{0, 66}";
},
{
horizontal = 1;
place = "{294, 67}";
},
{
horizontal = 1;
place = "{641, 66}";
}
);
layerId = UUID0;
paths = (
{
closed = 1;
nodes = (
"244 0 LINE SMOOTH",
"357 0 OFFCURVE",
"414 47 OFFCURVE",
"414 122 CURVE SMOOTH",
"414 575 LINE SMOOTH",
"414 664 OFFCURVE",
"327 707 OFFCURVE",
"238 707 CURVE SMOOTH",
"149 707 OFFCURVE",
"61 665 OFFCURVE",
"61 576 CURVE SMOOTH",
"61 429 LINE SMOOTH",
"61 340 OFFCURVE",
"103 294 OFFCURVE",
"192 294 CURVE SMOOTH",
"327 294 LINE",
"327 134 LINE SMOOTH",
"327 90 OFFCURVE",
"299 66 OFFCURVE",
"243 66 CURVE SMOOTH",
"111 66 LINE",
"111 0 LINE"
);
},
{
closed = 1;
nodes = (
"158 361 OFFCURVE",
"149 388 OFFCURVE",
"149 436 CURVE SMOOTH",
"149 580 LINE SMOOTH",
"149 628 OFFCURVE",
"199 641 OFFCURVE",
"240 641 CURVE SMOOTH",
"281 641 OFFCURVE",
"327 627 OFFCURVE",
"327 579 CURVE SMOOTH",
"327 361 LINE",
"216 361 LINE SMOOTH"
);
}
);
width = 476;
}
);
unicode = 0039;
},
{
glyphname = onesuperior;
lastChange = "2016-08-11 09:49:33 +0000";
layers = (
{
background = {
paths = (
{
closed = 1;
nodes = (
"78 389 LINE",
"136 389 LINE",
"136 700 LINE",
"31 700 LINE",
"31 647 LINE",
"78 647 LINE"
);
}
);
};
hints = (
{
place = "{78, 58}";
},
{
horizontal = 1;
place = "{389, 21}";
target = up;
type = BottomGhost;
},
{
horizontal = 1;
place = "{700, -20}";
target = down;
type = TopGhost;
}
);
layerId = UUID0;
paths = (
{
closed = 1;
nodes = (
"136 389 LINE",
"136 700 LINE",
"31 700 LINE",
"31 647 LINE",
"78 647 LINE",
"78 389 LINE"
);
}
);
width = 168;
}
);
unicode = 00B9;
},
{
glyphname = twosuperior;
lastChange = "2016-08-11 09:46:07 +0000";
layers = (
{
background = {
paths = (
{
closed = 1;
nodes = (
"189 389 LINE",
"189 434 LINE",
"92 434 LINE",
"147 546 OFFCURVE",
"189 585 OFFCURVE",
"189 636 CURVE SMOOTH",
"189 664 OFFCURVE",
"177 700 OFFCURVE",
"129 700 CURVE SMOOTH",
"45 700 LINE",
"45 649 LINE",
"89 649 LINE SMOOTH",
"110 649 OFFCURVE",
"128 644 OFFCURVE",
"128 628 CURVE SMOOTH",
"128 598 OFFCURVE",
"122 597 OFFCURVE",
"31 434 CURVE",
"31 389 LINE"
);
}
);
};
hints = (
{
place = "{128, 61}";
},
{
horizontal = 1;
place = "{389, 45}";
},
{
horizontal = 1;
place = "{649, 51}";
}
);
layerId = UUID0;
paths = (
{
closed = 1;
nodes = (
"189 389 LINE",
"189 434 LINE",
"92 434 LINE",
"147 546 OFFCURVE",
"189 585 OFFCURVE",
"189 636 CURVE SMOOTH",
"189 664 OFFCURVE",
"177 700 OFFCURVE",
"129 700 CURVE SMOOTH",
"45 700 LINE",
"45 649 LINE",
"89 649 LINE SMOOTH",
"110 649 OFFCURVE",
"128 644 OFFCURVE",
"128 628 CURVE SMOOTH",
"128 598 OFFCURVE",
"122 597 OFFCURVE",
"31 434 CURVE",
"31 389 LINE"
);
}
);
width = 221;
}
);
unicode = 00B2;
},
{
glyphname = threesuperior;
lastChange = "2016-08-11 09:49:33 +0000";
layers = (
{
background = {
paths = (
{
closed = 1;
nodes = (
"31 435 LINE",
"31 389 LINE",
"93 389 LINE SMOOTH",
"178 389 OFFCURVE",
"195 447 OFFCURVE",
"195 491 CURVE SMOOTH",
"195 526 OFFCURVE",
"183 547 OFFCURVE",
"159 561 CURVE",
"177 571 OFFCURVE",
"191 592 OFFCURVE",
"191 631 CURVE SMOOTH",
"191 667 OFFCURVE",
"159 700 OFFCURVE",
"97 700 CURVE SMOOTH",
"31 700 LINE",
"31 649 LINE",
"82 649 LINE SMOOTH",
"113 649 OFFCURVE",
"132 644 OFFCURVE",
"132 618 CURVE SMOOTH",
"132 592 OFFCURVE",
"113 584 OFFCURVE",
"82 584 CURVE SMOOTH",
"35 584 LINE",
"35 539 LINE",
"67 539 LINE SMOOTH",
"117 539 OFFCURVE",
"137 531 OFFCURVE",
"137 491 CURVE SMOOTH",
"137 439 OFFCURVE",
"109 435 OFFCURVE",
"72 435 CURVE SMOOTH"
);
}
);
};
hints = (
{
place = "{31, 164}";
},
{
place = "{132, 63}";
},
{
horizontal = 1;
place = "{389, 46}";
},
{
horizontal = 1;
place = "{539, 45}";
},
{
horizontal = 1;
place = "{649, 51}";
}
);
layerId = UUID0;
paths = (
{
closed = 1;
nodes = (
"93 389 LINE SMOOTH",
"178 389 OFFCURVE",
"195 447 OFFCURVE",
"195 491 CURVE SMOOTH",
"195 526 OFFCURVE",
"183 547 OFFCURVE",
"159 561 CURVE",
"177 571 OFFCURVE",
"191 592 OFFCURVE",
"191 631 CURVE SMOOTH",
"191 667 OFFCURVE",
"159 700 OFFCURVE",
"97 700 CURVE SMOOTH",
"31 700 LINE",
"31 649 LINE",
"82 649 LINE SMOOTH",
"113 649 OFFCURVE",
"132 644 OFFCURVE",
"132 618 CURVE SMOOTH",
"132 592 OFFCURVE",
"113 584 OFFCURVE",
"82 584 CURVE SMOOTH",
"35 584 LINE",
"35 539 LINE",
"67 539 LINE SMOOTH",
"117 539 OFFCURVE",
"137 531 OFFCURVE",
"137 491 CURVE SMOOTH",
"137 439 OFFCURVE",
"109 435 OFFCURVE",
"72 435 CURVE SMOOTH",
"31 435 LINE",
"31 389 LINE"
);
}
);
width = 227;
}
);
unicode = 00B3;
},
{
glyphname = onehalf;
lastChange = "2016-08-11 09:49:33 +0000";
layers = (
{
background = {
paths = (
{
closed = 1;
nodes = (
"32 0 LINE",
"109 0 LINE",
"476 700 LINE",
"399 700 LINE"
);
},
{
closed = 1;
nodes = (
"81 389 LINE",
"139 389 LINE",
"139 700 LINE",
"34 700 LINE",
"34 647 LINE",
"81 647 LINE"
);
}
);
};
components = (
{
name = twosuperior;
transform = "{1, 0, 0, 1, 309, -389}";
}
);
hints = (
{
place = "{81, 58}";
},
{
horizontal = 1;
place = "{0, 21}";
target = up;
type = BottomGhost;
},
{
horizontal = 1;
place = "{700, -20}";
target = down;
type = TopGhost;
}
);
layerId = UUID0;
paths = (
{
closed = 1;
nodes = (
"109 0 LINE",
"476 700 LINE",
"399 700 LINE",
"32 0 LINE"
);
},
{
closed = 1;
nodes = (
"139 389 LINE",
"139 700 LINE",
"34 700 LINE",
"34 647 LINE",
"81 647 LINE",
"81 389 LINE"
);
}
);
width = 530;
}
);
unicode = 00BD;
},
{
glyphname = onequarter;
lastChange = "2016-08-11 09:49:33 +0000";
layers = (
{
background = {
paths = (
{
closed = 1;
nodes = (
"418 114 LINE",
"337 114 LINE",
"414 262 LINE",
"418 262 LINE"
);
},
{
closed = 1;
nodes = (
"419 0 LINE",
"478 0 LINE",
"478 62 LINE",
"518 62 LINE",
"518 114 LINE",
"478 114 LINE",
"478 312 LINE",
"374 312 LINE",
"273 114 LINE",
"273 62 LINE",
"419 62 LINE"
);
},
{
closed = 1;
nodes = (
"32 0 LINE",
"109 0 LINE",
"476 700 LINE",
"399 700 LINE"
);
},
{
closed = 1;
nodes = (
"81 389 LINE",
"139 389 LINE",
"139 700 LINE",
"34 700 LINE",
"34 647 LINE",
"81 647 LINE"
);
}
);
};
hints = (
{
place = "{81, 58}";
},
{
place = "{418, 60}";
},
{
horizontal = 1;
place = "{62, 52}";
},
{
horizontal = 1;
place = "{62, 250}";
},
{
horizontal = 1;
place = "{0, 21}";
target = up;
type = BottomGhost;
},
{
horizontal = 1;
place = "{700, -20}";
target = down;
type = TopGhost;
}
);
layerId = UUID0;
paths = (
{
closed = 1;
nodes = (
"109 0 LINE",
"476 700 LINE",
"399 700 LINE",
"32 0 LINE"
);
},
{
closed = 1;
nodes = (
"478 0 LINE",
"478 62 LINE",
"518 62 LINE",
"518 114 LINE",
"478 114 LINE",
"478 312 LINE",
"374 312 LINE",
"273 114 LINE",
"273 62 LINE",
"419 62 LINE",
"419 0 LINE"
);
},
{
closed = 1;
nodes = (
"414 262 LINE",
"418 262 LINE",
"418 114 LINE",
"337 114 LINE"
);
},
{
closed = 1;
nodes = (
"139 389 LINE",
"139 700 LINE",
"34 700 LINE",
"34 647 LINE",
"81 647 LINE",
"81 389 LINE"
);
}
);
width = 550;
}
);
unicode = 00BC;
},
{
glyphname = threequarters;
lastChange = "2016-08-11 09:49:33 +0000";
layers = (
{
background = {
paths = (
{
closed = 1;
nodes = (
"35 0 LINE",
"112 0 LINE",
"479 700 LINE",
"402 700 LINE"
);
},
{
closed = 1;
nodes = (
"32 434 LINE",
"32 388 LINE",
"94 388 LINE SMOOTH",
"179 388 OFFCURVE",
"196 446 OFFCURVE",
"196 490 CURVE SMOOTH",
"196 525 OFFCURVE",
"184 546 OFFCURVE",
"160 560 CURVE",
"178 570 OFFCURVE",
"192 591 OFFCURVE",
"192 630 CURVE SMOOTH",
"192 666 OFFCURVE",
"160 699 OFFCURVE",
"98 699 CURVE SMOOTH",
"32 699 LINE",
"32 648 LINE",
"83 648 LINE SMOOTH",
"114 648 OFFCURVE",
"133 643 OFFCURVE",
"133 617 CURVE SMOOTH",
"133 591 OFFCURVE",
"114 583 OFFCURVE",
"83 583 CURVE SMOOTH",
"36 583 LINE",
"36 538 LINE",
"68 538 LINE SMOOTH",
"118 538 OFFCURVE",
"138 530 OFFCURVE",
"138 490 CURVE SMOOTH",
"138 438 OFFCURVE",
"110 434 OFFCURVE",
"73 434 CURVE SMOOTH"
);
},
{
closed = 1;
nodes = (
"419 114 LINE",
"338 114 LINE",
"415 262 LINE",
"419 262 LINE"
);
},
{
closed = 1;
nodes = (
"420 0 LINE",
"479 0 LINE",
"479 62 LINE",
"519 62 LINE",
"519 114 LINE",
"479 114 LINE",
"479 312 LINE",
"375 312 LINE",
"274 114 LINE",
"274 62 LINE",
"420 62 LINE"
);
}
);
};
hints = (
{
place = "{32, 164}";
},
{
place = "{133, 63}";
},
{
place = "{419, 60}";
},
{
horizontal = 1;
place = "{62, 52}";
},
{
horizontal = 1;
place = "{388, 46}";
},
{
horizontal = 1;
place = "{538, 45}";
},
{
horizontal = 1;
place = "{648, 51}";
},
{
horizontal = 1;
place = "{62, 250}";
},
{
horizontal = 1;
place = "{0, 21}";
target = up;
type = BottomGhost;
},
{
horizontal = 1;
place = "{700, -20}";
target = down;
type = TopGhost;
}
);
layerId = UUID0;
paths = (
{
closed = 1;
nodes = (
"112 0 LINE",
"479 700 LINE",
"402 700 LINE",
"35 0 LINE"
);
},
{
closed = 1;
nodes = (
"479 0 LINE",
"479 62 LINE",
"519 62 LINE",
"519 114 LINE",
"479 114 LINE",
"479 312 LINE",
"375 312 LINE",
"274 114 LINE",
"274 62 LINE",
"420 62 LINE",
"420 0 LINE"
);
},
{
closed = 1;
nodes = (
"415 262 LINE",
"419 262 LINE",
"419 114 LINE",
"338 114 LINE"
);
},
{
closed = 1;
nodes = (
"94 388 LINE SMOOTH",
"179 388 OFFCURVE",
"196 446 OFFCURVE",
"196 490 CURVE SMOOTH",
"196 525 OFFCURVE",
"184 546 OFFCURVE",
"160 560 CURVE",
"178 570 OFFCURVE",
"192 591 OFFCURVE",
"192 630 CURVE SMOOTH",
"192 666 OFFCURVE",
"160 699 OFFCURVE",
"98 699 CURVE SMOOTH",
"32 699 LINE",
"32 648 LINE",
"83 648 LINE SMOOTH",
"114 648 OFFCURVE",
"133 643 OFFCURVE",
"133 617 CURVE SMOOTH",
"133 591 OFFCURVE",
"114 583 OFFCURVE",
"83 583 CURVE SMOOTH",
"36 583 LINE",
"36 538 LINE",
"68 538 LINE SMOOTH",
"118 538 OFFCURVE",
"138 530 OFFCURVE",
"138 490 CURVE SMOOTH",
"138 438 OFFCURVE",
"110 434 OFFCURVE",
"73 434 CURVE SMOOTH",
"32 434 LINE",
"32 388 LINE"
);
}
);
width = 551;
}
);
unicode = 00BE;
},
{
glyphname = asterisk;
lastChange = "2016-08-11 09:49:33 +0000";
layers = (
{
background = {
paths = (
{
closed = 1;
nodes = (
"419 530 LINE",
"393 605 LINE",
"263 568 LINE",
"268 697 LINE",
"190 697 LINE",
"198 568 LINE",
"67 605 LINE",
"47 537 LINE",
"183 502 LINE",
"89 383 LINE",
"156 339 LINE",
"230 455 LINE",
"306 339 LINE",
"372 387 LINE",
"345 420 OFFCURVE",
"310 466 OFFCURVE",
"282 502 CURVE"
);
},
{
closed = 1;
nodes = (
"419 530 LINE",
"393 605 LINE",
"263 568 LINE",
"268 697 LINE",
"190 697 LINE",
"198 568 LINE",
"67 605 LINE",
"47 537 LINE",
"183 502 LINE",
"89 383 LINE",
"156 339 LINE",
"230 455 LINE",
"306 339 LINE",
"372 387 LINE",
"345 420 OFFCURVE",
"310 466 OFFCURVE",
"282 502 CURVE"
);
}
);
};
hints = (
{
place = "{194, 71}";
},
{
horizontal = 1;
place = "{697, -20}";
target = down;
type = TopGhost;
},
{
horizontal = 1;
place = "{339, 21}";
target = up;
type = BottomGhost;
}
);
layerId = UUID0;
paths = (
{
closed = 1;
nodes = (
"230 455 LINE",
"306 339 LINE",
"372 387 LINE",
"345 420 OFFCURVE",
"310 466 OFFCURVE",
"282 502 CURVE",
"419 530 LINE",
"393 605 LINE",
"263 568 LINE",
"268 697 LINE",
"190 697 LINE",
"198 568 LINE",
"67 605 LINE",
"47 537 LINE",
"183 502 LINE",
"89 383 LINE",
"156 339 LINE"
);
}
);
width = 456;
}
);
unicode = 002A;
},
{
glyphname = backslash;
lastChange = "2016-08-11 09:49:33 +0000";
layers = (
{
background = {
paths = (
{
closed = 1;
nodes = (
"290 0 LINE",
"21 699 LINE",
"109 699 LINE",
"383 0 LINE"
);
},
{
closed = 1;
nodes = (
"290 0 LINE",
"21 700 LINE",
"103 700 LINE",
"377 0 LINE"
);
}
);
};
hints = (
{
horizontal = 1;
place = "{0, 21}";
target = up;
type = BottomGhost;
},
{
horizontal = 1;
place = "{700, -20}";
target = down;
type = TopGhost;
}
);
layerId = UUID0;
paths = (
{
closed = 1;
nodes = (
"377 0 LINE",
"103 700 LINE",
"21 700 LINE",
"290 0 LINE"
);
}
);
width = 413;
}
);
unicode = 005C;
},
{
glyphname = periodcentered;
lastChange = "2016-08-11 09:49:33 +0000";
layers = (
{
background = {
paths = (
{
closed = 1;
nodes = (
"34 254 LINE",
"114 254 LINE",
"114 357 LINE",
"34 357 LINE"
);
}
);
};
hints = (
{
place = "{34, 80}";
},
{
horizontal = 1;
place = "{254, 103}";
}
);
layerId = UUID0;
paths = (
{
closed = 1;
nodes = (
"114 254 LINE",
"114 357 LINE",
"34 357 LINE",
"34 254 LINE"
);
}
);
width = 137;
}
);
unicode = 00B7;
},
{
glyphname = bullet;
lastChange = "2016-08-11 09:49:33 +0000";
layers = (
{
background = {
paths = (
{
closed = 1;
nodes = (
"65 259 OFFCURVE",
"114 210 OFFCURVE",
"174 210 CURVE SMOOTH",
"234 210 OFFCURVE",
"283 259 OFFCURVE",
"283 319 CURVE SMOOTH",
"283 379 OFFCURVE",
"234 428 OFFCURVE",
"174 428 CURVE SMOOTH",
"114 428 OFFCURVE",
"65 379 OFFCURVE",
"65 319 CURVE SMOOTH"
);
}
);
};
hints = (
{
place = "{65, 218}";
},
{
horizontal = 1;
place = "{210, 218}";
}
);
layerId = UUID0;
paths = (
{
closed = 1;
nodes = (
"234 210 OFFCURVE",
"283 259 OFFCURVE",
"283 319 CURVE SMOOTH",
"283 379 OFFCURVE",
"234 428 OFFCURVE",
"174 428 CURVE SMOOTH",
"114 428 OFFCURVE",
"65 379 OFFCURVE",
"65 319 CURVE SMOOTH",
"65 319 LINE SMOOTH",
"65 259 OFFCURVE",
"114 210 OFFCURVE",
"174 210 CURVE SMOOTH"
);
}
);
width = 348;
}
);
unicode = 2022;
},
{
glyphname = colon;
lastChange = "2016-08-11 09:49:33 +0000";
layers = (
{
background = {
paths = (
{
closed = 1;
nodes = (
"41 0 LINE",
"121 0 LINE",
"121 103 LINE",
"41 103 LINE"
);
},
{
closed = 1;
nodes = (
"41 416 LINE",
"121 416 LINE",
"121 519 LINE",
"41 519 LINE"
);
}
);
};
hints = (
{
place = "{41, 80}";
},
{
horizontal = 1;
place = "{0, 103}";
},
{
horizontal = 1;
place = "{416, 103}";
}
);
layerId = UUID0;
paths = (
{
closed = 1;
nodes = (
"121 416 LINE",
"121 519 LINE",
"41 519 LINE",
"41 416 LINE"
);
},
{
closed = 1;
nodes = (
"121 0 LINE",
"121 103 LINE",
"41 103 LINE",
"41 0 LINE"
);
}
);
width = 162;
}
);
unicode = 003A;
},
{
glyphname = comma;
lastChange = "2016-08-11 09:49:33 +0000";
layers = (
{
background = {
paths = (
{
closed = 1;
nodes = (
"0 -123 LINE",
"61 -123 LINE",
"123 1 LINE",
"123 103 LINE",
"43 103 LINE",
"43 0 LINE"
);
},
{
closed = 1;
nodes = (
"-1 -123 LINE",
"61 -123 LINE",
"122 1 LINE",
"122 103 LINE",
"42 103 LINE",
"42 0 LINE"
);
}
);
};
hints = (
{
place = "{42, 80}";
},
{
horizontal = 1;
place = "{-123, 226}";
}
);
layerId = UUID0;
paths = (
{
closed = 1;
nodes = (
"61 -123 LINE",
"122 1 LINE",
"122 103 LINE",
"42 103 LINE",
"42 0 LINE",
"-1 -123 LINE"
);
}
);
width = 143;
}
);
unicode = 002C;
},
{
glyphname = ellipsis;
lastChange = "2016-08-11 09:49:33 +0000";
layers = (
{
background = {
paths = (
{
closed = 1;
nodes = (
"41 0 LINE",
"121 0 LINE",
"121 103 LINE",
"41 103 LINE"
);
},
{
closed = 1;
nodes = (
"215 0 LINE",
"295 0 LINE",
"295 103 LINE",
"215 103 LINE"
);
},
{
closed = 1;
nodes = (
"389 0 LINE",
"469 0 LINE",
"469 103 LINE",
"389 103 LINE"
);
}
);
};
hints = (
{
place = "{41, 80}";
},
{
place = "{215, 80}";
},
{
place = "{389, 80}";
},
{
horizontal = 1;
place = "{0, 103}";
}
);
layerId = UUID0;
paths = (
{
closed = 1;
nodes = (
"469 0 LINE",
"469 103 LINE",
"389 103 LINE",
"389 0 LINE"
);
},
{
closed = 1;
nodes = (
"121 0 LINE",
"121 103 LINE",
"41 103 LINE",
"41 0 LINE"
);
},
{
closed = 1;
nodes = (
"295 0 LINE",
"295 103 LINE",
"215 103 LINE",
"215 0 LINE"
);
}
);
width = 522;
}
);
unicode = 2026;
},
{
glyphname = exclam;
lastChange = "2016-08-11 09:49:33 +0000";
layers = (
{
background = {
paths = (
{
closed = 1;
nodes = (
"146 700 LINE",
"66 700 LINE",
"66 165 LINE",
"146 165 LINE"
);
},
{
closed = 1;
nodes = (
"66 0 LINE",
"146 0 LINE",
"146 103 LINE",
"66 103 LINE"
);
}
);
};
hints = (
{
place = "{66, 80}";
},
{
horizontal = 1;
place = "{0, 103}";
},
{
horizontal = 1;
place = "{700, -20}";
target = down;
type = TopGhost;
}
);
layerId = UUID0;
paths = (
{
closed = 1;
nodes = (
"146 165 LINE",
"146 700 LINE",
"66 700 LINE",
"66 165 LINE"
);
},
{
closed = 1;
nodes = (
"146 0 LINE",
"146 103 LINE",
"66 103 LINE",
"66 0 LINE"
);
}
);
width = 209;
}
);
unicode = 0021;
},
{
glyphname = exclamdown;
lastChange = "2016-08-11 09:49:33 +0000";
layers = (
{
background = {
paths = (
{
closed = 1;
nodes = (
"66 0 LINE",
"146 0 LINE",
"146 534 LINE",
"66 534 LINE"
);
},
{
closed = 1;
nodes = (
"147 700 LINE",
"67 700 LINE",
"67 596 LINE",
"147 596 LINE"
);
}
);
};
hints = (
{
place = "{66, 80}";
},
{
horizontal = 1;
place = "{596, 104}";
},
{
horizontal = 1;
place = "{0, 21}";
target = up;
type = BottomGhost;
}
);
layerId = UUID0;
paths = (
{
closed = 1;
nodes = (
"146 0 LINE",
"146 534 LINE",
"66 534 LINE",
"66 0 LINE"
);
},
{
closed = 1;
nodes = (
"147 596 LINE",
"147 700 LINE",
"67 700 LINE",
"67 596 LINE"
);
}
);
width = 214;
}
);
unicode = 00A1;
},
{
glyphname = numbersign;
lastChange = "2016-08-11 09:49:33 +0000";
layers = (
{
background = {
paths = (
{
closed = 1;
nodes = (
"50 434 LINE",
"170 434 LINE",
"170 269 LINE",
"50 269 LINE",
"50 203 LINE",
"170 203 LINE",
"170 0 LINE",
"250 0 LINE",
"250 203 LINE",
"354 203 LINE",
"354 0 LINE",
"434 0 LINE",
"434 203 LINE",
"550 203 LINE",
"550 269 LINE",
"434 269 LINE",
"434 434 LINE",
"550 434 LINE",
"550 500 LINE",
"434 500 LINE",
"434 700 LINE",
"354 700 LINE",
"354 500 LINE",
"250 500 LINE",
"250 700 LINE",
"170 700 LINE",
"170 500 LINE",
"50 500 LINE"
);
},
{
closed = 1;
nodes = (
"250 434 LINE",
"354 434 LINE",
"354 269 LINE",
"250 269 LINE"
);
}
);
};
hints = (
{
place = "{170, 80}";
},
{
place = "{354, 80}";
},
{
horizontal = 1;
place = "{203, 66}";
},
{
horizontal = 1;
place = "{434, 66}";
},
{
horizontal = 1;
place = "{0, 21}";
target = up;
type = BottomGhost;
},
{
horizontal = 1;
place = "{700, -20}";
target = down;
type = TopGhost;
}
);
layerId = UUID0;
paths = (
{
closed = 1;
nodes = (
"250 0 LINE",
"250 203 LINE",
"354 203 LINE",
"354 0 LINE",
"434 0 LINE",
"434 203 LINE",
"550 203 LINE",
"550 269 LINE",
"434 269 LINE",
"434 434 LINE",
"550 434 LINE",
"550 500 LINE",
"434 500 LINE",
"434 700 LINE",
"354 700 LINE",
"354 500 LINE",
"250 500 LINE",
"250 700 LINE",
"170 700 LINE",
"170 500 LINE",
"50 500 LINE",
"50 434 LINE",
"170 434 LINE",
"170 269 LINE",
"50 269 LINE",
"50 203 LINE",
"170 203 LINE",
"170 0 LINE"
);
},
{
closed = 1;
nodes = (
"250 434 LINE",
"354 434 LINE",
"354 269 LINE",
"250 269 LINE"
);
}
);
width = 597;
}
);
unicode = 0023;
},
{
glyphname = period;
lastChange = "2016-08-11 09:49:33 +0000";
layers = (
{
background = {
paths = (
{
closed = 1;
nodes = (
"41 0 LINE",
"121 0 LINE",
"121 103 LINE",
"41 103 LINE"
);
}
);
};
hints = (
{
place = "{41, 80}";
},
{
horizontal = 1;
place = "{0, 103}";
}
);
layerId = UUID0;
paths = (
{
closed = 1;
nodes = (
"121 0 LINE",
"121 103 LINE",
"41 103 LINE",
"41 0 LINE"
);
}
);
width = 174;
}
);
unicode = 002E;
},
{
glyphname = question;
lastChange = "2016-08-11 09:49:33 +0000";
layers = (
{
background = {
paths = (
{
closed = 1;
nodes = (
"219 634 LINE SMOOTH",
"298 634 OFFCURVE",
"330 596 OFFCURVE",
"330 541 CURVE SMOOTH",
"330 421 OFFCURVE",
"170 393 OFFCURVE",
"170 232 CURVE SMOOTH",
"170 174 LINE",
"250 174 LINE",
"250 237 LINE SMOOTH",
"250 375 OFFCURVE",
"411 396 OFFCURVE",
"411 549 CURVE SMOOTH",
"411 642 OFFCURVE",
"346 700 OFFCURVE",
"238 700 CURVE SMOOTH",
"125 700 LINE",
"125 634 LINE"
);
},
{
closed = 1;
nodes = (
"170 0 LINE",
"250 0 LINE",
"250 90 LINE",
"170 90 LINE"
);
}
);
};
hints = (
{
place = "{170, 80}";
},
{
place = "{330, 81}";
},
{
horizontal = 1;
place = "{0, 90}";
},
{
horizontal = 1;
place = "{634, 66}";
}
);
layerId = UUID0;
paths = (
{
closed = 1;
nodes = (
"250 174 LINE",
"250 237 LINE SMOOTH",
"250 375 OFFCURVE",
"411 396 OFFCURVE",
"411 549 CURVE SMOOTH",
"411 642 OFFCURVE",
"346 700 OFFCURVE",
"238 700 CURVE SMOOTH",
"125 700 LINE",
"125 634 LINE",
"219 634 LINE SMOOTH",
"298 634 OFFCURVE",
"330 596 OFFCURVE",
"330 541 CURVE SMOOTH",
"330 421 OFFCURVE",
"170 393 OFFCURVE",
"170 232 CURVE SMOOTH",
"170 174 LINE"
);
},
{
closed = 1;
nodes = (
"250 0 LINE",
"250 90 LINE",
"170 90 LINE",
"170 0 LINE"
);
}
);
width = 517;
}
);
unicode = 003F;
},
{
glyphname = questiondown;
lastChange = "2016-08-11 09:49:33 +0000";
layers = (
{
background = {
paths = (
{
closed = 1;
nodes = (
"275 66 LINE SMOOTH",
"196 66 OFFCURVE",
"164 104 OFFCURVE",
"164 159 CURVE SMOOTH",
"164 279 OFFCURVE",
"322 307 OFFCURVE",
"322 468 CURVE SMOOTH",
"322 526 LINE",
"242 526 LINE",
"242 463 LINE SMOOTH",
"242 325 OFFCURVE",
"81 304 OFFCURVE",
"81 151 CURVE SMOOTH",
"81 58 OFFCURVE",
"146 0 OFFCURVE",
"254 0 CURVE SMOOTH",
"369 0 LINE",
"369 66 LINE"
);
},
{
closed = 1;
nodes = (
"322 700 LINE",
"242 700 LINE",
"242 610 LINE",
"322 610 LINE"
);
}
);
};
hints = (
{
place = "{81, 83}";
},
{
place = "{242, 80}";
},
{
horizontal = 1;
place = "{0, 66}";
},
{
horizontal = 1;
place = "{610, 90}";
},
{
horizontal = 1;
place = "{526, -20}";
target = down;
type = TopGhost;
}
);
layerId = UUID0;
paths = (
{
closed = 1;
nodes = (
"369 0 LINE",
"369 66 LINE",
"275 66 LINE SMOOTH",
"196 66 OFFCURVE",
"164 104 OFFCURVE",
"164 159 CURVE SMOOTH",
"164 279 OFFCURVE",
"322 307 OFFCURVE",
"322 468 CURVE SMOOTH",
"322 526 LINE",
"242 526 LINE",
"242 463 LINE SMOOTH",
"242 325 OFFCURVE",
"81 304 OFFCURVE",
"81 151 CURVE SMOOTH",
"81 58 OFFCURVE",
"146 0 OFFCURVE",
"254 0 CURVE SMOOTH"
);
},
{
closed = 1;
nodes = (
"322 610 LINE",
"322 700 LINE",
"242 700 LINE",
"242 610 LINE"
);
}
);
width = 485;
}
);
unicode = 00BF;
},
{
glyphname = quotedbl;
lastChange = "2016-08-11 09:49:33 +0000";
layers = (
{
background = {
paths = (
{
closed = 1;
nodes = (
"280 700 LINE",
"200 700 LINE",
"200 510 LINE",
"280 510 LINE"
);
},
{
closed = 1;
nodes = (
"140 700 LINE",
"60 700 LINE",
"60 510 LINE",
"140 510 LINE"
);
},
{
closed = 1;
nodes = (
"144 700 LINE",
"64 700 LINE",
"51 510 LINE",
"135 510 LINE"
);
},
{
closed = 1;
nodes = (
"284 700 LINE",
"204 700 LINE",
"191 510 LINE",
"275 510 LINE"
);
}
);
};
hints = (
{
place = "{57, 82}";
},
{
place = "{197, 82}";
},
{
horizontal = 1;
place = "{510, 190}";
}
);
layerId = UUID0;
paths = (
{
closed = 1;
nodes = (
"275 510 LINE",
"284 700 LINE",
"204 700 LINE",
"191 510 LINE"
);
},
{
closed = 1;
nodes = (
"135 510 LINE",
"144 700 LINE",
"64 700 LINE",
"51 510 LINE"
);
}
);
width = 346;
}
);
unicode = 0022;
},
{
glyphname = quotesingle;
lastChange = "2016-08-11 09:49:33 +0000";
layers = (
{
background = {
paths = (
{
closed = 1;
nodes = (
"150 700 LINE",
"60 700 LINE",
"60 510 LINE",
"150 510 LINE"
);
},
{
closed = 1;
nodes = (
"144 700 LINE",
"64 700 LINE",
"51 510 LINE",
"136 510 LINE"
);
}
);
};
hints = (
{
place = "{57, 83}";
},
{
horizontal = 1;
place = "{510, 190}";
}
);
layerId = UUID0;
paths = (
{
closed = 1;
nodes = (
"136 510 LINE",
"144 700 LINE",
"64 700 LINE",
"51 510 LINE"
);
}
);
width = 202;
}
);
unicode = 0027;
},
{
glyphname = semicolon;
lastChange = "2016-08-11 09:49:33 +0000";
layers = (
{
background = {
paths = (
{
closed = 1;
nodes = (
"42 416 LINE",
"122 416 LINE",
"122 519 LINE",
"42 519 LINE"
);
},
{
closed = 1;
nodes = (
"0 -123 LINE",
"61 -123 LINE",
"122 1 LINE",
"122 103 LINE",
"43 103 LINE",
"43 0 LINE"
);
}
);
};
hints = (
{
place = "{42, 80}";
},
{
horizontal = 1;
place = "{-123, 226}";
},
{
horizontal = 1;
place = "{416, 103}";
}
);
layerId = UUID0;
paths = (
{
closed = 1;
nodes = (
"61 -123 LINE",
"122 1 LINE",
"122 103 LINE",
"43 103 LINE",
"43 0 LINE",
"0 -123 LINE"
);
},
{
closed = 1;
nodes = (
"122 416 LINE",
"122 519 LINE",
"42 519 LINE",
"42 416 LINE"
);
}
);
width = 122;
}
);
unicode = 003B;
},
{
glyphname = slash;
lastChange = "2016-08-11 09:46:07 +0000";
layers = (
{
background = {
paths = (
{
closed = 1;
nodes = (
"108 0 LINE",
"377 700 LINE",
"295 700 LINE",
"21 0 LINE"
);
}
);
};
hints = (
{
horizontal = 1;
place = "{0, 21}";
target = up;
type = BottomGhost;
},
{
horizontal = 1;
place = "{700, -20}";
target = down;
type = TopGhost;
}
);
layerId = UUID0;
paths = (
{
closed = 1;
nodes = (
"108 0 LINE",
"377 700 LINE",
"295 700 LINE",
"21 0 LINE"
);
}
);
width = 399;
}
);
unicode = 002F;
},
{
glyphname = underscore;
lastChange = "2016-08-11 09:49:33 +0000";
layers = (
{
background = {
paths = (
{
closed = 1;
nodes = (
"0 -80 LINE",
"0 0 LINE",
"300 0 LINE",
"300 -80 LINE"
);
},
{
closed = 1;
nodes = (
"0 -66 LINE",
"0 0 LINE",
"300 0 LINE",
"300 -66 LINE"
);
}
);
};
hints = (
{
horizontal = 1;
place = "{-66, 66}";
}
);
layerId = UUID0;
paths = (
{
closed = 1;
nodes = (
"300 -66 LINE",
"300 0 LINE",
"0 0 LINE",
"0 -66 LINE"
);
}
);
width = 301;
}
);
unicode = 005F;
},
{
glyphname = braceleft;
lastChange = "2016-08-11 09:49:33 +0000";
layers = (
{
background = {
paths = (
{
closed = 1;
nodes = (
"185 329 OFFCURVE",
"205 364 OFFCURVE",
"205 404 CURVE SMOOTH",
"205 615 LINE SMOOTH",
"205 656 OFFCURVE",
"241 690 OFFCURVE",
"289 690 CURVE",
"289 760 LINE",
"197 760 OFFCURVE",
"125 691 OFFCURVE",
"125 605 CURVE SMOOTH",
"125 394 LINE SMOOTH",
"125 364 OFFCURVE",
"101 340 OFFCURVE",
"70 340 CURVE SMOOTH",
"50 340 LINE",
"50 270 LINE",
"70 270 LINE SMOOTH",
"101 270 OFFCURVE",
"125 246 OFFCURVE",
"125 216 CURVE SMOOTH",
"125 5 LINE SMOOTH",
"125 -81 OFFCURVE",
"197 -150 OFFCURVE",
"289 -150 CURVE",
"289 -80 LINE",
"241 -80 OFFCURVE",
"205 -46 OFFCURVE",
"205 -5 CURVE SMOOTH",
"205 206 LINE SMOOTH",
"205 246 OFFCURVE",
"185 281 OFFCURVE",
"157 305 CURVE"
);
}
);
};
hints = (
{
place = "{125, 164}";
},
{
place = "{125, 80}";
},
{
horizontal = 1;
place = "{-150, 70}";
},
{
horizontal = 1;
place = "{270, 70}";
},
{
horizontal = 1;
place = "{690, 70}";
}
);
layerId = UUID0;
paths = (
{
closed = 1;
nodes = (
"289 -80 LINE",
"241 -80 OFFCURVE",
"205 -46 OFFCURVE",
"205 -5 CURVE SMOOTH",
"205 206 LINE SMOOTH",
"205 246 OFFCURVE",
"185 281 OFFCURVE",
"157 305 CURVE",
"157 305 LINE",
"185 329 OFFCURVE",
"205 364 OFFCURVE",
"205 404 CURVE SMOOTH",
"205 615 LINE SMOOTH",
"205 656 OFFCURVE",
"241 690 OFFCURVE",
"289 690 CURVE",
"289 760 LINE",
"197 760 OFFCURVE",
"125 691 OFFCURVE",
"125 605 CURVE SMOOTH",
"125 394 LINE SMOOTH",
"125 364 OFFCURVE",
"101 340 OFFCURVE",
"70 340 CURVE SMOOTH",
"50 340 LINE",
"50 270 LINE",
"70 270 LINE SMOOTH",
"101 270 OFFCURVE",
"125 246 OFFCURVE",
"125 216 CURVE SMOOTH",
"125 5 LINE SMOOTH",
"125 -81 OFFCURVE",
"197 -150 OFFCURVE",
"289 -150 CURVE"
);
}
);
width = 359;
}
);
unicode = 007B;
},
{
glyphname = braceright;
lastChange = "2016-08-11 09:49:33 +0000";
layers = (
{
background = {
paths = (
{
closed = 1;
nodes = (
"177 281 OFFCURVE",
"157 246 OFFCURVE",
"157 206 CURVE SMOOTH",
"157 -5 LINE SMOOTH",
"157 -46 OFFCURVE",
"120 -80 OFFCURVE",
"72 -80 CURVE",
"72 -150 LINE",
"164 -150 OFFCURVE",
"237 -81 OFFCURVE",
"237 5 CURVE SMOOTH",
"237 216 LINE SMOOTH",
"237 246 OFFCURVE",
"261 270 OFFCURVE",
"292 270 CURVE SMOOTH",
"312 270 LINE",
"312 340 LINE",
"292 340 LINE SMOOTH",
"261 340 OFFCURVE",
"237 364 OFFCURVE",
"237 394 CURVE SMOOTH",
"237 605 LINE SMOOTH",
"237 691 OFFCURVE",
"164 760 OFFCURVE",
"72 760 CURVE",
"72 690 LINE",
"120 690 OFFCURVE",
"157 656 OFFCURVE",
"157 615 CURVE SMOOTH",
"157 404 LINE SMOOTH",
"157 364 OFFCURVE",
"177 329 OFFCURVE",
"205 305 CURVE"
);
}
);
};
hints = (
{
place = "{72, 165}";
},
{
place = "{157, 80}";
},
{
horizontal = 1;
place = "{-150, 70}";
},
{
horizontal = 1;
place = "{270, 70}";
},
{
horizontal = 1;
place = "{690, 70}";
}
);
layerId = UUID0;
paths = (
{
closed = 1;
nodes = (
"164 -150 OFFCURVE",
"237 -81 OFFCURVE",
"237 5 CURVE SMOOTH",
"237 216 LINE SMOOTH",
"237 246 OFFCURVE",
"261 270 OFFCURVE",
"292 270 CURVE SMOOTH",
"312 270 LINE",
"312 340 LINE",
"292 340 LINE SMOOTH",
"261 340 OFFCURVE",
"237 364 OFFCURVE",
"237 394 CURVE SMOOTH",
"237 605 LINE SMOOTH",
"237 691 OFFCURVE",
"164 760 OFFCURVE",
"72 760 CURVE",
"72 690 LINE",
"120 690 OFFCURVE",
"157 656 OFFCURVE",
"157 615 CURVE SMOOTH",
"157 404 LINE SMOOTH",
"157 364 OFFCURVE",
"177 329 OFFCURVE",
"205 305 CURVE",
"205 305 LINE",
"177 281 OFFCURVE",
"157 246 OFFCURVE",
"157 206 CURVE SMOOTH",
"157 -5 LINE SMOOTH",
"157 -46 OFFCURVE",
"120 -80 OFFCURVE",
"72 -80 CURVE",
"72 -150 LINE"
);
}
);
width = 404;
}
);
unicode = 007D;
},
{
glyphname = bracketleft;
lastChange = "2016-08-11 09:49:33 +0000";
layers = (
{
background = {
paths = (
{
closed = 1;
nodes = (
"30 -140 LINE",
"240 -140 LINE",
"240 -74 LINE",
"110 -74 LINE",
"110 684 LINE",
"240 684 LINE",
"240 750 LINE",
"30 750 LINE"
);
}
);
};
hints = (
{
place = "{30, 80}";
},
{
place = "{30, 210}";
},
{
horizontal = 1;
place = "{-140, 66}";
},
{
horizontal = 1;
place = "{684, 66}";
}
);
layerId = UUID0;
paths = (
{
closed = 1;
nodes = (
"240 -140 LINE",
"240 -74 LINE",
"110 -74 LINE",
"110 684 LINE",
"240 684 LINE",
"240 750 LINE",
"30 750 LINE",
"30 -140 LINE"
);
}
);
width = 280;
}
);
unicode = 005B;
},
{
glyphname = bracketright;
lastChange = "2016-08-11 09:49:33 +0000";
layers = (
{
background = {
paths = (
{
closed = 1;
nodes = (
"240 750 LINE",
"30 750 LINE",
"30 684 LINE",
"160 684 LINE",
"160 -74 LINE",
"30 -74 LINE",
"30 -140 LINE",
"240 -140 LINE"
);
}
);
};
hints = (
{
place = "{30, 210}";
},
{
place = "{160, 80}";
},
{
horizontal = 1;
place = "{-140, 66}";
},
{
horizontal = 1;
place = "{684, 66}";
}
);
layerId = UUID0;
paths = (
{
closed = 1;
nodes = (
"240 -140 LINE",
"240 750 LINE",
"30 750 LINE",
"30 684 LINE",
"160 684 LINE",
"160 -74 LINE",
"30 -74 LINE",
"30 -140 LINE"
);
}
);
width = 291;
}
);
unicode = 005D;
},
{
glyphname = parenleft;
lastChange = "2016-08-11 09:49:33 +0000";
layers = (
{
background = {
paths = (
{
closed = 1;
nodes = (
"140 420 LINE SMOOTH",
"140 544 OFFCURVE",
"199 662 OFFCURVE",
"277 740 CURVE",
"190 740 LINE",
"190 740 OFFCURVE",
"60 620 OFFCURVE",
"60 421 CURVE SMOOTH",
"60 190 LINE SMOOTH",
"60 -10 OFFCURVE",
"190 -130 OFFCURVE",
"190 -130 CURVE",
"277 -130 LINE",
"195 -43 OFFCURVE",
"140 72 OFFCURVE",
"140 190 CURVE SMOOTH"
);
}
);
};
hints = (
{
place = "{60, 80}";
},
{
horizontal = 1;
place = "{740, -20}";
target = down;
type = TopGhost;
},
{
horizontal = 1;
place = "{-130, 21}";
target = up;
type = BottomGhost;
}
);
layerId = UUID0;
paths = (
{
closed = 1;
nodes = (
"277 -130 LINE",
"195 -43 OFFCURVE",
"140 72 OFFCURVE",
"140 190 CURVE SMOOTH",
"140 420 LINE SMOOTH",
"140 544 OFFCURVE",
"199 662 OFFCURVE",
"277 740 CURVE",
"190 740 LINE",
"190 740 OFFCURVE",
"60 620 OFFCURVE",
"60 421 CURVE SMOOTH",
"60 190 LINE SMOOTH",
"60 -10 OFFCURVE",
"190 -130 OFFCURVE",
"190 -130 CURVE"
);
}
);
width = 294;
}
);
unicode = 0028;
},
{
glyphname = emdash;
lastChange = "2016-08-11 09:49:33 +0000";
layers = (
{
background = {
paths = (
{
closed = 1;
nodes = (
"40 224 LINE",
"740 224 LINE",
"740 290 LINE",
"40 290 LINE"
);
}
);
};
hints = (
{
horizontal = 1;
place = "{224, 66}";
}
);
layerId = UUID0;
paths = (
{
closed = 1;
nodes = (
"740 224 LINE",
"740 290 LINE",
"40 290 LINE",
"40 224 LINE"
);
}
);
width = 833;
}
);
unicode = 2014;
},
{
glyphname = endash;
lastChange = "2016-08-11 09:49:33 +0000";
layers = (
{
background = {
paths = (
{
closed = 1;
nodes = (
"40 224 LINE",
"390 224 LINE",
"390 290 LINE",
"40 290 LINE"
);
}
);
};
hints = (
{
horizontal = 1;
place = "{224, 66}";
}
);
layerId = UUID0;
paths = (
{
closed = 1;
nodes = (
"390 224 LINE",
"390 290 LINE",
"40 290 LINE",
"40 224 LINE"
);
}
);
width = 435;
}
);
unicode = 2013;
},
{
glyphname = hyphen;
lastChange = "2016-08-11 09:49:33 +0000";
layers = (
{
background = {
paths = (
{
closed = 1;
nodes = (
"5 194 LINE",
"237 194 LINE",
"237 260 LINE",
"5 260 LINE"
);
}
);
};
hints = (
{
horizontal = 1;
place = "{194, 66}";
}
);
layerId = UUID0;
paths = (
{
closed = 1;
nodes = (
"237 194 LINE",
"237 260 LINE",
"5 260 LINE",
"5 194 LINE"
);
}
);
width = 242;
}
);
unicode = 002D;
},
{
glyphname = uni00AD;
lastChange = "2016-08-11 09:49:33 +0000";
layers = (
{
background = {
paths = (
{
closed = 1;
nodes = (
"30 309 LINE",
"342 309 LINE",
"342 375 LINE",
"30 375 LINE"
);
}
);
};
hints = (
{
horizontal = 1;
place = "{309, 66}";
}
);
layerId = UUID0;
paths = (
{
closed = 1;
nodes = (
"342 309 LINE",
"342 375 LINE",
"30 375 LINE",
"30 309 LINE"
);
}
);
width = 395;
}
);
unicode = 00AD;
},
{
glyphname = guillemotleft;
lastChange = "2016-08-11 09:49:33 +0000";
layers = (
{
background = {
paths = (
{
closed = 1;
nodes = (
"350 50 LINE",
"437 50 LINE",
"297 250 LINE",
"437 450 LINE",
"350 450 LINE",
"210 250 LINE"
);
},
{
closed = 1;
nodes = (
"170 50 LINE",
"257 50 LINE",
"117 250 LINE",
"257 450 LINE",
"170 450 LINE",
"30 250 LINE"
);
}
);
};
hints = (
{
horizontal = 1;
place = "{50, 21}";
target = up;
type = BottomGhost;
},
{
horizontal = 1;
place = "{450, -20}";
target = down;
type = TopGhost;
}
);
layerId = UUID0;
paths = (
{
closed = 1;
nodes = (
"437 50 LINE",
"297 250 LINE",
"437 450 LINE",
"350 450 LINE",
"210 250 LINE",
"350 50 LINE"
);
},
{
closed = 1;
nodes = (
"257 50 LINE",
"117 250 LINE",
"257 450 LINE",
"170 450 LINE",
"30 250 LINE",
"170 50 LINE"
);
}
);
width = 502;
}
);
unicode = 00AB;
},
{
glyphname = guillemotright;
lastChange = "2016-08-11 09:49:33 +0000";
layers = (
{
background = {
paths = (
{
closed = 1;
nodes = (
"152 449 LINE",
"65 449 LINE",
"205 249 LINE",
"65 49 LINE",
"152 49 LINE",
"292 249 LINE"
);
},
{
closed = 1;
nodes = (
"332 449 LINE",
"245 449 LINE",
"385 249 LINE",
"245 49 LINE",
"332 49 LINE",
"472 249 LINE"
);
}
);
};
hints = (
{
horizontal = 1;
place = "{449, -20}";
target = down;
type = TopGhost;
},
{
horizontal = 1;
place = "{49, 21}";
target = up;
type = BottomGhost;
}
);
layerId = UUID0;
paths = (
{
closed = 1;
nodes = (
"332 49 LINE",
"472 249 LINE",
"332 449 LINE",
"245 449 LINE",
"385 249 LINE",
"245 49 LINE"
);
},
{
closed = 1;
nodes = (
"152 49 LINE",
"292 249 LINE",
"152 449 LINE",
"65 449 LINE",
"205 249 LINE",
"65 49 LINE"
);
}
);
width = 502;
}
);
unicode = 00BB;
},
{
glyphname = guilsinglleft;
lastChange = "2016-08-11 09:49:33 +0000";
layers = (
{
background = {
paths = (
{
closed = 1;
nodes = (
"170 50 LINE",
"257 50 LINE",
"117 250 LINE",
"257 450 LINE",
"170 450 LINE",
"30 250 LINE"
);
}
);
};
hints = (
{
horizontal = 1;
place = "{50, 21}";
target = up;
type = BottomGhost;
},
{
horizontal = 1;
place = "{450, -20}";
target = down;
type = TopGhost;
}
);
layerId = UUID0;
paths = (
{
closed = 1;
nodes = (
"257 50 LINE",
"117 250 LINE",
"257 450 LINE",
"170 450 LINE",
"30 250 LINE",
"170 50 LINE"
);
}
);
width = 322;
}
);
unicode = 2039;
},
{
glyphname = guilsinglright;
lastChange = "2016-08-11 09:49:33 +0000";
layers = (
{
background = {
paths = (
{
closed = 1;
nodes = (
"152 449 LINE",
"65 449 LINE",
"205 249 LINE",
"65 49 LINE",
"152 49 LINE",
"292 249 LINE"
);
}
);
};
hints = (
{
horizontal = 1;
place = "{449, -20}";
target = down;
type = TopGhost;
},
{
horizontal = 1;
place = "{49, 21}";
target = up;
type = BottomGhost;
}
);
layerId = UUID0;
paths = (
{
closed = 1;
nodes = (
"152 49 LINE",
"292 249 LINE",
"152 449 LINE",
"65 449 LINE",
"205 249 LINE",
"65 49 LINE"
);
}
);
width = 322;
}
);
unicode = 203A;
},
{
glyphname = quotedblbase;
lastChange = "2016-08-11 09:49:33 +0000";
layers = (
{
background = {
paths = (
{
closed = 1;
nodes = (
"191 510 LINE",
"271 510 LINE",
"284 700 LINE",
"199 700 LINE"
);
},
{
closed = 1;
nodes = (
"51 510 LINE",
"131 510 LINE",
"144 700 LINE",
"59 700 LINE"
);
}
);
};
hints = (
{
place = "{55, 82}";
},
{
place = "{195, 82}";
},
{
horizontal = 1;
place = "{510, 190}";
}
);
layerId = UUID0;
paths = (
{
closed = 1;
nodes = (
"271 510 LINE",
"284 700 LINE",
"199 700 LINE",
"191 510 LINE"
);
},
{
closed = 1;
nodes = (
"131 510 LINE",
"144 700 LINE",
"59 700 LINE",
"51 510 LINE"
);
}
);
width = 317;
}
);
unicode = 201E;
},
{
glyphname = quotedblleft;
lastChange = "2016-08-11 09:49:33 +0000";
layers = (
{
background = {
paths = (
{
closed = 1;
nodes = (
"174 509 LINE",
"259 509 LINE",
"246 699 LINE",
"166 699 LINE"
);
},
{
closed = 1;
nodes = (
"34 509 LINE",
"119 509 LINE",
"106 699 LINE",
"26 699 LINE"
);
}
);
};
hints = (
{
place = "{30, 82}";
},
{
place = "{170, 82}";
},
{
horizontal = 1;
place = "{509, 190}";
}
);
layerId = UUID0;
paths = (
{
closed = 1;
nodes = (
"259 510 LINE",
"246 700 LINE",
"166 700 LINE",
"174 510 LINE"
);
},
{
closed = 1;
nodes = (
"119 510 LINE",
"106 700 LINE",
"26 700 LINE",
"34 510 LINE"
);
}
);
width = 298;
}
);
unicode = 201C;
},
{
glyphname = quotedblright;
lastChange = "2016-08-11 09:49:33 +0000";
layers = (
{
background = {
paths = (
{
closed = 1;
nodes = (
"166 -92 LINE",
"246 -92 LINE",
"259 98 LINE",
"174 98 LINE"
);
},
{
closed = 1;
nodes = (
"26 -92 LINE",
"106 -92 LINE",
"119 98 LINE",
"34 98 LINE"
);
}
);
};
hints = (
{
place = "{30, 82}";
},
{
place = "{170, 82}";
},
{
horizontal = 1;
place = "{-92, 190}";
}
);
layerId = UUID0;
paths = (
{
closed = 1;
nodes = (
"246 510 LINE",
"259 700 LINE",
"174 700 LINE",
"166 510 LINE"
);
},
{
closed = 1;
nodes = (
"106 510 LINE",
"119 700 LINE",
"34 700 LINE",
"26 510 LINE"
);
}
);
width = 320;
}
);
unicode = 201D;
},
{
glyphname = quoteleft;
lastChange = "2016-08-11 09:49:33 +0000";
layers = (
{
background = {
paths = (
{
closed = 1;
nodes = (
"112 98 LINE",
"27 98 LINE",
"40 -92 LINE",
"120 -92 LINE"
);
}
);
};
hints = (
{
place = "{33, 83}";
},
{
horizontal = 1;
place = "{-92, 190}";
}
);
layerId = UUID0;
paths = (
{
closed = 1;
nodes = (
"120 510 LINE",
"112 700 LINE",
"27 700 LINE",
"40 510 LINE"
);
}
);
width = 294;
}
);
unicode = 2018;
},
{
glyphname = quoteright;
lastChange = "2016-08-11 09:49:33 +0000";
layers = (
{
background = {
paths = (
{
closed = 1;
nodes = (
"27 -92 LINE",
"107 -92 LINE",
"120 98 LINE",
"35 98 LINE"
);
}
);
};
hints = (
{
place = "{31, 82}";
},
{
horizontal = 1;
place = "{-92, 190}";
}
);
layerId = UUID0;
paths = (
{
closed = 1;
nodes = (
"107 510 LINE",
"120 700 LINE",
"35 700 LINE",
"27 510 LINE"
);
}
);
width = 143;
}
);
unicode = 2019;
},
{
glyphname = quotesinglbase;
lastChange = "2016-08-11 09:49:33 +0000";
layers = (
{
background = {
paths = (
{
closed = 1;
nodes = (
"27 510 LINE",
"107 510 LINE",
"120 700 LINE",
"35 700 LINE"
);
}
);
};
hints = (
{
place = "{31, 82}";
},
{
horizontal = 1;
place = "{510, 190}";
}
);
layerId = UUID0;
paths = (
{
closed = 1;
nodes = (
"107 510 LINE",
"120 700 LINE",
"35 700 LINE",
"27 510 LINE"
);
}
);
width = 151;
}
);
unicode = 201A;
},
{
glyphname = Euro;
lastChange = "2016-08-11 09:49:33 +0000";
layers = (
{
background = {
paths = (
{
closed = 1;
nodes = (
"227 245 LINE",
"526 245 LINE",
"526 311 LINE",
"227 311 LINE",
"227 423 LINE",
"528 423 LINE",
"528 489 LINE",
"227 489 LINE",
"227 537 LINE SMOOTH",
"227 597 OFFCURVE",
"270 634 OFFCURVE",
"330 634 CURVE SMOOTH",
"541 634 LINE",
"541 700 LINE",
"338 700 LINE SMOOTH",
"218 700 OFFCURVE",
"147 639 OFFCURVE",
"147 519 CURVE SMOOTH",
"147 489 LINE",
"75 489 LINE",
"75 423 LINE",
"147 423 LINE",
"147 311 LINE",
"76 311 LINE",
"76 245 LINE",
"147 245 LINE",
"147 181 LINE SMOOTH",
"147 61 OFFCURVE",
"218 0 OFFCURVE",
"338 0 CURVE SMOOTH",
"542 0 LINE",
"542 66 LINE",
"331 66 LINE SMOOTH",
"271 66 OFFCURVE",
"227 103 OFFCURVE",
"227 163 CURVE SMOOTH"
);
}
);
};
hints = (
{
place = "{147, 80}";
},
{
horizontal = 1;
place = "{0, 66}";
},
{
horizontal = 1;
place = "{245, 66}";
},
{
horizontal = 1;
place = "{423, 66}";
},
{
horizontal = 1;
place = "{634, 66}";
}
);
layerId = UUID0;
paths = (
{
closed = 1;
nodes = (
"542 0 LINE",
"542 66 LINE",
"331 66 LINE SMOOTH",
"271 66 OFFCURVE",
"227 103 OFFCURVE",
"227 163 CURVE SMOOTH",
"227 245 LINE",
"526 245 LINE",
"526 311 LINE",
"227 311 LINE",
"227 423 LINE",
"528 423 LINE",
"528 489 LINE",
"227 489 LINE",
"227 537 LINE SMOOTH",
"227 597 OFFCURVE",
"270 634 OFFCURVE",
"330 634 CURVE SMOOTH",
"541 634 LINE",
"541 700 LINE",
"338 700 LINE SMOOTH",
"218 700 OFFCURVE",
"147 639 OFFCURVE",
"147 519 CURVE SMOOTH",
"147 489 LINE",
"75 489 LINE",
"75 423 LINE",
"147 423 LINE",
"147 311 LINE",
"76 311 LINE",
"76 245 LINE",
"147 245 LINE",
"147 181 LINE SMOOTH",
"147 61 OFFCURVE",
"218 0 OFFCURVE",
"338 0 CURVE SMOOTH"
);
}
);
width = 615;
}
);
unicode = 20AC;
},
{
glyphname = cent;
lastChange = "2016-08-11 09:49:33 +0000";
layers = (
{
background = {
paths = (
{
closed = 1;
nodes = (
"277 0 LINE",
"378 0 LINE",
"378 60 LINE",
"277 60 LINE",
"277 460 LINE",
"378 460 LINE",
"378 520 LINE",
"277 520 LINE",
"277 630 LINE",
"197 630 LINE",
"197 520 LINE",
"169 520 LINE SMOOTH",
"85 520 OFFCURVE",
"40 472 OFFCURVE",
"40 388 CURVE SMOOTH",
"40 122 LINE SMOOTH",
"40 48 OFFCURVE",
"86 0 OFFCURVE",
"160 0 CURVE SMOOTH",
"197 0 LINE",
"197 -105 LINE",
"277 -105 LINE"
);
},
{
closed = 1;
nodes = (
"197 60 LINE",
"172 60 LINE SMOOTH",
"141 60 OFFCURVE",
"120 84 OFFCURVE",
"120 115 CURVE SMOOTH",
"120 405 LINE SMOOTH",
"120 436 OFFCURVE",
"140 460 OFFCURVE",
"171 460 CURVE SMOOTH",
"197 460 LINE"
);
}
);
};
hints = (
{
place = "{40, 80}";
},
{
place = "{197, 80}";
},
{
horizontal = 1;
place = "{148, 60}";
},
{
horizontal = 1;
place = "{508, 60}";
},
{
horizontal = 1;
place = "{700, -20}";
target = down;
type = TopGhost;
},
{
horizontal = 1;
place = "{0, 21}";
target = up;
type = BottomGhost;
}
);
layerId = UUID0;
paths = (
{
closed = 1;
nodes = (
"277 0 LINE",
"277 148 LINE",
"378 148 LINE",
"378 208 LINE",
"277 208 LINE",
"277 508 LINE",
"378 508 LINE",
"378 568 LINE",
"277 568 LINE",
"277 700 LINE",
"197 700 LINE",
"197 568 LINE",
"169 568 LINE SMOOTH",
"85 568 OFFCURVE",
"40 520 OFFCURVE",
"40 436 CURVE SMOOTH",
"40 270 LINE SMOOTH",
"40 196 OFFCURVE",
"86 148 OFFCURVE",
"160 148 CURVE SMOOTH",
"197 148 LINE",
"197 0 LINE"
);
},
{
closed = 1;
nodes = (
"141 208 OFFCURVE",
"120 232 OFFCURVE",
"120 263 CURVE SMOOTH",
"120 453 LINE SMOOTH",
"120 484 OFFCURVE",
"140 508 OFFCURVE",
"171 508 CURVE SMOOTH",
"197 508 LINE",
"197 208 LINE",
"172 208 LINE SMOOTH"
);
}
);
width = 420;
}
);
unicode = 00A2;
},
{
glyphname = currency;
lastChange = "2016-08-11 09:49:33 +0000";
layers = (
{
background = {
paths = (
{
closed = 1;
nodes = (
"411 235 LINE",
"440 270 LINE",
"440 350 LINE",
"440 430 LINE",
"383 500 LINE",
"325 500 LINE",
"266 500 LINE",
"210 431 LINE",
"210 350 LINE",
"210 269 LINE",
"266 200 LINE",
"325 200 LINE",
"382 200 LINE"
);
},
{
closed = 1;
nodes = (
"215 165 LINE",
"145 85 LINE",
"80 150 LINE",
"155 215 LINE",
"130 264 LINE",
"130 350 LINE",
"130 436 LINE",
"155 485 LINE",
"80 550 LINE",
"145 615 LINE",
"215 535 LINE",
"267 560 LINE",
"325 560 LINE",
"382 560 LINE",
"435 535 LINE",
"505 615 LINE",
"570 550 LINE",
"495 485 LINE",
"520 436 LINE",
"520 350 LINE",
"520 264 LINE",
"495 215 LINE",
"570 150 LINE",
"505 85 LINE",
"435 165 LINE",
"409 152 LINE",
"354 140 LINE",
"325 140 LINE",
"296 140 LINE",
"240 152 LINE"
);
},
{
closed = 1;
nodes = (
"87 93 LINE",
"141 44 LINE",
"199 109 LINE",
"231 86 OFFCURVE",
"276 73 OFFCURVE",
"323 73 CURVE SMOOTH",
"369 73 OFFCURVE",
"413 85 OFFCURVE",
"446 108 CURVE",
"506 40 LINE",
"561 87 LINE",
"491 163 LINE",
"497 177 OFFCURVE",
"500 191 OFFCURVE",
"500 207 CURVE SMOOTH",
"500 384 LINE SMOOTH",
"500 403 OFFCURVE",
"495 421 OFFCURVE",
"487 436 CURVE",
"556 515 LINE",
"506 559 LINE",
"441 486 LINE",
"409 506 OFFCURVE",
"367 518 OFFCURVE",
"323 518 CURVE SMOOTH",
"278 518 OFFCURVE",
"235 506 OFFCURVE",
"203 485 CURVE",
"140 555 LINE",
"89 513 LINE",
"158 434 LINE",
"150 419 OFFCURVE",
"146 402 OFFCURVE",
"146 384 CURVE SMOOTH",
"146 207 LINE SMOOTH",
"146 192 OFFCURVE",
"148 178 OFFCURVE",
"153 166 CURVE"
);
},
{
closed = 1;
nodes = (
"226 380 LINE SMOOTH",
"226 428 OFFCURVE",
"282 452 OFFCURVE",
"323 452 CURVE SMOOTH",
"364 452 OFFCURVE",
"420 428 OFFCURVE",
"420 380 CURVE SMOOTH",
"420 211 LINE SMOOTH",
"420 163 OFFCURVE",
"364 139 OFFCURVE",
"323 139 CURVE SMOOTH",
"282 139 OFFCURVE",
"226 163 OFFCURVE",
"226 211 CURVE"
);
}
);
};
hints = (
{
place = "{146, 80}";
},
{
place = "{420, 80}";
},
{
horizontal = 1;
place = "{73, 66}";
},
{
horizontal = 1;
place = "{452, 66}";
},
{
horizontal = 1;
place = "{40, 21}";
target = up;
type = BottomGhost;
},
{
horizontal = 1;
place = "{559, -20}";
target = down;
type = TopGhost;
}
);
layerId = UUID0;
paths = (
{
closed = 1;
nodes = (
"561 87 LINE",
"491 163 LINE",
"497 177 OFFCURVE",
"500 191 OFFCURVE",
"500 207 CURVE SMOOTH",
"500 384 LINE SMOOTH",
"500 403 OFFCURVE",
"495 421 OFFCURVE",
"487 436 CURVE",
"556 515 LINE",
"506 559 LINE",
"441 486 LINE",
"409 506 OFFCURVE",
"367 518 OFFCURVE",
"323 518 CURVE SMOOTH",
"278 518 OFFCURVE",
"235 506 OFFCURVE",
"203 485 CURVE",
"140 555 LINE",
"89 513 LINE",
"158 434 LINE",
"150 419 OFFCURVE",
"146 402 OFFCURVE",
"146 384 CURVE SMOOTH",
"146 207 LINE SMOOTH",
"146 192 OFFCURVE",
"148 178 OFFCURVE",
"153 166 CURVE",
"87 93 LINE",
"141 44 LINE",
"199 109 LINE",
"231 86 OFFCURVE",
"276 73 OFFCURVE",
"323 73 CURVE SMOOTH",
"369 73 OFFCURVE",
"413 85 OFFCURVE",
"446 108 CURVE",
"506 40 LINE"
);
},
{
closed = 1;
nodes = (
"282 139 OFFCURVE",
"226 163 OFFCURVE",
"226 211 CURVE SMOOTH",
"226 211 LINE",
"226 380 LINE SMOOTH",
"226 428 OFFCURVE",
"282 452 OFFCURVE",
"323 452 CURVE SMOOTH",
"364 452 OFFCURVE",
"420 428 OFFCURVE",
"420 380 CURVE SMOOTH",
"420 211 LINE SMOOTH",
"420 163 OFFCURVE",
"364 139 OFFCURVE",
"323 139 CURVE SMOOTH"
);
}
);
width = 648;
}
);
unicode = 00A4;
},
{
glyphname = dollar;
lastChange = "2016-08-11 09:49:33 +0000";
layers = (
{
background = {
paths = (
{
closed = 1;
nodes = (
"-13 398 OFFCURVE",
"-238 302 OFFCURVE",
"-238 522 CURVE SMOOTH",
"-238 606 OFFCURVE",
"-190 667 OFFCURVE",
"-116 690 CURVE",
"-116 790 LINE",
"-36 790 LINE",
"-36 700 LINE",
"25 700 LINE",
"25 632 LINE",
"-52 632 LINE SMOOTH",
"-121 632 OFFCURVE",
"-151 575 OFFCURVE",
"-151 533 CURVE SMOOTH",
"-151 379 OFFCURVE",
"75 418 OFFCURVE",
"75 191 CURVE SMOOTH",
"75 96 OFFCURVE",
"33 39 OFFCURVE",
"-36 14 CURVE",
"-36 -90 LINE",
"-116 -90 LINE",
"-116 0 LINE",
"-230 0 LINE",
"-230 68 LINE",
"-122 68 LINE SMOOTH",
"-38 68 OFFCURVE",
"-13 128 OFFCURVE",
"-13 181 CURVE SMOOTH"
);
},
{
closed = 1;
nodes = (
"364 580 LINE",
"284 589 LINE",
"284 700 LINE",
"364 700 LINE"
);
},
{
closed = 1;
nodes = (
"284 128 LINE",
"364 128 LINE",
"364 0 LINE",
"284 0 LINE"
);
},
{
closed = 1;
nodes = (
"387 342 OFFCURVE",
"163 311 OFFCURVE",
"163 472 CURVE SMOOTH",
"163 555 OFFCURVE",
"228 610 OFFCURVE",
"344 610 CURVE SMOOTH",
"425 610 LINE",
"425 544 LINE",
"348 544 LINE SMOOTH",
"279 544 OFFCURVE",
"250 511 OFFCURVE",
"250 485 CURVE SMOOTH",
"250 381 OFFCURVE",
"475 404 OFFCURVE",
"475 241 CURVE SMOOTH",
"475 139 OFFCURVE",
"395 90 OFFCURVE",
"275 90 CURVE SMOOTH",
"170 90 LINE",
"170 156 LINE",
"279 156 LINE SMOOTH",
"362 156 OFFCURVE",
"387 197 OFFCURVE",
"387 231 CURVE SMOOTH"
);
}
);
};
hints = (
{
place = "{163, 87}";
},
{
place = "{284, 80}";
},
{
place = "{387, 88}";
},
{
place = "{284, 141}";
},
{
horizontal = 1;
place = "{0, 156}";
},
{
horizontal = 1;
place = "{90, 66}";
},
{
horizontal = 1;
place = "{544, 66}";
},
{
horizontal = 1;
place = "{544, 156}";
}
);
layerId = UUID0;
paths = (
{
closed = 1;
nodes = (
"364 0 LINE",
"364 101 LINE",
"433 121 OFFCURVE",
"475 167 OFFCURVE",
"475 241 CURVE SMOOTH",
"475 404 OFFCURVE",
"250 381 OFFCURVE",
"250 485 CURVE SMOOTH",
"250 511 OFFCURVE",
"279 544 OFFCURVE",
"348 544 CURVE SMOOTH",
"425 544 LINE",
"425 610 LINE",
"364 610 LINE",
"364 700 LINE",
"284 700 LINE",
"284 604 LINE",
"206 588 OFFCURVE",
"163 539 OFFCURVE",
"163 472 CURVE SMOOTH",
"163 311 OFFCURVE",
"387 342 OFFCURVE",
"387 231 CURVE SMOOTH",
"387 231 LINE SMOOTH",
"387 197 OFFCURVE",
"362 156 OFFCURVE",
"279 156 CURVE SMOOTH",
"170 156 LINE",
"170 90 LINE",
"284 90 LINE",
"284 0 LINE"
);
}
);
width = 564;
}
);
unicode = 0024;
},
{
glyphname = sterling;
lastChange = "2016-08-11 09:49:33 +0000";
layers = (
{
background = {
paths = (
{
closed = 1;
nodes = (
"71 375 LINE",
"9 375 LINE",
"9 441 LINE",
"71 441 LINE",
"71 578 LINE SMOOTH",
"71 652 OFFCURVE",
"116 700 OFFCURVE",
"190 700 CURVE SMOOTH",
"367 700 LINE",
"367 632 LINE",
"210 632 LINE SMOOTH",
"179 632 OFFCURVE",
"157 608 OFFCURVE",
"157 577 CURVE SMOOTH",
"157 441 LINE",
"366 441 LINE",
"366 375 LINE",
"159 375 LINE",
"159 67 LINE",
"366 67 LINE",
"366 0 LINE",
"71 0 LINE"
);
}
);
};
hints = (
{
place = "{71, 88}";
},
{
horizontal = 1;
place = "{0, 67}";
},
{
horizontal = 1;
place = "{375, 66}";
},
{
horizontal = 1;
place = "{632, 68}";
}
);
layerId = UUID0;
paths = (
{
closed = 1;
nodes = (
"366 0 LINE",
"366 67 LINE",
"159 67 LINE",
"159 375 LINE",
"366 375 LINE",
"366 441 LINE",
"157 441 LINE",
"157 577 LINE SMOOTH",
"157 608 OFFCURVE",
"179 632 OFFCURVE",
"210 632 CURVE SMOOTH",
"367 632 LINE",
"367 700 LINE",
"190 700 LINE SMOOTH",
"116 700 OFFCURVE",
"71 652 OFFCURVE",
"71 578 CURVE SMOOTH",
"71 441 LINE",
"9 441 LINE",
"9 375 LINE",
"71 375 LINE",
"71 0 LINE"
);
}
);
width = 379;
}
);
unicode = 00A3;
},
{
glyphname = yen;
lastChange = "2016-08-11 09:49:33 +0000";
layers = (
{
background = {
paths = (
{
closed = 1;
nodes = (
"185 458 LINE",
"18 458 LINE",
"18 392 LINE",
"185 392 LINE",
"185 298 LINE",
"18 298 LINE",
"18 232 LINE",
"185 232 LINE",
"185 0 LINE",
"265 0 LINE",
"265 232 LINE",
"438 232 LINE",
"438 298 LINE",
"265 298 LINE",
"265 392 LINE",
"438 392 LINE",
"438 458 LINE",
"265 458 LINE",
"424 700 LINE",
"345 700 LINE",
"221 515 LINE",
"105 700 LINE",
"26 700 LINE"
);
}
);
};
hints = (
{
place = "{185, 80}";
},
{
horizontal = 1;
place = "{392, 66}";
},
{
horizontal = 1;
place = "{232, 66}";
},
{
horizontal = 1;
place = "{0, 21}";
target = up;
type = BottomGhost;
},
{
horizontal = 1;
place = "{700, -20}";
target = down;
type = TopGhost;
}
);
layerId = UUID0;
paths = (
{
closed = 1;
nodes = (
"265 0 LINE",
"265 232 LINE",
"431 232 LINE",
"431 298 LINE",
"265 298 LINE",
"265 392 LINE",
"431 392 LINE",
"431 458 LINE",
"265 458 LINE",
"424 700 LINE",
"345 700 LINE",
"225 515 LINE",
"105 700 LINE",
"26 700 LINE",
"185 458 LINE",
"19 458 LINE",
"19 392 LINE",
"185 392 LINE",
"185 298 LINE",
"19 298 LINE",
"19 232 LINE",
"185 232 LINE",
"185 0 LINE"
);
}
);
width = 456;
}
);
unicode = 00A5;
},
{
glyphname = plus;
lastChange = "2016-08-11 09:49:33 +0000";
layers = (
{
background = {
paths = (
{
closed = 1;
nodes = (
"268 372 LINE",
"268 562 LINE",
"188 562 LINE",
"188 372 LINE",
"30 372 LINE",
"30 306 LINE",
"188 306 LINE",
"188 102 LINE",
"268 102 LINE",
"268 306 LINE",
"426 306 LINE",
"426 372 LINE"
);
}
);
};
hints = (
{
place = "{188, 80}";
},
{
horizontal = 1;
place = "{306, 66}";
},
{
horizontal = 1;
place = "{562, -20}";
target = down;
type = TopGhost;
},
{
horizontal = 1;
place = "{102, 21}";
target = up;
type = BottomGhost;
}
);
layerId = UUID0;
paths = (
{
closed = 1;
nodes = (
"268 102 LINE",
"268 306 LINE",
"426 306 LINE",
"426 372 LINE",
"268 372 LINE",
"268 562 LINE",
"188 562 LINE",
"188 372 LINE",
"30 372 LINE",
"30 306 LINE",
"188 306 LINE",
"188 102 LINE"
);
}
);
width = 554;
}
);
unicode = 002B;
},
{
glyphname = multiply;
lastChange = "2016-08-11 09:49:33 +0000";
layers = (
{
background = {
paths = (
{
closed = 1;
nodes = (
"418 484 LINE",
"371 528 LINE",
"235 392 LINE",
"100 528 LINE",
"56 481 LINE",
"190 347 LINE",
"46 203 LINE",
"93 159 LINE",
"235 301 LINE",
"381 156 LINE",
"425 203 LINE",
"281 347 LINE"
);
}
);
};
hints = (
{
horizontal = 1;
place = "{528, -20}";
target = down;
type = TopGhost;
},
{
horizontal = 1;
place = "{156, 21}";
target = up;
type = BottomGhost;
}
);
layerId = UUID0;
paths = (
{
closed = 1;
nodes = (
"425 203 LINE",
"281 347 LINE",
"418 484 LINE",
"371 528 LINE",
"235 392 LINE",
"100 528 LINE",
"56 481 LINE",
"190 347 LINE",
"46 203 LINE",
"93 159 LINE",
"235 301 LINE",
"381 156 LINE"
);
}
);
width = 472;
}
);
unicode = 00D7;
},
{
glyphname = divide;
lastChange = "2016-08-11 09:49:33 +0000";
layers = (
{
background = {
paths = (
{
closed = 1;
nodes = (
"30 306 LINE",
"430 306 LINE",
"430 372 LINE",
"30 372 LINE"
);
},
{
closed = 1;
nodes = (
"191 482 LINE",
"271 482 LINE",
"271 562 LINE",
"191 562 LINE"
);
},
{
closed = 1;
nodes = (
"191 102 LINE",
"271 102 LINE",
"271 182 LINE",
"191 182 LINE"
);
}
);
};
hints = (
{
place = "{191, 80}";
},
{
horizontal = 1;
place = "{102, 80}";
},
{
horizontal = 1;
place = "{306, 66}";
},
{
horizontal = 1;
place = "{482, 80}";
}
);
layerId = UUID0;
paths = (
{
closed = 1;
nodes = (
"430 306 LINE",
"430 372 LINE",
"30 372 LINE",
"30 306 LINE"
);
},
{
closed = 1;
nodes = (
"271 102 LINE",
"271 182 LINE",
"191 182 LINE",
"191 102 LINE"
);
},
{
closed = 1;
nodes = (
"271 482 LINE",
"271 562 LINE",
"191 562 LINE",
"191 482 LINE"
);
}
);
width = 460;
}
);
unicode = 00F7;
},
{
glyphname = equal;
lastChange = "2016-08-11 09:49:33 +0000";
layers = (
{
background = {
paths = (
{
closed = 1;
nodes = (
"30 226 LINE",
"430 226 LINE",
"430 292 LINE",
"30 292 LINE"
);
},
{
closed = 1;
nodes = (
"30 394 LINE",
"430 394 LINE",
"430 460 LINE",
"30 460 LINE"
);
}
);
};
hints = (
{
horizontal = 1;
place = "{226, 66}";
},
{
horizontal = 1;
place = "{394, 66}";
}
);
layerId = UUID0;
paths = (
{
closed = 1;
nodes = (
"430 394 LINE",
"430 460 LINE",
"30 460 LINE",
"30 394 LINE"
);
},
{
closed = 1;
nodes = (
"430 226 LINE",
"430 292 LINE",
"30 292 LINE",
"30 226 LINE"
);
}
);
width = 460;
}
);
unicode = 003D;
},
